<?xml version="1.0" standalone="no"?>
<!DOCTYPE svg PUBLIC "-//W3C//DTD SVG 20010904//EN"
 "http://www.w3.org/TR/2001/REC-SVG-20010904/DTD/svg10.dtd">
<svg version="1.0" xmlns="http://www.w3.org/2000/svg"
 width="32.000000pt" height="32.000000pt" viewBox="0 0 32.000000 32.000000"
 preserveAspectRatio="xMidYMid meet">

<g transform="translate(0.000000,32.000000) scale(0.100000,-0.100000)"
fill="#ea0606" stroke="none">
<path d="M92 304 c-107 -55 -121 -198 -26 -271 96 -73 238 -10 251 111 14 119
-120 214 -225 160z m126 -59 c-1 -5 -8 -9 -15 -7 -7 2 -13 -2 -13 -8 0 -5 4
-10 8 -10 23 0 52 -43 52 -76 0 -77 -87 -111 -149 -58 -42 35 -44 98 -5 138
15 14 31 26 35 26 16 0 9 -19 -16 -44 -43 -43 -24 -107 35 -121 55 -13 104 63
63 96 -15 12 -16 12 -10 -4 16 -42 -33 -79 -64 -51 -24 22 -24 49 0 73 10 10
22 29 26 41 5 15 13 20 31 18 14 -2 23 -7 22 -13z"/>
<path d="M146 174 c-8 -20 1 -34 20 -34 8 0 14 10 14 25 0 28 -24 34 -34 9z"/>
</g>
</svg>
