<svg xmlns="http://www.w3.org/2000/svg" xmlns:xlink="http://www.w3.org/1999/xlink" fill="none" version="1.1" width="24" height="24" viewBox="0 0 24 24"><clipPath id="master_svg_0"><rect x="0" y="0" width="24" height="24" rx="0"/></clipPath><g clip-path="url(#master_svg_0)" style="mix-blend-mode:passthrough"><g><g style="mix-blend-mode:passthrough"><path d="M12,2.25C6.61522,2.25,2.25,6.61522,2.25,12C2.25,17.3848,6.61522,21.75,12,21.75C17.3848,21.75,21.75,17.3848,21.75,12C21.75,9.30761,20.6587,6.87011,18.8943,5.10571C17.1299,3.34131,14.6924,2.25,12,2.25ZM17.2793,5.66005C15.8486,4.4674700000000005,14.0081,3.75,12,3.75C7.44365,3.75,3.75,7.44365,3.75,12C3.75,16.5563,7.44365,20.25,12,20.25C16.3035,20.25,19.8374,16.9548,20.2164,12.75L15.675,12.75C15.3275,14.4617,13.8142,15.75,12,15.75C9.928930000000001,15.75,8.25,14.0711,8.25,12C8.25,9.928930000000001,9.928930000000001,8.25,12,8.25C12.7643,8.25,13.4752,8.47866,14.0681,8.87129L17.2793,5.66005ZM20.2164,11.25L15.675,11.25C15.5778,10.77123,15.3894,10.32558,15.1287,9.93198L18.34,6.72072C19.3824,7.97123,20.0618,9.534939999999999,20.2164,11.25ZM12,9.75C13.2426,9.75,14.25,10.75736,14.25,12C14.25,13.2426,13.2426,14.25,12,14.25C10.75736,14.25,9.75,13.2426,9.75,12C9.75,10.75736,10.75736,9.75,12,9.75Z" fill-rule="evenodd" fill="#000000" fill-opacity="1"/></g></g></g></svg>