<svg xmlns="http://www.w3.org/2000/svg" xmlns:xlink="http://www.w3.org/1999/xlink" fill="none" version="1.1" width="24" height="24" viewBox="0 0 24 24"><g style="mix-blend-mode:passthrough"><g><g style="mix-blend-mode:passthrough"><g transform="matrix(0,1,-1,0,20.5,-12)"><g style="mix-blend-mode:passthrough"><path d="M16.46967,4.46967C16.735936,4.2034034,17.1526,4.1791973,17.44621,4.397052C17.44621,4.397052,17.53033,4.46967,17.53033,4.46967C17.53033,4.46967,24,10.939,24,10.939C24,10.939,30.4697,4.46967,30.4697,4.46967C30.7359,4.2034034,31.1526,4.1791973,31.446199999999997,4.397052C31.446199999999997,4.397052,31.5303,4.46967,31.5303,4.46967C31.796599999999998,4.735936,31.8208,5.1526,31.602899999999998,5.44621C31.602899999999998,5.44621,31.5303,5.53033,31.5303,5.53033C31.5303,5.53033,24.53033,12.53033,24.53033,12.53033C24.26406,12.7966,23.8474,12.8208,23.55379,12.60295C23.55379,12.60295,23.46967,12.53033,23.46967,12.53033C23.46967,12.53033,16.46967,5.53033,16.46967,5.53033C16.1767767,5.237437,16.1767767,4.762563,16.46967,4.46967C16.46967,4.46967,16.46967,4.46967,16.46967,4.46967Z" fill="#000000" fill-opacity="1"/></g></g></g></g></g></svg>