<svg xmlns="http://www.w3.org/2000/svg" xmlns:xlink="http://www.w3.org/1999/xlink" fill="none" version="1.1" width="24" height="24" viewBox="0 0 24 24"><g style="mix-blend-mode:passthrough"><g><g style="mix-blend-mode:passthrough"><g transform="matrix(0,-1,1,0,-12,27.5)"><g style="mix-blend-mode:passthrough"><path d="M7.96967,19.96967C8.235936,19.7034034,8.6526,19.6791973,8.94621,19.897052C8.94621,19.897052,9.03033,19.96967,9.03033,19.96967C9.03033,19.96967,15.5,26.439,15.5,26.439C15.5,26.439,21.9697,19.96967,21.9697,19.96967C22.2359,19.7034034,22.6526,19.6791973,22.946199999999997,19.897052C22.946199999999997,19.897052,23.0303,19.96967,23.0303,19.96967C23.296599999999998,20.235936,23.3208,20.6526,23.102899999999998,20.94621C23.102899999999998,20.94621,23.0303,21.03033,23.0303,21.03033C23.0303,21.03033,16.03033,28.03033,16.03033,28.03033C15.76406,28.296599999999998,15.3474,28.3208,15.05379,28.10295C15.05379,28.10295,14.96967,28.03033,14.96967,28.03033C14.96967,28.03033,7.96967,21.03033,7.96967,21.03033C7.6767767,20.737437,7.6767767,20.262563,7.96967,19.96967C7.96967,19.96967,7.96967,19.96967,7.96967,19.96967Z" fill="#000000" fill-opacity="1"/></g></g></g></g></g></svg>