<svg xmlns="http://www.w3.org/2000/svg" xmlns:xlink="http://www.w3.org/1999/xlink" fill="none" version="1.1" width="24" height="24" viewBox="0 0 24 24"><clipPath id="master_svg_0"><rect x="0" y="0" width="24" height="24" rx="0"/></clipPath><g clip-path="url(#master_svg_0)" style="mix-blend-mode:passthrough"><g><g style="mix-blend-mode:passthrough"><path d="M12,3.4852772307586672C11.86093,3.208397230758667,11.68763,2.944987230758667,11.46937,2.726730230758667C10.90665,2.164650230758667,10.14376,1.849031033758667,9.3484,1.849257230758667C8.553049999999999,1.849483670758667,7.79034,2.165537230758667,7.22794,2.727937230758667C6.66554,3.290337230758667,6.34948,4.053047230758667,6.34926,4.848407230758667C6.34906,5.544517230758667,6.59104,6.215997230758667,7.02827,6.749997230758667L3.75,6.749997230758667C2.921572,6.749997230758667,2.25,7.421577230758667,2.25,8.249997230758666L2.25,11.249997230758668C2.25,12.078457230758668,2.921572,12.749957230758667,3.75,12.749957230758667L3.75,18.749957230758667C3.75,19.147857230758667,3.9080399999999997,19.529357230758666,4.18934,19.810657230758668C4.47065,20.091957230758666,4.852180000000001,20.249957230758667,5.25,20.249957230758667L18.75,20.249957230758667C19.1478,20.249957230758667,19.5294,20.091957230758666,19.8107,19.810657230758668C20.092,19.529357230758666,20.25,19.147857230758667,20.25,18.749957230758667L20.25,12.749957230758667C21.0784,12.749957230758667,21.75,12.078457230758668,21.75,11.249997230758668L21.75,8.249997230758666C21.75,7.421577230758667,21.0784,6.749997230758667,20.25,6.749997230758667L16.9718,6.749997230758667C17.4092,6.216007230758667,17.651,5.544647230758667,17.6507,4.848407230758667C17.6505,4.053047230758667,17.3345,3.290337230758667,16.772100000000002,2.727937230758667C16.209699999999998,2.165537230758667,15.447,1.849483670758667,14.6516,1.849257230758667C13.8562,1.849031033758667,13.0934,2.164650230758667,12.5306,2.726730230758667C12.3124,2.944987230758667,12.13907,3.208397230758667,12,3.4852772307586672ZM9.34883,3.349257230758667C9.74636,3.3491472307586667,10.12772,3.506877230758667,10.40905,3.787737230758667C10.55404,3.932747230758667,10.70689,4.202507230758667,10.84102,4.604907230758667C10.97087,4.994437230758667,11.06226,5.443607230758667,11.12496,5.882497230758667C11.16771,6.181767230758667,11.19594,6.467717230758667,11.21455,6.714547230758667C10.96772,6.695947230758667,10.68177,6.667707230758667,10.3825,6.624957230758667C9.9436,6.562257230758667,9.49444,6.470867230758667,9.10491,6.341027230758667C8.70247,6.206877230758667,8.4327,6.054017230758667,8.28769,5.909007230758667C8.00684,5.6276772307586675,7.84914,5.246367230758667,7.84926,4.848827230758667C7.84937,4.4511572307586675,8.0074,4.069797230758667,8.288599999999999,3.788597230758667C8.5698,3.507397230758667,8.95115,3.3493672307586673,9.34883,3.349257230758667ZM14.6512,3.349257230758667C14.2536,3.3491472307586667,13.8722,3.5069072307586673,13.5908,3.787857230758667C13.4459,3.932907230758667,13.2931,4.202627230758667,13.159,4.604907230758667C13.0291,4.994437230758667,12.9377,5.443607230758667,12.875,5.882497230758667C12.8323,6.181767230758667,12.8041,6.467717230758667,12.7855,6.714547230758667C13.0323,6.695947230758667,13.3182,6.667707230758667,13.6175,6.624957230758667C14.0564,6.562257230758667,14.5056,6.470867230758667,14.8951,6.341027230758667C15.2975,6.206877230758667,15.5673,6.054017230758667,15.7123,5.909007230758667C15.9932,5.6276772307586675,16.1509,5.246367230758667,16.1507,4.848827230758667C16.1506,4.4511572307586675,15.9926,4.069797230758667,15.7114,3.788597230758667C15.4302,3.507397230758667,15.0488,3.3493672307586673,14.6512,3.349257230758667ZM11.25,8.249997230758666L3.75,8.249997230758666L3.75,11.249997230758668L11.25,11.249997230758668L11.25,8.249997230758666ZM12.75,11.249997230758668L12.75,8.249997230758666L20.25,8.249997230758666L20.25,11.249997230758668L12.75,11.249997230758668ZM11.25,12.749957230758667L5.25,12.749957230758667L5.25,18.749957230758667L11.25,18.749957230758667L11.25,12.749957230758667ZM12.75,12.749957230758667L18.75,12.749957230758667L18.75,18.749957230758667L12.75,18.749957230758667L12.75,12.749957230758667Z" fill-rule="evenodd" fill="#000000" fill-opacity="1"/></g></g></g></svg>