<svg xmlns="http://www.w3.org/2000/svg" xmlns:xlink="http://www.w3.org/1999/xlink" fill="none" version="1.1" width="24" height="24" viewBox="0 0 24 24"><g style="mix-blend-mode:passthrough"><g><g style="mix-blend-mode:passthrough"><g><g style="mix-blend-mode:passthrough"><path d="M7.194020033187866,4.8314999668121335C7.595970033187866,4.100979966812134,8.033230033187866,3.612628966812134,8.682080033187866,3.354372966812134C9.871090033187865,2.881592966812134,14.129500033187867,2.881592966812134,15.317600033187865,3.354467966812134C15.966100033187866,3.612583966812134,16.403500033187868,4.100849966812134,16.80570003318787,4.831219966812133L17.258000033187866,5.698369966812134C17.268300033187867,5.715559966812133,17.277800033187866,5.730659966812134,17.286400033187867,5.743669966812133L17.324800033187866,5.796169966812133C17.530800033187866,6.020679966812134,17.875600033187865,6.156299966812133,18.103200033187868,6.156299966812133C20.255200033187865,6.156299966812133,22.000200033187866,7.900889966812134,22.000200033187866,10.052299966812134L22.000200033187866,15.847299966812134C22.000200033187866,18.591499966812133,19.774400033187867,20.817299966812133,17.030200033187867,20.817299966812133L6.970200033187866,20.817299966812133C4.225300033187866,20.817299966812133,2.000200033187866,18.591799966812133,2.000200033187866,15.847299966812134L2.000200033187866,10.052299966812134C2.000200033187866,7.900889966812134,3.745180033187866,6.156299966812133,5.8972000331878665,6.156299966812133C6.123970033187867,6.156299966812133,6.469280033187866,6.020479966812134,6.675640033187866,5.796169966812133C6.679760033187867,5.791679966812134,6.685140033187866,5.784989966812134,6.691650033187866,5.776139966812133L6.743070033187866,5.697249966812134L7.194020033187866,4.8314999668121335ZM15.491900033187866,5.554889966812134C15.241900033187866,5.101049966812134,15.016000033187867,4.848899966812134,14.762800033187867,4.748139966812134L14.643500033187866,4.708479966812134C13.614400033187867,4.417589966812134,10.034610033187866,4.430819966812134,9.236550033187866,4.748139966812134C8.983540033187866,4.848849966812134,8.757880033187867,5.100869966812134,8.508220033187866,5.554619966812133L8.123360033187867,6.298709966812133L8.028630033187866,6.470139966812134C7.949560033187867,6.601669966812134,7.870460033187866,6.712699966812133,7.780150033187867,6.811099966812134C7.273690033187866,7.361609966812134,6.5244500331878665,7.656309966812134,5.8972000331878665,7.656309966812134L5.733100033187866,7.661839966812134C4.485950033187866,7.7461699668121335,3.500200033187866,8.784529966812133,3.500200033187866,10.052309966812134L3.500200033187866,15.847299966812134C3.500200033187866,17.763499966812134,5.053790033187866,19.317299966812133,6.970200033187866,19.317299966812133L17.030200033187867,19.317299966812133C18.946000033187865,19.317299966812133,20.500200033187866,17.763099966812135,20.500200033187866,15.847299966812134L20.500200033187866,10.052309966812134C20.500200033187866,8.729409966812135,19.426900033187867,7.656309966812134,18.103200033187868,7.656309966812134L17.929100033187865,7.649029966812134C17.340500033187865,7.600609966812134,16.679500033187864,7.311479966812134,16.219600033187866,6.810439966812133C16.130500033187865,6.713339966812134,16.051900033187867,6.603099966812134,15.973300033187867,6.472679966812134C15.962000033187866,6.453969966812133,15.948000033187867,6.429339966812133,15.931900033187866,6.400199966812133L15.815800033187866,6.182449966812134L15.491900033187866,5.554889966812134Z" fill-rule="evenodd" fill="#000000" fill-opacity="1"/></g><g style="mix-blend-mode:passthrough"><path d="M17.5044993724823,8.499999761581421C18.0567793724823,8.499999761581421,18.5044993724823,8.947714761581421,18.5044993724823,9.499999761581421C18.5044993724823,10.012839761581422,18.1184593724823,10.435509761581422,17.6211193724823,10.493269761581422C17.6211193724823,10.493269761581422,17.5044993724823,10.499999761581421,17.5044993724823,10.499999761581421C16.9432143724823,10.499999761581421,16.4954993724823,10.05227976158142,16.4954993724823,9.499999761581421C16.4954993724823,8.98716376158142,16.8815393724823,8.564492561581421,17.3788783724823,8.50672749158142C17.3788783724823,8.50672749158142,17.5044993724823,8.499999761581421,17.5044993724823,8.499999761581421C17.5044993724823,8.499999761581421,17.5044993724823,8.499999761581421,17.5044993724823,8.499999761581421Z" fill="#000000" fill-opacity="1"/></g><g style="mix-blend-mode:passthrough"><path d="M8.070900201797485,13.127999643325806C8.070900201797485,10.957789643325805,9.829690201797485,9.198999643325806,11.999900201797486,9.198999643325806C14.170110201797485,9.198999643325806,15.928900201797486,10.957789643325805,15.928900201797486,13.127999643325806C15.928900201797486,15.298209643325805,14.170110201797485,17.056999643325806,11.999900201797486,17.056999643325806C9.829690201797485,17.056999643325806,8.070900201797485,15.298209643325805,8.070900201797485,13.127999643325806ZM14.428900201797486,13.127999643325806C14.428900201797486,11.786209643325805,13.341690201797485,10.698999643325806,11.999900201797486,10.698999643325806C10.658110201797484,10.698999643325806,9.570900201797485,11.786209643325805,9.570900201797485,13.127999643325806C9.570900201797485,14.469789643325806,10.658110201797484,15.556999643325806,11.999900201797486,15.556999643325806C13.341690201797485,15.556999643325806,14.428900201797486,14.469789643325806,14.428900201797486,13.127999643325806Z" fill-rule="evenodd" fill="#000000" fill-opacity="1"/></g></g></g></g></g></svg>