<svg xmlns="http://www.w3.org/2000/svg" xmlns:xlink="http://www.w3.org/1999/xlink" fill="none" version="1.1" width="24" height="24" viewBox="0 0 24 24"><clipPath id="master_svg_0"><rect x="0" y="0" width="24" height="24" rx="0"/></clipPath><g clip-path="url(#master_svg_0)" style="mix-blend-mode:passthrough"><g><g style="mix-blend-mode:passthrough"><path d="M20.7803,6.220116875488281C21.0732,6.513016875488281,21.0732,6.987890875488281,20.7803,7.280774875488281C20.7803,7.280774875488281,10.28032,17.78033487548828,10.28032,17.78033487548828C9.98743,18.073234875488282,9.51259,18.073234875488282,9.21969,17.78033487548828C9.21969,17.78033487548828,3.969694,12.530794875488281,3.969694,12.530794875488281C3.6767873,12.237914875488281,3.6767661,11.76303487548828,3.969646,11.47013487548828C4.262526,11.177224875488282,4.7374,11.177204875488282,5.03031,11.470084875488281C5.03031,11.470084875488281,9.74999,16.18933487548828,9.74999,16.18933487548828C9.74999,16.18933487548828,19.7197,6.220092875488281,19.7197,6.220092875488281C20.0126,5.927206275488281,20.4875,5.9272168754882815,20.7803,6.220116875488281C20.7803,6.220116875488281,20.7803,6.220116875488281,20.7803,6.220116875488281Z" fill-rule="evenodd" fill="#000000" fill-opacity="1"/></g></g></g></svg>