<svg xmlns="http://www.w3.org/2000/svg" xmlns:xlink="http://www.w3.org/1999/xlink" fill="none" version="1.1" width="24" height="24" viewBox="0 0 24 24"><g style="mix-blend-mode:passthrough"><g><g style="mix-blend-mode:passthrough"><g><g style="mix-blend-mode:passthrough"><path d="M12.246604991264343,21.999977312469483C10.891604991264344,21.999977312469483,9.570594991264343,21.984977312469482,8.263604991264344,21.95797731246948C6.591594991264343,21.92497731246948,5.434604991264344,20.840977312469484,5.245599991264343,19.12897731246948C4.9305999912643435,16.288997312469483,4.391599961264343,9.595000312469482,4.386599971264343,9.528000312469482C4.352599991264343,9.115000312469482,4.660599991264343,8.753000212469482,5.073599991264343,8.720000208469482C5.480604991264343,8.709000212469482,5.848604991264343,8.995000312469482,5.881604991264343,9.407000312469483C5.886604991264344,9.475000312469483,6.424604991264344,16.145997312469483,6.736604991264343,18.96397731246948C6.843604991264343,19.93697731246948,7.368594991264343,20.438977312469483,8.294594991264344,20.45797731246948C10.794594991264344,20.510977312469482,13.345604991264343,20.513977312469482,16.095634991264344,20.46397731246948C17.079634991264342,20.444977312469483,17.611634991264346,19.952977312469482,17.721634991264345,18.956977312469483C18.031634991264344,16.162997312469482,18.571634991264343,9.475000312469483,18.577634991264343,9.407000312469483C18.61063499126434,8.995000312469482,18.975634991264343,8.707000212469483,19.384634991264342,8.720000208469482C19.797634991264346,8.754000212469482,20.105634991264346,9.115000312469482,20.072634991264344,9.528000312469482C20.066634991264344,9.596000312469481,19.524634991264342,16.306997312469484,19.212634991264345,19.121977312469483C19.018634991264342,20.868977312469482,17.864634991264346,21.931977312469485,16.12263499126434,21.96397731246948C14.789634991264343,21.986977312469485,13.503604991264343,21.999977312469483,12.246604991264343,21.999977312469483Z" fill-rule="evenodd" fill="#000000" fill-opacity="1"/></g><g style="mix-blend-mode:passthrough"><path d="M20.708,6.989300012588501C20.708,6.989300012588501,3.75,6.989300012588501,3.75,6.989300012588501C3.336,6.989300012588501,3,6.653300012588501,3,6.239300012588501C3,5.825300012588501,3.336,5.489300012588501,3.75,5.489300012588501C3.75,5.489300012588501,20.708,5.489300012588501,20.708,5.489300012588501C21.122,5.489300012588501,21.458,5.825300012588501,21.458,6.239300012588501C21.458,6.653300012588501,21.122,6.989300012588501,20.708,6.989300012588501Z" fill-rule="evenodd" fill="#000000" fill-opacity="1"/></g><g style="mix-blend-mode:passthrough"><path d="M17.440400026321413,6.98929993057251C16.30240002632141,6.98929993057251,15.314400026321412,6.17829993057251,15.090400026321412,5.062299930572509C15.090400026321412,5.062299930572509,14.847400026321411,3.84629993057251,14.847400026321411,3.84629993057251C14.796400026321411,3.66129993057251,14.58540002632141,3.5002999305725098,14.34540002632141,3.5002999305725098C14.34540002632141,3.5002999305725098,10.112400026321412,3.5002999305725098,10.112400026321412,3.5002999305725098C9.872400026321412,3.5002999305725098,9.661400026321411,3.66129993057251,9.600400026321411,3.8922999305725097C9.600400026321411,3.8922999305725097,9.36740002632141,5.062299930572509,9.36740002632141,5.062299930572509C9.14440002632141,6.17829993057251,8.155400026321411,6.98929993057251,7.017400026321411,6.98929993057251C6.603400026321411,6.98929993057251,6.267400026321411,6.653299930572509,6.267400026321411,6.23929993057251C6.267400026321411,5.82529993057251,6.603400026321411,5.48929993057251,7.017400026321411,5.48929993057251C7.443400026321411,5.48929993057251,7.813400026321411,5.18529993057251,7.897400026321411,4.767299930572509C7.897400026321411,4.767299930572509,8.14040002632141,3.55129993057251,8.14040002632141,3.55129993057251C8.387400026321412,2.6192999305725095,9.19440002632141,2.0002999305725098,10.112400026321412,2.0002999305725098C10.112400026321412,2.0002999305725098,14.34540002632141,2.0002999305725098,14.34540002632141,2.0002999305725098C15.263400026321412,2.0002999305725098,16.070400026321412,2.6192999305725095,16.30740002632141,3.50629993057251C16.30740002632141,3.50629993057251,16.56140002632141,4.767299930572509,16.56140002632141,4.767299930572509C16.644400026321414,5.18529993057251,17.01440002632141,5.48929993057251,17.440400026321413,5.48929993057251C17.85440002632141,5.48929993057251,18.190400026321413,5.82529993057251,18.190400026321413,6.23929993057251C18.190400026321413,6.653299930572509,17.85440002632141,6.98929993057251,17.440400026321413,6.98929993057251Z" fill-rule="evenodd" fill="#000000" fill-opacity="1"/></g></g></g></g></g></svg>