<svg xmlns="http://www.w3.org/2000/svg" xmlns:xlink="http://www.w3.org/1999/xlink" fill="none" version="1.1" width="24" height="24" viewBox="0 0 24 24"><clipPath id="master_svg_0"><rect x="0" y="0" width="24" height="24" rx="0"/></clipPath><g clip-path="url(#master_svg_0)" style="mix-blend-mode:passthrough"><g><g style="mix-blend-mode:passthrough"><path d="M12,2.25C6.61522,2.25,2.25,6.61522,2.25,12C2.25,17.3848,6.61522,21.75,12,21.75C17.3848,21.75,21.75,17.3848,21.75,12C21.75,6.61522,17.3848,2.25,12,2.25ZM3.75,12C3.75,7.44365,7.44365,3.75,12,3.75C16.5563,3.75,20.25,7.44365,20.25,12C20.25,16.5563,16.5563,20.25,12,20.25C7.44365,20.25,3.75,16.5563,3.75,12ZM12,7.5C12.4142,7.5,12.75,7.83579,12.75,8.25L12.75,13.9393L14.6516,12.0377C14.9445,11.74481,15.4194,11.74481,15.7123,12.0377C16.005200000000002,12.3306,16.005200000000002,12.8055,15.7123,13.0984L12.5354,16.275199999999998C12.5172,16.293799999999997,12.4979,16.311500000000002,12.4778,16.3281C12.4276,16.3697,12.3733,16.4037,12.3164,16.4302C12.22023,16.475,12.11304,16.5,12,16.5C11.88858,16.5,11.78284,16.4757,11.68778,16.4321C11.62285,16.4024,11.56128,16.3629,11.5053,16.3137C11.4918,16.3019,11.47873,16.2895,11.46611,16.276699999999998L8.287700000000001,13.0984C7.99481,12.8055,7.99481,12.3306,8.287700000000001,12.0377C8.58059,11.74481,9.05547,11.74481,9.34836,12.0377L11.25,13.9393L11.25,8.25C11.25,7.83579,11.58579,7.5,12,7.5Z" fill-rule="evenodd" fill="#000000" fill-opacity="1"/></g></g></g></svg>