<svg xmlns="http://www.w3.org/2000/svg" xmlns:xlink="http://www.w3.org/1999/xlink" fill="none" version="1.1" width="24" height="24" viewBox="0 0 24 24"><defs><mask id="master_svg_0"><g style="mix-blend-mode:passthrough"><path d="M2.0003256797790527,3.000157356262207C2.0003256797790527,3.000157356262207,19.18092567977905,3.000157356262207,19.18092567977905,3.000157356262207C19.18092567977905,3.000157356262207,19.18092567977905,21.939657356262206,19.18092567977905,21.939657356262206C19.18092567977905,21.939657356262206,2.0003256797790527,21.939657356262206,2.0003256797790527,21.939657356262206C2.0003256797790527,21.939657356262206,2.0003256797790527,3.000157356262207,2.0003256797790527,3.000157356262207C2.0003256797790527,3.000157356262207,2.0003256797790527,3.000157356262207,2.0003256797790527,3.000157356262207Z" fill-rule="evenodd" fill="#FFFFFF" fill-opacity="1"/></g></mask></defs><g style="mix-blend-mode:passthrough"><g><g style="mix-blend-mode:passthrough"><g><g style="mix-blend-mode:passthrough"><path d="M20.750799396514893,21.939698219299316C20.750799396514893,21.939698219299316,13.497799396514893,21.939698219299316,13.497799396514893,21.939698219299316C13.083799396514893,21.939698219299316,12.747799396514893,21.603698219299318,12.747799396514893,21.189698219299316C12.747799396514893,20.775698219299315,13.083799396514893,20.439698219299316,13.497799396514893,20.439698219299316C13.497799396514893,20.439698219299316,20.750799396514893,20.439698219299316,20.750799396514893,20.439698219299316C21.164799396514894,20.439698219299316,21.500799396514893,20.775698219299315,21.500799396514893,21.189698219299316C21.500799396514893,21.603698219299318,21.164799396514894,21.939698219299316,20.750799396514893,21.939698219299316Z" fill-rule="evenodd" fill="#000000" fill-opacity="1"/></g><g style="mix-blend-mode:passthrough"><g mask="url(#master_svg_0)"><g style="mix-blend-mode:passthrough"><path d="M13.110625679779053,5.016797356262208C13.110625679779053,5.016797356262208,3.6955956797790526,16.79175735626221,3.6955956797790526,16.79175735626221C3.5245956797790527,17.005757356262208,3.4615956797790526,17.281757356262204,3.5245956797790527,17.546757356262205C3.5245956797790527,17.546757356262205,4.205595679779053,20.431757356262207,4.205595679779053,20.431757356262207C4.205595679779053,20.431757356262207,7.244595679779053,20.393757356262206,7.244595679779053,20.393757356262206C7.533595679779053,20.390757356262206,7.800595679779053,20.26175735626221,7.977595679779053,20.041757356262206C11.194595679779052,16.016757356262207,17.327625679779054,8.342797356262206,17.501625679779053,8.117797356262207C17.665625679779055,7.851797356262207,17.729625679779055,7.475797356262207,17.643625679779053,7.113797356262207C17.555625679779055,6.742797356262207,17.324625679779054,6.427797356262207,16.991625679779055,6.226797356262207C16.92062567977905,6.177797356262207,15.235625679779053,4.869797356262207,15.183625679779052,4.828797356262207C14.549625679779053,4.320797356262207,13.624625679779053,4.408797356262207,13.110625679779053,5.016797356262208C13.110625679779053,5.016797356262208,13.110625679779053,5.016797356262208,13.110625679779053,5.016797356262208C13.110625679779053,5.016797356262208,13.110625679779053,5.016797356262208,13.110625679779053,5.016797356262208ZM3.6135956797790527,21.939757356262206C3.2665956797790527,21.939757356262206,2.964599679779053,21.701757356262206,2.883599679779053,21.362757356262208C2.883599679779053,21.362757356262208,2.064599979779053,17.891757356262207,2.064599979779053,17.891757356262207C1.8955996797790526,17.172757356262206,2.0635999797790525,16.430757356262205,2.524599679779053,15.854757356262207C2.524599679779053,15.854757356262207,11.944595679779052,4.072797356262207,11.944595679779052,4.072797356262207C11.948595679779054,4.068797356262207,11.951595679779052,4.0637973562622065,11.955595679779053,4.059797356262207C12.988625679779053,2.824800356262207,14.856625679779052,2.642800356262207,16.116625679779055,3.653800356262207C16.166625679779052,3.692800356262207,17.839625679779054,4.992797356262207,17.839625679779054,4.992797356262207C18.44762567977905,5.354797356262207,18.922625679779053,6.001797356262207,19.102625679779052,6.767797356262207C19.281625679779054,7.525797356262207,19.151625679779052,8.307797356262206,18.734625679779054,8.968797356262208C18.70362567977905,9.017797356262207,18.676625679779054,9.059797356262207,9.148595679779053,20.97975735626221C8.689595679779053,21.551757356262208,8.001595679779053,21.884757356262206,7.262595679779053,21.893757356262206C7.262595679779053,21.893757356262206,3.6235956797790525,21.939757356262206,3.6235956797790525,21.939757356262206C3.6235956797790525,21.939757356262206,3.6135956797790527,21.939757356262206,3.6135956797790527,21.939757356262206C3.6135956797790527,21.939757356262206,3.6135956797790527,21.939757356262206,3.6135956797790527,21.939757356262206Z" fill-rule="evenodd" fill="#000000" fill-opacity="1"/></g></g></g><g style="mix-blend-mode:passthrough"><path d="M16.223404824676514,11.684801359710693C16.063404824676514,11.684801359710693,15.903404824676514,11.633801359710693,15.766404824676513,11.529801359710692C15.766404824676513,11.529801359710692,10.314399824676514,7.3418013597106935,10.314399824676514,7.3418013597106935C9.986399924676514,7.089801359710693,9.924399924676514,6.619800359710693,10.176399824676514,6.289800359710694C10.429399824676514,5.961799859710693,10.899399824676514,5.900799859710693,11.228404824676513,6.152800359710693C11.228404824676513,6.152800359710693,16.681394824676513,10.339801359710695,16.681394824676513,10.339801359710695C17.009404824676515,10.591801359710693,17.071394824676513,11.062801359710694,16.818404824676513,11.391801359710694C16.671404824676515,11.583801359710694,16.448404824676516,11.684801359710693,16.223404824676514,11.684801359710693Z" fill-rule="evenodd" fill="#000000" fill-opacity="1"/></g></g></g></g></g></svg>