<svg xmlns="http://www.w3.org/2000/svg" xmlns:xlink="http://www.w3.org/1999/xlink" fill="none" version="1.1" width="24" height="24" viewBox="0 0 24 24"><clipPath id="master_svg_0"><rect x="0" y="0" width="24" height="24" rx="0"/></clipPath><g clip-path="url(#master_svg_0)" style="mix-blend-mode:passthrough"><g><g style="mix-blend-mode:passthrough"><path d="M5.250035367431641,3C5.66424536743164,2.99999678137,6.000035367431641,3.335781,6.000035367431641,3.749994L6.000085367431641,10.233699999999999C7.084405367431641,10.55641,7.875095367431641,11.56086,7.875095367431641,12.75C7.875095367431641,13.9391,7.084405367431641,14.9436,6.000085367431641,15.2663L6.000035367431641,20.25C6.000035367431641,20.6642,5.66424536743164,21,5.250035367431641,21C4.835815367431641,21,4.500035367431641,20.6642,4.500035367431641,20.25L4.500085367431641,15.2663C3.4157823674316408,14.9436,2.6250953674316406,13.9391,2.6250953674316406,12.75C2.6250953674316406,11.56087,3.4157833674316405,10.55641,4.500085367431641,10.23371L4.500035367431641,3.750006C4.500035367431641,3.335792,4.835815367431641,3.00000321867,5.250035367431641,3ZM18.75019536743164,3C19.16439536743164,3.00000321867,19.50019536743164,3.335792,19.50019536743164,3.750006L19.50009536743164,13.2337C20.58439536743164,13.5564,21.37509536743164,14.5609,21.37509536743164,15.75C21.37509536743164,16.9391,20.58439536743164,17.9436,19.50009536743164,18.2663L19.50019536743164,20.25C19.50019536743164,20.6642,19.16439536743164,21,18.75019536743164,21C18.335995367431643,21,18.00019536743164,20.6642,18.00019536743164,20.25L18.00009536743164,18.2663C16.91579536743164,17.9436,16.12509536743164,16.9391,16.12509536743164,15.75C16.12509536743164,14.5609,16.91579536743164,13.5564,18.00009536743164,13.2337L18.00019536743164,3.749994C18.00019536743164,3.335781,18.335995367431643,2.99999678137,18.75019536743164,3ZM18.75009536743164,16.875C19.371395367431642,16.875,19.87509536743164,16.371299999999998,19.87509536743164,15.75C19.87509536743164,15.1287,19.371395367431642,14.625,18.75009536743164,14.625C18.128795367431643,14.625,17.62509536743164,15.1287,17.62509536743164,15.75C17.62509536743164,16.371299999999998,18.128795367431643,16.875,18.75009536743164,16.875ZM12.75009536743164,3.750003C12.75009536743164,3.33579,12.41432536743164,3,12.00010536743164,3C11.585895367431641,3,11.25010536743164,3.335783,11.25010536743164,3.749997L11.25009536743164,5.7337C10.16578536743164,6.05641,9.37509536743164,7.06086,9.37509536743164,8.25C9.37509536743164,9.43914,10.16578536743164,10.44359,11.25009536743164,10.766300000000001L11.25010536743164,20.25C11.25010536743164,20.6642,11.585895367431641,21,12.00010536743164,21C12.41431536743164,21,12.75009536743164,20.6642,12.75009536743164,20.25L12.75009536743164,10.76629C13.834395367431641,10.44358,14.62509536743164,9.439129999999999,14.62509536743164,8.25C14.62509536743164,7.06087,13.834395367431641,6.05642,12.75009536743164,5.73371L12.75009536743164,3.750003ZM13.12509536743164,8.25C13.12509536743164,8.87132,12.621415367431641,9.375,12.00009536743164,9.375C11.37877536743164,9.375,10.87509536743164,8.87132,10.87509536743164,8.25C10.87509536743164,7.62868,11.37877536743164,7.125,12.00009536743164,7.125C12.621415367431641,7.125,13.12509536743164,7.62868,13.12509536743164,8.25ZM5.25010536743164,13.875C5.871425367431641,13.875,6.375095367431641,13.3713,6.375095367431641,12.75C6.375095367431641,12.12868,5.871425367431641,11.625,5.25010536743164,11.625C4.628775367431641,11.625,4.125095367431641,12.12868,4.125095367431641,12.75C4.125095367431641,13.3713,4.628785367431641,13.875,5.25010536743164,13.875Z" fill-rule="evenodd" fill="#000000" fill-opacity="1"/></g></g></g></svg>