<svg xmlns="http://www.w3.org/2000/svg" xmlns:xlink="http://www.w3.org/1999/xlink" fill="none" version="1.1" width="24" height="24" viewBox="0 0 24 24"><clipPath id="master_svg_0"><rect x="0" y="0" width="24" height="24" rx="0"/></clipPath><g clip-path="url(#master_svg_0)" style="mix-blend-mode:passthrough"><g><g style="mix-blend-mode:passthrough"><path d="M19.50019536743164,3.750005C19.50019536743164,3.335791,19.16439536743164,3.00000274183,18.75019536743164,3C18.33599536743164,2.9999972582,18.00019536743164,3.335782,18.00019536743164,3.749995L18.00009536743164,15L16.50009536743164,15C16.08589536743164,15,15.75009536743164,15.3358,15.75009536743164,15.75C15.75009536743164,16.1642,16.08589536743164,16.5,16.50009536743164,16.5L21.00009536743164,16.5C21.41429536743164,16.5,21.75009536743164,16.1642,21.75009536743164,15.75C21.75009536743164,15.3358,21.41429536743164,15,21.00009536743164,15L19.50009536743164,15L19.50019536743164,3.750005ZM5.250035367431641,3C5.66424536743164,2.99999743702,6.000035367431641,3.335782,6.000035367431641,3.749995L6.000085367431641,12L7.500095367431641,12C7.91430536743164,12,8.25009536743164,12.33579,8.25009536743164,12.75C8.25009536743164,13.1642,7.91430536743164,13.5,7.500095367431641,13.5L3.0000953674316406,13.5C2.5858813674316408,13.5,2.2500953674316406,13.1642,2.2500953674316406,12.75C2.2500953674316406,12.33579,2.5858813674316408,12,3.0000953674316406,12L4.500085367431641,12L4.500035367431641,3.750005C4.500035367431641,3.335791,4.8358253674316405,3.00000256301,5.250035367431641,3ZM12.00010536743164,3C12.41429536743164,3,12.75009536743164,3.335788,12.75009536743164,3.750002L12.75009536743164,7.5L14.25009536743164,7.5C14.66429536743164,7.5,15.00009536743164,7.83579,15.00009536743164,8.25C15.00009536743164,8.66421,14.66429536743164,9,14.25009536743164,9L9.75009536743164,9C9.33588536743164,9,9.00009536743164,8.66421,9.00009536743164,8.25C9.00009536743164,7.83579,9.33588536743164,7.5,9.75009536743164,7.5L11.25009536743164,7.5L11.25010536743164,3.749998C11.25010536743164,3.335785,11.585895367431641,3,12.00010536743164,3ZM12.00009536743164,10.5C12.41429536743164,10.5,12.75009536743164,10.83579,12.75009536743164,11.25L12.75009536743164,20.25C12.75009536743164,20.6642,12.41429536743164,21,12.00010536743164,21C11.585895367431641,21,11.25010536743164,20.6642,11.25010536743164,20.25L11.25009536743164,11.25C11.25009536743164,10.83579,11.58587536743164,10.5,12.00009536743164,10.5ZM5.25010536743164,15C5.664315367431641,15,6.000095367431641,15.3358,6.000095367431641,15.75L6.000035367431641,20.25C6.000035367431641,20.6642,5.66424536743164,21,5.250025367431641,21C4.835815367431641,21,4.500035367431641,20.6642,4.500035367431641,20.25L4.500095367431641,15.75C4.500095367431641,15.3358,4.8358953674316405,15,5.25010536743164,15ZM18.75009536743164,18C19.16429536743164,18,19.50009536743164,18.3357,19.50009536743164,18.75L19.50019536743164,20.25C19.50019536743164,20.6642,19.16439536743164,21,18.75019536743164,21C18.33599536743164,21,18.00019536743164,20.6643,18.00019536743164,20.25L18.00009536743164,18.75C18.00009536743164,18.3358,18.33579536743164,18,18.75009536743164,18Z" fill-rule="evenodd" fill="#000000" fill-opacity="1"/></g></g></g></svg>