<svg xmlns="http://www.w3.org/2000/svg" xmlns:xlink="http://www.w3.org/1999/xlink" fill="none" version="1.1" width="24" height="24" viewBox="0 0 24 24"><clipPath id="master_svg_0"><rect x="0" y="0" width="24" height="24" rx="0"/></clipPath><g clip-path="url(#master_svg_0)" style="mix-blend-mode:passthrough"><g><g style="mix-blend-mode:passthrough"><path d="M10.49990463256836,5.624370574951172C10.49990463256836,5.210156574951172,10.16411463256836,4.874370574951172,9.74990463256836,4.874370574951172C9.335694632568359,4.874370574951172,8.99990463256836,5.210156574951172,8.99990463256836,5.624370574951172L8.99990463256836,10.124370574951172C8.99990463256836,10.538580574951173,9.335694632568359,10.874370574951172,9.74990463256836,10.874370574951172C10.16411463256836,10.874370574951172,10.49990463256836,10.538580574951173,10.49990463256836,10.124370574951172L10.49990463256836,8.624370574951172L20.24990463256836,8.624320574951172C20.66410463256836,8.624310574951172,20.99990463256836,8.28853057495117,20.99990463256836,7.874310574951172C20.99990463256836,7.460100574951172,20.66410463256836,7.124310574951172,20.24990463256836,7.124320574951172L10.49990463256836,7.124370574951172L10.49990463256836,5.624370574951172ZM3.7499186325683596,7.124320574951172C3.3357046325683593,7.124310574951172,2.9999121428783595,7.460090574951172,2.9999046325683594,7.874300574951172C2.9998971225083593,8.288520574951171,3.3356776325683595,8.624310574951172,3.749890632568359,8.624320574951172L6.74989463256836,8.624370574951172C7.1641046325683595,8.624380574951171,7.49989463256836,8.288600574951172,7.499904632568359,7.8743805749511715C7.499914632568359,7.460170574951172,7.164134632568359,7.1243805749511715,6.749914632568359,7.124370574951172L3.7499186325683596,7.124320574951172ZM16.49990463256836,13.874370574951172C16.49990463256836,13.460160574951171,16.16410463256836,13.124370574951172,15.74990463256836,13.124370574951172C15.33570463256836,13.124370574951172,14.99990463256836,13.460160574951171,14.99990463256836,13.874370574951172L14.99990463256836,18.374370574951172C14.99990463256836,18.788570574951173,15.33570463256836,19.124370574951172,15.74990463256836,19.124370574951172C16.16410463256836,19.124370574951172,16.49990463256836,18.788570574951173,16.49990463256836,18.374370574951172L16.49990463256836,16.874370574951172L20.24990463256836,16.874370574951172C20.66410463256836,16.874370574951172,20.99990463256836,16.538570574951173,20.99990463256836,16.124370574951172C20.99990463256836,15.710170574951173,20.66410463256836,15.374370574951172,20.24990463256836,15.374370574951172L16.49990463256836,15.374370574951172L16.49990463256836,13.874370574951172ZM3.7499036325683592,15.374370574951172L12.74990463256836,15.374370574951172C13.164104632568359,15.374370574951172,13.49990463256836,15.710170574951173,13.49990463256836,16.124370574951172C13.49990463256836,16.538570574951173,13.164104632568359,16.874370574951172,12.74990463256836,16.874370574951172L3.7499056325683595,16.874370574951172C3.335691632568359,16.874370574951172,2.9999046325683594,16.538570574951173,2.9999046325683594,16.124370574951172C2.9999046325683594,15.710170574951173,3.3356896325683594,15.374370574951172,3.7499036325683592,15.374370574951172Z" fill-rule="evenodd" fill="#000000" fill-opacity="1"/></g></g></g></svg>