<svg xmlns="http://www.w3.org/2000/svg" xmlns:xlink="http://www.w3.org/1999/xlink" fill="none" version="1.1" width="24" height="24" viewBox="0 0 24 24"><defs><mask id="master_svg_0"><g style="mix-blend-mode:passthrough"><path d="M3,5.000400066375732C3,5.000400066375732,9.2258,5.000400066375732,9.2258,5.000400066375732C9.2258,5.000400066375732,9.2258,11.192000066375734,9.2258,11.192000066375734C9.2258,11.192000066375734,3,11.192000066375734,3,11.192000066375734C3,11.192000066375734,3,5.000400066375732,3,5.000400066375732C3,5.000400066375732,3,5.000400066375732,3,5.000400066375732Z" fill-rule="evenodd" fill="#FFFFFF" fill-opacity="1"/></g></mask></defs><g style="mix-blend-mode:passthrough"><g><g style="mix-blend-mode:passthrough"><g><g style="mix-blend-mode:passthrough"><path d="M10.080100000858307,18.592800617218018C10.080100000858307,18.592800617218018,3.779100000858307,18.592800617218018,3.779100000858307,18.592800617218018C3.3651000008583067,18.592800617218018,3.029100000858307,18.25680061721802,3.029100000858307,17.842800617218018C3.029100000858307,17.428800617218016,3.3651000008583067,17.092800617218018,3.779100000858307,17.092800617218018C3.779100000858307,17.092800617218018,10.080100000858307,17.092800617218018,10.080100000858307,17.092800617218018C10.494100000858307,17.092800617218018,10.830100000858307,17.428800617218016,10.830100000858307,17.842800617218018C10.830100000858307,18.25680061721802,10.494100000858307,18.592800617218018,10.080100000858307,18.592800617218018Z" fill-rule="evenodd" fill="#000000" fill-opacity="1"/></g><g style="mix-blend-mode:passthrough"><path d="M19.190899658203126,8.900400161743164C19.190899658203126,8.900400161743164,12.890899658203125,8.900400161743164,12.890899658203125,8.900400161743164C12.476899658203125,8.900400161743164,12.140899658203125,8.564400161743164,12.140899658203125,8.150400161743164C12.140899658203125,7.736400161743164,12.476899658203125,7.400400161743164,12.890899658203125,7.400400161743164C12.890899658203125,7.400400161743164,19.190899658203126,7.400400161743164,19.190899658203126,7.400400161743164C19.604899658203124,7.400400161743164,19.940899658203126,7.736400161743164,19.940899658203126,8.150400161743164C19.940899658203126,8.564400161743164,19.604899658203124,8.900400161743164,19.190899658203126,8.900400161743164Z" fill-rule="evenodd" fill="#000000" fill-opacity="1"/></g><g style="mix-blend-mode:passthrough"><g mask="url(#master_svg_0)"><g style="mix-blend-mode:passthrough"><path d="M6.112800000005052,6.500000067055225C5.223800000005053,6.500000067055225,4.499800000005052,7.216000067055226,4.499800000005052,8.097000067055225C4.499800000005052,8.977000067055226,5.223800000005053,9.692000067055226,6.112800000005052,9.692000067055226C7.0028000000050525,9.692000067055226,7.725800000005052,8.977000067055226,7.725800000005052,8.097000067055225C7.725800000005052,7.216000067055226,7.0028000000050525,6.500000067055225,6.112800000005052,6.500000067055225ZM6.112800000005052,11.192000067055226C4.396800000005053,11.192000067055226,2.9998000000050524,9.804000067055226,2.9998000000050524,8.097000067055225C2.9998000000050524,6.390000067055225,4.396800000005053,5.000000067055225,6.112800000005052,5.000000067055225C7.8298000000050525,5.000000067055225,9.225800000005052,6.390000067055225,9.225800000005052,8.097000067055225C9.225800000005052,9.804000067055226,7.8298000000050525,11.192000067055226,6.112800000005052,11.192000067055226Z" fill-rule="evenodd" fill="#000000" fill-opacity="1"/></g></g></g><g style="mix-blend-mode:passthrough"><path d="M17.387699760437012,16.208000659942627C16.497699760437012,16.208000659942627,15.773699760437012,16.924000659942628,15.773699760437012,17.804000659942627C15.773699760437012,18.685000659942627,16.497699760437012,19.400000659942627,17.387699760437012,19.400000659942627C18.276699760437012,19.400000659942627,18.99969976043701,18.685000659942627,18.99969976043701,17.804000659942627C18.99969976043701,16.924000659942628,18.276699760437012,16.208000659942627,17.387699760437012,16.208000659942627ZM17.387699760437012,20.900000659942627C15.670699760437012,20.900000659942627,14.273699760437012,19.511000659942628,14.273699760437012,17.804000659942627C14.273699760437012,16.097000659942626,15.670699760437012,14.708000659942627,17.387699760437012,14.708000659942627C19.10369976043701,14.708000659942627,20.49969976043701,16.097000659942626,20.49969976043701,17.804000659942627C20.49969976043701,19.511000659942628,19.10369976043701,20.900000659942627,17.387699760437012,20.900000659942627Z" fill-rule="evenodd" fill="#000000" fill-opacity="1"/></g></g></g></g></g></svg>