<svg xmlns="http://www.w3.org/2000/svg" xmlns:xlink="http://www.w3.org/1999/xlink" fill="none" version="1.1" width="24" height="24" viewBox="0 0 24 24"><clipPath id="master_svg_0"><rect x="0" y="0" width="24" height="24" rx="0"/></clipPath><g clip-path="url(#master_svg_0)" style="mix-blend-mode:passthrough"><g><g style="mix-blend-mode:passthrough"><path d="M3.7499442236328124,8.624360166015625L7.233654223632812,8.624410166015625C7.5563542236328125,9.708730166015625,8.560814223632812,10.499420166015625,9.749954223632812,10.499420166015625C10.939094223632813,10.499420166015625,11.943544223632813,9.708730166015625,12.266254223632812,8.624420166015625L20.249954223632812,8.624360166015625C20.664154223632814,8.624360166015625,20.999954223632812,8.288570166015624,20.999954223632812,7.8743601660156255C20.999954223632812,7.460150166015625,20.664154223632814,7.1243601660156255,20.249954223632812,7.1243601660156255L12.266244223632812,7.124420166015625C11.943544223632813,6.040108166015625,10.939084223632811,5.249420166015625,9.749954223632812,5.249420166015625C8.560824223632814,5.249420166015625,7.556374223632813,6.040106166015625,7.233664223632813,7.124410166015625L3.7499642236328126,7.1243601660156255C3.3357502236328127,7.1243601660156255,2.9999597669328124,7.460140166015625,2.9999542236328125,7.874350166015625C2.9999486804728126,8.288570166015624,3.3357302236328126,8.624360166015625,3.7499442236328124,8.624360166015625ZM9.749954223632812,6.749420166015625C10.371274223632813,6.749420166015625,10.874954223632812,7.253100166015625,10.874954223632812,7.874420166015625C10.874954223632812,8.495750166015625,10.371274223632813,8.999420166015625,9.749954223632812,8.999420166015625C9.128634223632812,8.999420166015625,8.624954223632812,8.495750166015625,8.624954223632812,7.874430166015625C8.624954223632812,7.253110166015626,9.128634223632812,6.749420166015625,9.749954223632812,6.749420166015625ZM13.233654223632813,16.874420166015625L3.7499552236328126,16.874420166015625C3.3357412236328123,16.874420166015625,2.9999542236328125,16.538620166015626,2.9999542236328125,16.124420166015625C2.9999542236328125,15.710220166015626,3.3357402236328126,15.374420166015625,3.7499532236328124,15.374420166015625L13.233654223632813,15.374420166015625C13.556354223632813,14.290110166015625,14.560854223632813,13.499420166015625,15.749954223632812,13.499420166015625C16.939054223632812,13.499420166015625,17.943554223632812,14.290110166015625,18.266254223632814,15.374420166015625L20.249954223632812,15.374420166015625C20.664154223632814,15.374420166015625,20.999954223632812,15.710220166015626,20.999954223632812,16.124420166015625C20.999954223632812,16.538620166015626,20.664154223632814,16.874420166015625,20.249954223632812,16.874420166015625L18.266254223632814,16.874420166015625C17.943554223632812,17.958720166015624,16.939054223632812,18.749420166015625,15.749954223632812,18.749420166015625C14.560854223632813,18.749420166015625,13.556354223632813,17.958720166015624,13.233654223632813,16.874420166015625ZM14.624954223632812,16.124420166015625C14.624954223632812,16.745720166015623,15.128654223632813,17.249420166015625,15.749954223632812,17.249420166015625C16.37125422363281,17.249420166015625,16.874954223632812,16.745720166015623,16.874954223632812,16.124420166015625C16.874954223632812,15.503120166015625,16.37125422363281,14.999420166015625,15.749954223632812,14.999420166015625C15.128654223632813,14.999420166015625,14.624954223632812,15.503120166015625,14.624954223632812,16.124420166015625Z" fill-rule="evenodd" fill="#000000" fill-opacity="1"/></g></g></g></svg>