<svg xmlns="http://www.w3.org/2000/svg" xmlns:xlink="http://www.w3.org/1999/xlink" fill="none" version="1.1" width="24" height="24" viewBox="0 0 24 24"><defs><mask id="master_svg_0"><g style="mix-blend-mode:passthrough"><path d="M2,2C2,2,22.6966,2,22.6966,2C22.6966,2,22.6966,22.6689,22.6966,22.6689C22.6966,22.6689,2,22.6689,2,22.6689C2,22.6689,2,2,2,2C2,2,2,2,2,2Z" fill-rule="evenodd" fill="#FFFFFF" fill-opacity="1"/></g></mask></defs><g style="mix-blend-mode:passthrough"><g><g style="mix-blend-mode:passthrough"><g><g style="mix-blend-mode:passthrough"><g mask="url(#master_svg_0)"><g style="mix-blend-mode:passthrough"><path d="M7.642600000010105,3.5C4.738600000010105,3.5,3.499600000010105,4.976,3.499600000010105,8.433C3.499600000010105,8.433,3.499600000010105,16.232,3.499600000010105,16.232C3.499600000010105,19.416,5.257600000010105,21.169,8.449600000010104,21.169C8.449600000010104,21.169,16.231600000010104,21.169,16.231600000010104,21.169C19.415600000010105,21.169,21.168600000010105,19.416,21.168600000010105,16.232C21.168600000010105,16.232,21.168600000010105,16.229,21.168600000010105,16.229C21.168600000010105,16.229,21.196600000010104,11.264,21.196600000010104,11.264C21.196600000010104,7.865,20.030600000010104,6.54,17.035600000010106,6.54C17.035600000010106,6.54,14.205600000010104,6.54,14.205600000010104,6.54C13.256600000010105,6.539,12.350600000010106,6.086,11.780600000010105,5.327999999999999C11.780600000010105,5.327999999999999,10.867600000010105,4.114,10.867600000010105,4.114C10.580600000010104,3.729,10.121600000010105,3.501,9.641600000010104,3.5C9.641600000010104,3.5,7.642600000010105,3.5,7.642600000010105,3.5C7.642600000010105,3.5,7.642600000010105,3.5,7.642600000010105,3.5ZM16.231600000010104,22.669C16.231600000010104,22.669,8.449600000010104,22.669,8.449600000010104,22.669C4.471600000010104,22.669,1.9996000000101048,20.202,1.9996000000101048,16.232C1.9996000000101048,16.232,1.9996000000101048,8.433,1.9996000000101048,8.433C1.9996000000101048,4.164,3.898600000010105,2,7.642600000010105,2C7.642600000010105,2,9.642600000010106,2,9.642600000010106,2C10.593600000010104,2.001,11.499600000010105,2.455,12.067600000010104,3.214C12.067600000010104,3.214,12.978600000010104,4.426,12.978600000010104,4.426C13.267600000010106,4.8100000000000005,13.726600000010105,5.039,14.206600000010106,5.04C14.206600000010106,5.04,17.035600000010106,5.04,17.035600000010106,5.04C20.897600000010105,5.04,22.696600000010104,7.019,22.696600000010104,11.268C22.696600000010104,11.268,22.668600000010105,16.235,22.668600000010105,16.235C22.667600000010104,20.203,20.201600000010107,22.669,16.231600000010104,22.669C16.231600000010104,22.669,16.231600000010104,22.669,16.231600000010104,22.669C16.231600000010104,22.669,16.231600000010104,22.669,16.231600000010104,22.669Z" fill-rule="evenodd" fill="#000000" fill-opacity="1"/></g></g></g><g style="mix-blend-mode:passthrough"><path d="M16.71580015182495,15.712800025939941C16.71580015182495,15.712800025939941,7.980800151824951,15.712800025939941,7.980800151824951,15.712800025939941C7.5668001518249515,15.712800025939941,7.230800151824951,15.376800025939941,7.230800151824951,14.962800025939941C7.230800151824951,14.548800025939942,7.5668001518249515,14.212800025939941,7.980800151824951,14.212800025939941C7.980800151824951,14.212800025939941,16.71580015182495,14.212800025939941,16.71580015182495,14.212800025939941C17.129800151824952,14.212800025939941,17.46580015182495,14.548800025939942,17.46580015182495,14.962800025939941C17.46580015182495,15.376800025939941,17.129800151824952,15.712800025939941,16.71580015182495,15.712800025939941Z" fill-rule="evenodd" fill="#000000" fill-opacity="1"/></g></g></g></g></g></svg>