<svg xmlns="http://www.w3.org/2000/svg" xmlns:xlink="http://www.w3.org/1999/xlink" fill="none" version="1.1" width="24" height="24" viewBox="0 0 24 24"><clipPath id="master_svg_0"><rect x="0" y="0" width="24" height="24" rx="0"/></clipPath><g clip-path="url(#master_svg_0)" style="mix-blend-mode:passthrough"><g><g style="mix-blend-mode:passthrough"><path d="M2.68934,4.18934C2.970644,3.908036,3.35217,3.75,3.75,3.75L8.68934,3.75C8.886320000000001,3.75,9.08138,3.7887982,9.26337,3.864181C9.44536,3.939563,9.610710000000001,4.050054,9.75,4.189341L12.3106,6.75L20.25,6.75C20.6478,6.75,21.0294,6.90804,21.3107,7.18934C21.592,7.47065,21.75,7.85218,21.75,8.25L21.75,18.8333C21.75,19.2091,21.6007,19.5694,21.3351,19.8351C21.0694,20.1007,20.7091,20.25,20.3333,20.25L3.69011,20.25C3.30851,20.2489,2.942866,20.0968,2.673035,19.827C2.403205,19.5571,2.25112015,19.191499999999998,2.25000321865,18.8099L2.25,18.8077L2.25,5.25C2.25,4.85217,2.408036,4.470644,2.68934,4.18934ZM3.75,6.75L10.18934,6.75L8.68934,5.25L3.75,5.25L3.75,6.75ZM3.75,8.25L3.75,18.75L20.25,18.75L20.25,8.25L3.75,8.25ZM12.75,11.25C12.75,10.83579,12.4142,10.5,12,10.5C11.58579,10.5,11.25,10.83579,11.25,11.25L11.25,12.75L9.75,12.75C9.33579,12.75,9,13.08579,9,13.5C9,13.9142,9.33579,14.25,9.75,14.25L11.25,14.25L11.25,15.75C11.25,16.1642,11.58579,16.5,12,16.5C12.4142,16.5,12.75,16.1642,12.75,15.75L12.75,14.25L14.25,14.25C14.6642,14.25,15,13.9142,15,13.5C15,13.08579,14.6642,12.75,14.25,12.75L12.75,12.75L12.75,11.25Z" fill-rule="evenodd" fill="#000000" fill-opacity="1"/></g></g></g></svg>