<svg xmlns="http://www.w3.org/2000/svg" xmlns:xlink="http://www.w3.org/1999/xlink" fill="none" version="1.1" width="24" height="24" viewBox="0 0 24 24"><defs><mask id="master_svg_0"><g style="mix-blend-mode:passthrough"><path d="M2,2.9998998641967773C2,2.9998998641967773,22.4725,2.9998998641967773,22.4725,2.9998998641967773C22.4725,2.9998998641967773,22.4725,22.50089986419678,22.4725,22.50089986419678C22.4725,22.50089986419678,2,22.50089986419678,2,22.50089986419678C2,22.50089986419678,2,2.9998998641967773,2,2.9998998641967773C2,2.9998998641967773,2,2.9998998641967773,2,2.9998998641967773Z" fill-rule="evenodd" fill="#A5A5A5" fill-opacity="1"/></g></mask></defs><g style="mix-blend-mode:passthrough"><g><g style="mix-blend-mode:passthrough"><g><g style="mix-blend-mode:passthrough"><g mask="url(#master_svg_0)"><g style="mix-blend-mode:passthrough"><path d="M3.823703343156297,12.123019864196777C5.225703343156297,16.484999864196777,10.764703343156297,20.011999864196778,12.236743343156297,20.88499986419678C13.713743343156297,20.002999864196777,19.292743343156296,16.43699986419678,20.649743343156295,12.127019864196777C21.540743343156297,9.341019864196777,20.713743343156295,5.8120198641967775,17.427743343156298,4.753019864196777C15.835743343156297,4.242019864196777,13.978743343156296,4.553019864196777,12.696743343156296,5.545019864196777C12.428743343156297,5.751019864196778,12.056743343156297,5.755019864196777,11.786703343156297,5.551019864196777C10.428703343156297,4.5300198641967775,8.654703343156296,4.231019864196777,7.037703343156297,4.753019864196777C3.756703343156297,5.811019864196777,2.932700343156297,9.340019864196776,3.823703343156297,12.123019864196777ZM12.237743343156296,22.50099986419678C12.113743343156298,22.50099986419678,11.990703343156296,22.470999864196777,11.878703343156296,22.409999864196777C11.565703343156297,22.238999864196778,4.192703343156296,18.174999864196778,2.395700343156297,12.581019864196778C2.3947003431562965,12.581019864196778,2.3947003431562965,12.580019864196778,2.3947003431562965,12.580019864196778C1.2667003431562969,9.058019864196776,2.5227003431562967,4.632019864196778,6.577703343156297,3.325017864196777C8.481703343156298,2.7090178641967775,10.556703343156297,2.9800179641967772,12.234743343156296,4.039019864196778C13.860743343156297,3.0110179641967774,16.020743343156298,2.7270178641967773,17.886743343156297,3.325017864196777C21.9457433431563,4.634019864196778,23.205743343156296,9.059019864196777,22.078743343156297,12.580019864196778C20.339743343156297,18.109999864196777,12.912743343156297,22.234999864196777,12.597743343156298,22.40799986419678C12.485743343156297,22.469999864196776,12.361743343156297,22.50099986419678,12.237743343156296,22.50099986419678Z" fill-rule="evenodd" fill="#A5A5A5" fill-opacity="1"/></g></g></g><g style="mix-blend-mode:passthrough"><path d="M18.153696131591797,10.624897735748291C17.766696131591797,10.624897735748291,17.438696131591797,10.32789773574829,17.406696131591797,9.935897735748291C17.3406961315918,9.11389773574829,16.790696131591798,8.419897735748291,16.007700131591797,8.166897735748291C15.612700131591797,8.038897735748291,15.396700131591796,7.615899735748291,15.523700131591797,7.222899735748291C15.652700131591796,6.828899735748291,16.071700131591797,6.614899935748291,16.467700131591798,6.738899935748291C17.830696131591797,7.179899735748291,18.7856961315918,8.386897735748292,18.902696131591796,9.813897735748291C18.935696131591797,10.226897735748292,18.628696131591795,10.58889773574829,18.2156961315918,10.621897735748291C18.194696131591797,10.62389773574829,18.174696131591798,10.624897735748291,18.153696131591797,10.624897735748291Z" fill-rule="evenodd" fill="#A5A5A5" fill-opacity="1"/></g></g></g></g></g></svg>