<svg xmlns="http://www.w3.org/2000/svg" xmlns:xlink="http://www.w3.org/1999/xlink" fill="none" version="1.1" width="24" height="24" viewBox="0 0 24 24"><defs><mask id="master_svg_0"><g style="mix-blend-mode:passthrough"><path d="M2,4.6244728565216064C2,4.6244728565216064,18.0862,4.6244728565216064,18.0862,4.6244728565216064C18.0862,4.6244728565216064,18.0862,18.72257285652161,18.0862,18.72257285652161C18.0862,18.72257285652161,2,18.72257285652161,2,18.72257285652161C2,18.72257285652161,2,4.6244728565216064,2,4.6244728565216064C2,4.6244728565216064,2,4.6244728565216064,2,4.6244728565216064Z" fill-rule="evenodd" fill="#FFFFFF" fill-opacity="1"/></g></mask><mask id="master_svg_1"><g style="mix-blend-mode:passthrough"><path d="M8.71746826171875,8.741194725036621C8.71746826171875,8.741194725036621,21.99996826171875,8.741194725036621,21.99996826171875,8.741194725036621C21.99996826171875,8.741194725036621,21.99996826171875,20.68939472503662,21.99996826171875,20.68939472503662C21.99996826171875,20.68939472503662,8.71746826171875,20.68939472503662,8.71746826171875,20.68939472503662C8.71746826171875,20.68939472503662,8.71746826171875,8.741194725036621,8.71746826171875,8.741194725036621C8.71746826171875,8.741194725036621,8.71746826171875,8.741194725036621,8.71746826171875,8.741194725036621Z" fill-rule="evenodd" fill="#FFFFFF" fill-opacity="1"/></g></mask><mask id="master_svg_2"><g style="mix-blend-mode:passthrough"><path d="M3.3635499477386475,4.000400066375732C3.3635499477386475,4.000400066375732,20.637049947738646,4.000400066375732,20.637049947738646,4.000400066375732C20.637049947738646,4.000400066375732,20.637049947738646,21.273400066375732,20.637049947738646,21.273400066375732C20.637049947738646,21.273400066375732,3.3635499477386475,21.273400066375732,3.3635499477386475,21.273400066375732C3.3635499477386475,21.273400066375732,3.3635499477386475,4.000400066375732,3.3635499477386475,4.000400066375732C3.3635499477386475,4.000400066375732,3.3635499477386475,4.000400066375732,3.3635499477386475,4.000400066375732Z" fill-rule="evenodd" fill="#FFFFFF" fill-opacity="1"/></g></mask></defs><g style="mix-blend-mode:passthrough"><g><g style="mix-blend-mode:passthrough"><g><g style="mix-blend-mode:passthrough"><path d="M9.760800170898438,15.617199989318848C9.568800170898438,15.617199989318848,9.376800170898438,15.544199989318848,9.230800170898437,15.397199989318848C8.492800170898438,14.660199989318848,8.085800170898438,13.680199989318847,8.085800170898438,12.638199989318847C8.085800170898438,10.478199989318847,9.841800170898438,8.721199989318848,11.999800170898437,8.721199989318848C13.037800170898437,8.721199989318848,14.045800170898438,9.140199989318848,14.764800170898438,9.871199989318848C15.054800170898439,10.167199989318847,15.051800170898439,10.641199989318848,14.755800170898437,10.931199989318849C14.460800170898438,11.223199989318847,13.986800170898437,11.218199989318848,13.695800170898437,10.924199989318847C13.256800170898437,10.477199989318848,12.638800170898438,10.221199989318848,11.999800170898437,10.221199989318848C10.668800170898438,10.221199989318848,9.585800170898438,11.305199989318847,9.585800170898438,12.638199989318847C9.585800170898438,13.279199989318847,9.836800170898437,13.883199989318847,10.290800170898438,14.337199989318847C10.583800170898439,14.630199989318847,10.583800170898439,15.104199989318847,10.291800170898437,15.397199989318848C10.144800170898439,15.544199989318848,9.952800170898438,15.617199989318848,9.760800170898438,15.617199989318848Z" fill-rule="evenodd" fill="#000000" fill-opacity="1"/></g><g style="mix-blend-mode:passthrough"><path d="M12.567400528320313,16.491195653533936C12.212400528320313,16.491195653533936,11.896400028320313,16.237195653533934,11.830400028320312,15.875195653533936C11.756400028320313,15.468195653533936,12.026400528320313,15.077195653533936,12.434400528320312,15.003195653533936C13.414401528320312,14.825195653533935,14.190401528320312,14.047195653533935,14.366401528320313,13.066199653533936C14.440401528320312,12.659199653533936,14.830401528320312,12.391200153533935,15.237401528320312,12.461200153533936C15.645401528320313,12.534200153533936,15.916401528320312,12.924200653533935,15.843401528320314,13.332200653533935C15.556401528320313,14.925195653533935,14.294401528320313,16.189195653533936,12.702400528320313,16.479195653533935C12.657399528320312,16.487195653533934,12.611399528320312,16.491195653533936,12.567400528320313,16.491195653533936Z" fill-rule="evenodd" fill="#000000" fill-opacity="1"/></g><g style="mix-blend-mode:passthrough"><g mask="url(#master_svg_0)"><g style="mix-blend-mode:passthrough"><path d="M6.6545,18.72257285652161C6.4925,18.72257285652161,6.3295,18.669572856521604,6.1915,18.562572856521605C4.500500000000001,17.234572856521606,3.0715,15.287572856521606,2.0615,12.933602856521606C1.9795,12.743602856521607,1.9795,12.529602856521606,2.0615,12.340602856521606C3.0825,9.976602856521605,4.5205,8.019602856521606,6.2205,6.682602856521607C9.686499999999999,3.9395998565216064,14.3005,3.9305998565216065,17.8015,6.702602856521606C18.1265,6.959602856521606,18.1815,7.431602856521606,17.924500000000002,7.7566028565216065C17.6665,8.079602856521607,17.1965,8.136602856521606,16.8705,7.878602856521606C13.9045,5.530599856521606,10.0835,5.538599856521606,7.1495,7.860602856521607C5.7135,8.990602856521607,4.4805,10.636602856521606,3.5705,12.638602856521606C4.4715,14.628572856521606,5.6935,16.264572856521607,7.1185,17.382572856521605C7.4445,17.638572856521606,7.5005,18.110572856521607,7.2445,18.435572856521606C7.0965,18.623572856521605,6.8765,18.72257285652161,6.6545,18.72257285652161Z" fill-rule="evenodd" fill="#000000" fill-opacity="1"/></g></g></g><g style="mix-blend-mode:passthrough"><g mask="url(#master_svg_1)"><g style="mix-blend-mode:passthrough"><path d="M12.000098261718751,20.68939472503662C11.06309826171875,20.68939472503662,10.13109826171875,20.53739472503662,9.23110026171875,20.23839472503662C8.83810026171875,20.10739472503662,8.62510026171875,19.682394725036623,8.75610026171875,19.289394725036622C8.88710026171875,18.89539472503662,9.31010026171875,18.68639472503662,9.70510026171875,18.81439472503662C10.45209826171875,19.063394725036623,11.22409826171875,19.18939472503662,12.000098261718751,19.18939472503662C15.42809826171875,19.18939472503662,18.561098261718747,16.74739472503662,20.430068261718752,12.63639472503662C19.97406826171875,11.637394725036621,19.44306826171875,10.73239472503662,18.84906826171875,9.942394725036621C18.60009826171875,9.611399725036621,18.66609826171875,9.140399725036621,18.997068261718752,8.89139972503662C19.32706826171875,8.64239962503662,19.79806826171875,8.710399525036621,20.04706826171875,9.040399725036622C20.77106826171875,10.00139472503662,21.40706826171875,11.112394725036621,21.938068261718747,12.338394725036622C22.02106826171875,12.528394725036621,22.02106826171875,12.74439472503662,21.938068261718747,12.93339472503662C19.84206826171875,17.79039472503662,16.12709826171875,20.68939472503662,12.000098261718751,20.68939472503662Z" fill-rule="evenodd" fill="#000000" fill-opacity="1"/></g></g></g><g style="mix-blend-mode:passthrough"><g mask="url(#master_svg_2)"><g style="mix-blend-mode:passthrough"><path d="M4.113299947738647,21.273450061130525C3.9212999477386474,21.273450061130525,3.7292999477386477,21.200350061130525,3.5832999477386474,21.053350061130523C3.2902999477386476,20.760350061130524,3.2902999477386476,20.286350061130523,3.5832999477386474,19.993350061130524C3.5832999477386474,19.993350061130524,19.357249947738648,4.219400061130524,19.357249947738648,4.219400061130524C19.650249947738647,3.926400061130524,20.124249947738647,3.926400061130524,20.417249947738647,4.219400061130524C20.710249947738646,4.512400061130524,20.710249947738646,4.987400061130524,20.417249947738647,5.280400061130524C20.417249947738647,5.280400061130524,4.643299947738647,21.053350061130523,4.643299947738647,21.053350061130523C4.4972999477386475,21.200350061130525,4.305299947738647,21.273450061130525,4.113299947738647,21.273450061130525Z" fill-rule="evenodd" fill="#000000" fill-opacity="1"/></g></g></g></g></g></g></g></svg>