<svg xmlns="http://www.w3.org/2000/svg" xmlns:xlink="http://www.w3.org/1999/xlink" fill="none" version="1.1" width="24" height="24" viewBox="0 0 24 24"><defs><mask id="master_svg_0"><g style="mix-blend-mode:passthrough"><path d="M2,1.0002000331878662C2,1.0002000331878662,22.4998,1.0002000331878662,22.4998,1.0002000331878662C22.4998,1.0002000331878662,22.4998,22.505200033187865,22.4998,22.505200033187865C22.4998,22.505200033187865,2,22.505200033187865,2,22.505200033187865C2,22.505200033187865,2,1.0002000331878662,2,1.0002000331878662C2,1.0002000331878662,2,1.0002000331878662,2,1.0002000331878662Z" fill-rule="evenodd" fill="#A5A5A5" fill-opacity="1"/></g></mask></defs><g style="mix-blend-mode:passthrough"><g><g style="mix-blend-mode:passthrough"><g mask="url(#master_svg_0)"><g style="mix-blend-mode:passthrough"><path d="M13.716800000005053,15.291349868569476C14.920800000005052,15.291349868569476,15.900800000005052,16.264349868569475,15.900800000005052,17.460349868569477C15.900800000005052,17.460349868569477,15.900800000005052,20.536249868569477,15.900800000005052,20.536249868569477C15.900800000005052,20.793249868569475,16.10680000000505,20.999249868569475,16.370800000005055,21.005249868569475C16.370800000005055,21.005249868569475,18.276800000005053,21.005249868569475,18.276800000005053,21.005249868569475C19.778800000005052,21.005249868569475,20.999800000005052,19.799349868569475,20.999800000005052,18.317349868569476C20.999800000005052,18.317349868569476,20.999800000005052,9.593299868569476,20.999800000005052,9.593299868569476C20.99280000000505,9.083299868569476,20.749800000005052,8.603299868569476,20.33280000000505,8.284299868569477C20.33280000000505,8.284299868569477,13.739800000005053,3.0262998685694766,13.739800000005053,3.0262998685694766C12.854800000005053,2.3252998685694766,11.616800000005053,2.3252998685694766,10.728800000005052,3.0282998685694764C10.728800000005052,3.0282998685694764,4.1808000000050525,8.282299868569478,4.1808000000050525,8.282299868569478C3.7478000000050526,8.611299868569477,3.5048000000050523,9.091299868569477,3.4998000000050524,9.610299868569477C3.4998000000050524,9.610299868569477,3.4998000000050524,18.317349868569476,3.4998000000050524,18.317349868569476C3.4998000000050524,19.799349868569475,4.7208000000050525,21.005249868569475,6.222800000005052,21.005249868569475C6.222800000005052,21.005249868569475,8.146800000005053,21.005249868569475,8.146800000005053,21.005249868569475C8.417800000005052,21.005249868569475,8.637800000005052,20.790249868569475,8.637800000005052,20.526249868569476C8.637800000005052,20.468249868569476,8.644800000005052,20.410249868569476,8.656800000005052,20.355249868569476C8.656800000005052,20.355249868569476,8.656800000005052,17.460349868569477,8.656800000005052,17.460349868569477C8.656800000005052,16.271349868569477,9.630800000005053,15.299349868569477,10.825800000005053,15.291349868569476C10.825800000005053,15.291349868569476,13.716800000005053,15.291349868569476,13.716800000005053,15.291349868569476C13.716800000005053,15.291349868569476,13.716800000005053,15.291349868569476,13.716800000005053,15.291349868569476ZM18.276800000005053,22.505349868569475C18.276800000005053,22.505349868569475,16.352800000005054,22.505349868569475,16.352800000005054,22.505349868569475C15.250800000005052,22.479349868569475,14.400800000005052,21.614349868569477,14.400800000005052,20.536349868569477C14.400800000005052,20.536349868569477,14.400800000005052,17.460349868569477,14.400800000005052,17.460349868569477C14.400800000005052,17.091349868569477,14.093800000005052,16.791349868569476,13.716800000005053,16.791349868569476C13.716800000005053,16.791349868569476,10.830800000005052,16.791349868569476,10.830800000005052,16.791349868569476C10.461800000005052,16.79334986856948,10.156800000005052,17.094349868569477,10.156800000005052,17.460349868569477C10.156800000005052,17.460349868569477,10.156800000005052,20.526349868569476,10.156800000005052,20.526349868569476C10.156800000005052,20.601349868569475,10.146800000005053,20.673349868569478,10.125800000005052,20.741349868569475C10.017800000005053,21.731349868569477,9.171800000005053,22.505349868569475,8.146800000005053,22.505349868569475C8.146800000005053,22.505349868569475,6.222800000005052,22.505349868569475,6.222800000005052,22.505349868569475C3.8938000000050526,22.505349868569475,1.9998000000050524,20.626249868569477,1.9998000000050524,18.317249868569476C1.9998000000050524,18.317249868569476,1.9998000000050524,9.603299868569476,1.9998000000050524,9.603299868569476C2.009800000005052,8.609299868569476,2.4678000000050524,7.699299868569477,3.2588000000050523,7.1002998685694765C3.2588000000050523,7.1002998685694765,9.793800000005053,1.8552998685694764,9.793800000005053,1.8552998685694764C11.232800000005053,0.7152998685694765,13.237800000005052,0.7152998685694765,14.673800000005052,1.8532998685694766C14.673800000005052,1.8532998685694766,21.255800000005053,7.103299868569477,21.255800000005053,7.103299868569477C22.028800000005052,7.692299868569476,22.48680000000505,8.600299868569476,22.499800000005052,9.582299868569477C22.499800000005052,9.582299868569477,22.499800000005052,18.317249868569476,22.499800000005052,18.317249868569476C22.499800000005052,20.626249868569477,20.605800000005054,22.505349868569475,18.276800000005053,22.505349868569475C18.276800000005053,22.505349868569475,18.276800000005053,22.505349868569475,18.276800000005053,22.505349868569475C18.276800000005053,22.505349868569475,18.276800000005053,22.505349868569475,18.276800000005053,22.505349868569475Z" fill-rule="evenodd" fill="#A5A5A5" fill-opacity="1"/></g></g></g></g></g></svg>