<svg xmlns="http://www.w3.org/2000/svg" xmlns:xlink="http://www.w3.org/1999/xlink" fill="none" version="1.1" width="24" height="24" viewBox="0 0 24 24"><defs><mask id="master_svg_0"><g style="mix-blend-mode:passthrough"><path d="M2.0004000663757324,2.000200033187866C2.0004000663757324,2.000200033187866,21.96000006637573,2.000200033187866,21.96000006637573,2.000200033187866C21.96000006637573,2.000200033187866,21.96000006637573,21.950000033187866,21.96000006637573,21.950000033187866C21.96000006637573,21.950000033187866,2.0004000663757324,21.950000033187866,2.0004000663757324,21.950000033187866C2.0004000663757324,21.950000033187866,2.0004000663757324,2.000200033187866,2.0004000663757324,2.000200033187866C2.0004000663757324,2.000200033187866,2.0004000663757324,2.000200033187866,2.0004000663757324,2.000200033187866Z" fill-rule="evenodd" fill="#FFFFFF" fill-opacity="1"/></g></mask></defs><g style="mix-blend-mode:passthrough"><g><g style="mix-blend-mode:passthrough"><g><g style="mix-blend-mode:passthrough"><g mask="url(#master_svg_0)"><g style="mix-blend-mode:passthrough"><path d="M7.650400066375733,3.5000000335276127C5.129400066375732,3.5000000335276127,3.5004000663757324,5.227000033527613,3.5004000663757324,7.899000033527613C3.5004000663757324,7.899000033527613,3.5004000663757324,16.051000033527615,3.5004000663757324,16.051000033527615C3.5004000663757324,18.724000033527613,5.129400066375732,20.450000033527612,7.650400066375733,20.450000033527612C7.650400066375733,20.450000033527612,16.300400066375733,20.450000033527612,16.300400066375733,20.450000033527612C18.827400066375734,20.450000033527612,20.460400066375733,18.724000033527613,20.460400066375733,16.051000033527615C20.460400066375733,16.051000033527615,20.460400066375733,7.899000033527613,20.460400066375733,7.899000033527613C20.460400066375733,5.227000033527613,18.827400066375734,3.5000000335276127,16.300400066375733,3.5000000335276127C16.300400066375733,3.5000000335276127,7.650400066375733,3.5000000335276127,7.650400066375733,3.5000000335276127C7.650400066375733,3.5000000335276127,7.650400066375733,3.5000000335276127,7.650400066375733,3.5000000335276127ZM16.300400066375733,21.950000033527612C16.300400066375733,21.950000033527612,7.650400066375733,21.950000033527612,7.650400066375733,21.950000033527612C4.270400066375732,21.950000033527612,2.0004000663757324,19.579000033527613,2.0004000663757324,16.051000033527615C2.0004000663757324,16.051000033527615,2.0004000663757324,7.899000033527613,2.0004000663757324,7.899000033527613C2.0004000663757324,4.371000033527613,4.270400066375732,2.0000000335276127,7.650400066375733,2.0000000335276127C7.650400066375733,2.0000000335276127,16.300400066375733,2.0000000335276127,16.300400066375733,2.0000000335276127C19.68540006637573,2.0000000335276127,21.960400066375733,4.371000033527613,21.960400066375733,7.899000033527613C21.960400066375733,7.899000033527613,21.960400066375733,16.051000033527615,21.960400066375733,16.051000033527615C21.960400066375733,19.579000033527613,19.68540006637573,21.950000033527612,16.300400066375733,21.950000033527612C16.300400066375733,21.950000033527612,16.300400066375733,21.950000033527612,16.300400066375733,21.950000033527612C16.300400066375733,21.950000033527612,16.300400066375733,21.950000033527612,16.300400066375733,21.950000033527612Z" fill-rule="evenodd" fill="#000000" fill-opacity="1"/></g></g></g><g style="mix-blend-mode:passthrough"><path d="M5.281400004821777,17.18040005821228C5.095400004821777,17.18040005821228,4.910400004821778,17.11240005821228,4.765400004821777,16.974400058212282C4.464399904821778,16.69040005821228,4.452399904821777,16.21440005821228,4.737400004821778,15.915400058212281C4.737400004821778,15.915400058212281,6.265404004821777,14.30240005821228,6.265404004821777,14.30240005821228C7.074404004821778,13.44340005821228,8.439404004821778,13.40140005821228,9.302404004821778,14.21140005821228C9.302404004821778,14.21140005821228,10.260404004821776,15.18340005821228,10.260404004821776,15.18340005821228C10.527404004821777,15.45340005821228,10.961404004821777,15.45840005821228,11.229404004821777,15.194400058212281C11.330404004821776,15.075400058212281,13.508404004821777,12.43040005821228,13.508404004821777,12.43040005821228C13.922404004821777,11.928400058212281,14.506404004821777,11.61840005821228,15.155394004821778,11.55440002821228C15.805394004821776,11.49740005821228,16.43639400482178,11.68640005821228,16.93939400482178,12.09940005821228C16.982394004821778,12.13440005821228,17.02139400482178,12.16840005821228,19.217394004821777,14.42340005821228C19.50639400482178,14.71940005821228,19.501394004821776,15.194400058212281,19.20439400482178,15.48340005821228C18.90839400482178,15.77440005821228,18.432394004821777,15.765400058212279,18.14339400482178,15.46940005821228C18.14339400482178,15.46940005821228,16.09439400482178,13.36640005821228,15.948394004821777,13.22440005821228C15.793394004821778,13.09740005821228,15.544394004821777,13.02340005821228,15.299394004821778,13.04740005821228C15.050394004821777,13.072400058212281,14.826394004821777,13.191400058212281,14.667394004821777,13.38440005821228C12.343404004821778,16.20340005821228,12.315404004821778,16.230400058212282,12.277404004821777,16.26740005821228C11.419404004821779,17.10940005821228,10.034404004821777,17.09540005821228,9.191404004821777,16.23540005821228C9.191404004821777,16.23540005821228,8.261404004821777,15.29140005821228,8.245404004821777,15.27240005821228C8.014404004821778,15.05840005821228,7.602404004821777,15.072400058212281,7.355404004821777,15.33340005821228C7.355404004821777,15.33340005821228,5.8254040048217774,16.94640005821228,5.8254040048217774,16.94640005821228C5.677404004821778,17.102400058212282,5.479400004821778,17.18040005821228,5.281400004821777,17.18040005821228C5.281400004821777,17.18040005821228,5.281400004821777,17.18040005821228,5.281400004821777,17.18040005821228C5.281400004821777,17.18040005821228,5.281400004821777,17.18040005821228,5.281400004821777,17.18040005821228Z" fill-rule="evenodd" fill="#000000" fill-opacity="1"/></g><g style="mix-blend-mode:passthrough"><path d="M8.55759976196289,8.128900289535522C8.00459976196289,8.128900289535522,7.554599761962891,8.578900289535522,7.554599761962891,9.132900289535522C7.554599761962891,9.686900289535522,8.00459976196289,10.137900289535523,8.55859976196289,10.137900289535523C9.11259976196289,10.137900289535523,9.563599761962891,9.686900289535522,9.563599761962891,9.132900289535522C9.563599761962891,8.579900289535523,9.11259976196289,8.129900289535522,8.55759976196289,8.128900289535522ZM8.55859976196289,11.637900289535523C7.177599761962891,11.637900289535523,6.054599761962891,10.513900289535522,6.054599761962891,9.132900289535522C6.054599761962891,7.751900289535523,7.177599761962891,6.6289002895355225,8.55859976196289,6.6289002895355225C9.94059976196289,6.629900289535523,11.063599761962891,7.7539002895355225,11.063599761962891,9.132900289535522C11.063599761962891,10.513900289535522,9.93959976196289,11.637900289535523,8.55859976196289,11.637900289535523Z" fill-rule="evenodd" fill="#000000" fill-opacity="1"/></g></g></g></g></g></svg>