<svg xmlns="http://www.w3.org/2000/svg" xmlns:xlink="http://www.w3.org/1999/xlink" fill="none" version="1.1" width="24" height="24" viewBox="0 0 24 24"><clipPath id="master_svg_0"><rect x="0" y="0" width="24" height="24" rx="0"/></clipPath><g clip-path="url(#master_svg_0)" style="mix-blend-mode:passthrough"><g><g style="mix-blend-mode:passthrough"><path d="M12,2.25C6.61522,2.25,2.25,6.61522,2.25,12C2.25,17.3848,6.61522,21.75,12,21.75C17.3848,21.75,21.75,17.3848,21.75,12C21.75,6.61522,17.3848,2.25,12,2.25ZM3.75,12C3.75,7.44365,7.44365,3.75,12,3.75C16.5563,3.75,20.25,7.44365,20.25,12C20.25,16.5563,16.5563,20.25,12,20.25C7.44365,20.25,3.75,16.5563,3.75,12ZM11.8125,9C12.4338,9,12.9375,8.49632,12.9375,7.875C12.9375,7.25368,12.4338,6.75,11.8125,6.75C11.19118,6.75,10.6875,7.25368,10.6875,7.875C10.6875,8.49632,11.19118,9,11.8125,9ZM10.5,11.25C10.5,10.83579,10.83579,10.5,11.25,10.5L12,10.5C12.4142,10.5,12.75,10.83579,12.75,11.25L12.75,15.75C13.1642,15.75,13.5,16.0858,13.5,16.5C13.5,16.9142,13.1642,17.25,12.75,17.25L12,17.25C11.58579,17.25,11.25,16.9142,11.25,16.5L11.25,12C10.83579,12,10.5,11.66421,10.5,11.25Z" fill-rule="evenodd" fill="#000000" fill-opacity="1"/></g></g></g></svg>