<svg xmlns="http://www.w3.org/2000/svg" xmlns:xlink="http://www.w3.org/1999/xlink" fill="none" version="1.1" width="24" height="24" viewBox="0 0 24 24"><g style="mix-blend-mode:passthrough"><g><g style="mix-blend-mode:passthrough"><g><g style="mix-blend-mode:passthrough"><path d="M16.922899909973147,10.20000317337036C16.508899909973145,10.20000317337036,16.172899909973147,9.86400317337036,16.172899909973147,9.450003173370362C16.172899909973147,9.450003173370362,16.172899909973147,7.303003173370361,16.172899909973147,7.303003173370361C16.172899909973147,5.207003173370362,14.467899909973145,3.5020031733703614,12.371899909973145,3.5020031733703614C12.371899909973145,3.5020031733703614,12.355899909973145,3.5020031733703614,12.355899909973145,3.5020031733703614C11.342899909973145,3.5020031733703614,10.393899909973145,3.8920031733703615,9.676899909973145,4.603003173370361C8.954899909973145,5.317003173370361,8.555899909973144,6.270003173370362,8.551899909973145,7.286003173370362C8.551899909973145,7.286003173370362,8.551899909973145,9.450003173370362,8.551899909973145,9.450003173370362C8.551899909973145,9.86400317337036,8.215899909973144,10.20000317337036,7.8018999099731445,10.20000317337036C7.387899909973145,10.20000317337036,7.0518999099731445,9.86400317337036,7.0518999099731445,9.450003173370362C7.0518999099731445,9.450003173370362,7.0518999099731445,7.303003173370361,7.0518999099731445,7.303003173370361C7.057899909973145,5.863003173370361,7.614899909973144,4.534003173370362,8.619899909973144,3.5380031733703614C9.625899909973144,2.541000173370361,10.953899909973146,1.9639999733703613,12.374899909973145,2.0019999433703615C15.294899909973145,2.0019999433703615,17.672899909973147,4.380003173370362,17.672899909973147,7.303003173370361C17.672899909973147,7.303003173370361,17.672899909973147,9.450003173370362,17.672899909973147,9.450003173370362C17.672899909973147,9.86400317337036,17.336899909973145,10.20000317337036,16.922899909973147,10.20000317337036Z" fill-rule="evenodd" fill="#000000" fill-opacity="1"/></g><g style="mix-blend-mode:passthrough"><path d="M8.542,10.12879991531372C6.864,10.12879991531372,5.5,11.492799915313721,5.5,13.17079991531372C5.5,13.17079991531372,5.5,17.45979991531372,5.5,17.45979991531372C5.5,19.13779991531372,6.864,20.50179991531372,8.542,20.50179991531372C8.542,20.50179991531372,16.183,20.50179991531372,16.183,20.50179991531372C17.86,20.50179991531372,19.225,19.13779991531372,19.225,17.45979991531372C19.225,17.45979991531372,19.225,13.17079991531372,19.225,13.17079991531372C19.225,11.492799915313721,17.86,10.12879991531372,16.183,10.12879991531372C16.183,10.12879991531372,8.542,10.12879991531372,8.542,10.12879991531372C8.542,10.12879991531372,8.542,10.12879991531372,8.542,10.12879991531372ZM16.183,22.00179991531372C16.183,22.00179991531372,8.542,22.00179991531372,8.542,22.00179991531372C6.037,22.00179991531372,4,19.96479991531372,4,17.45979991531372C4,17.45979991531372,4,13.17079991531372,4,13.17079991531372C4,10.66579991531372,6.037,8.62879991531372,8.542,8.62879991531372C8.542,8.62879991531372,16.183,8.62879991531372,16.183,8.62879991531372C18.688000000000002,8.62879991531372,20.725,10.66579991531372,20.725,13.17079991531372C20.725,13.17079991531372,20.725,17.45979991531372,20.725,17.45979991531372C20.725,19.96479991531372,18.688000000000002,22.00179991531372,16.183,22.00179991531372C16.183,22.00179991531372,16.183,22.00179991531372,16.183,22.00179991531372C16.183,22.00179991531372,16.183,22.00179991531372,16.183,22.00179991531372Z" fill-rule="evenodd" fill="#000000" fill-opacity="1"/></g><g style="mix-blend-mode:passthrough"><path d="M12.362299919128418,17.175599857330322C11.948299919128418,17.175599857330322,11.612299919128418,16.83959985733032,11.612299919128418,16.425599857330322C11.612299919128418,16.425599857330322,11.612299919128418,14.204599857330322,11.612299919128418,14.204599857330322C11.612299919128418,13.790599857330323,11.948299919128418,13.454599857330322,12.362299919128418,13.454599857330322C12.776299919128418,13.454599857330322,13.112299919128418,13.790599857330323,13.112299919128418,14.204599857330322C13.112299919128418,14.204599857330322,13.112299919128418,16.425599857330322,13.112299919128418,16.425599857330322C13.112299919128418,16.83959985733032,12.776299919128418,17.175599857330322,12.362299919128418,17.175599857330322Z" fill-rule="evenodd" fill="#000000" fill-opacity="1"/></g></g></g></g></g></svg>