<svg xmlns="http://www.w3.org/2000/svg" xmlns:xlink="http://www.w3.org/1999/xlink" fill="none" version="1.1" width="24" height="24" viewBox="0 0 24 24"><clipPath id="master_svg_0"><rect x="0" y="0" width="24" height="24" rx="0"/></clipPath><g clip-path="url(#master_svg_0)" style="mix-blend-mode:passthrough"><g><g style="mix-blend-mode:passthrough"><path d="M3.75,3.75C2.921573,3.75,2.25,4.421573,2.25,5.25L2.25,18.75C2.25,19.578400000000002,2.921573,20.25,3.75,20.25L20.25,20.25C21.0784,20.25,21.75,19.578400000000002,21.75,18.75L21.75,5.25C21.75,4.421573,21.0784,3.75,20.25,3.75L3.75,3.75ZM3.75,5.25L20.25,5.25L20.25,18.75L3.75,18.75L3.75,5.25ZM7.125,8.25C6.71079,8.25,6.375,8.58579,6.375,9C6.375,9.41421,6.71079,9.75,7.125,9.75L16.875,9.75C17.2892,9.75,17.625,9.41421,17.625,9C17.625,8.58579,17.2892,8.25,16.875,8.25L7.125,8.25ZM7.125,11.25C6.71079,11.25,6.375,11.58579,6.375,12C6.375,12.41421,6.71079,12.75,7.125,12.75L16.875,12.75C17.2892,12.75,17.625,12.41421,17.625,12C17.625,11.58579,17.2892,11.25,16.875,11.25L7.125,11.25ZM6.375,15C6.375,14.5858,6.71079,14.25,7.125,14.25L16.875,14.25C17.2892,14.25,17.625,14.5858,17.625,15C17.625,15.4142,17.2892,15.75,16.875,15.75L7.125,15.75C6.71079,15.75,6.375,15.4142,6.375,15Z" fill-rule="evenodd" fill="#000000" fill-opacity="1"/></g></g></g></svg>