<svg xmlns="http://www.w3.org/2000/svg" xmlns:xlink="http://www.w3.org/1999/xlink" fill="none" version="1.1" width="24" height="24" viewBox="0 0 24 24"><defs><mask id="master_svg_0"><g style="mix-blend-mode:passthrough"><path d="M1,2C1,2,22.4999,2,22.4999,2C22.4999,2,22.4999,21.5,22.4999,21.5C22.4999,21.5,1,21.5,1,21.5C1,21.5,1,2,1,2C1,2,1,2,1,2Z" fill-rule="evenodd" fill="#FFFFFF" fill-opacity="1"/></g></mask></defs><g style="mix-blend-mode:passthrough"><g><g style="mix-blend-mode:passthrough"><g><g style="mix-blend-mode:passthrough"><path d="M11.776900001831056,13.464796344909669C11.107900001831055,13.464796344909669,10.440900001831054,13.243796344909669,9.882900001831054,12.801796344909668C9.882900001831054,12.801796344909668,5.397900001831054,9.185796344909669,5.397900001831054,9.185796344909669C5.074900001831055,8.925796344909667,5.024900001831055,8.452800344909669,5.2839000018310545,8.130800344909668C5.544900001831055,7.809800044909668,6.016900001831055,7.758800044909668,6.338900001831055,8.017800344909668C6.338900001831055,8.017800344909668,10.819900001831055,11.629796344909668,10.819900001831055,11.629796344909668C11.382900001831054,12.07579634490967,12.175900001831055,12.07579634490967,12.742900001831055,11.625796344909668C12.742900001831055,11.625796344909668,17.178930001831056,8.019800344909669,17.178930001831056,8.019800344909669C17.500930001831055,7.756800044909668,17.972930001831052,7.806800044909668,18.234930001831053,8.128800344909667C18.495930001831056,8.449800344909669,18.446930001831056,8.921796344909668,18.125930001831055,9.183796344909668C18.125930001831055,9.183796344909668,13.681900001831055,12.795796344909668,13.681900001831055,12.795796344909668C13.119900001831054,13.241796344909668,12.447900001831055,13.464796344909669,11.776900001831056,13.464796344909669Z" fill-rule="evenodd" fill="#000000" fill-opacity="1"/></g><g style="mix-blend-mode:passthrough"><g mask="url(#master_svg_0)"><g style="mix-blend-mode:passthrough"><path d="M6.839,20C6.839,20,16.659,20,16.659,20C16.661,19.998,16.669,20,16.675,20C17.816,20,18.828,19.592,19.604,18.817C20.505,17.92,21,16.631,21,15.188C21,15.188,21,8.32,21,8.32C21,5.527,19.174,3.5,16.659,3.5C16.659,3.5,6.841,3.5,6.841,3.5C4.3260000000000005,3.5,2.5,5.527,2.5,8.32C2.5,8.32,2.5,15.188,2.5,15.188C2.5,16.631,2.996,17.92,3.896,18.817C4.672000000000001,19.592,5.685,20,6.825,20C6.825,20,6.839,20,6.839,20C6.839,20,6.839,20,6.839,20ZM6.822,21.5C5.279,21.5,3.901,20.94,2.8369999999999997,19.88C1.6520000000000001,18.698,1,17.032,1,15.188C1,15.188,1,8.32,1,8.32C1,4.7170000000000005,3.511,2,6.841,2C6.841,2,16.659,2,16.659,2C19.989,2,22.5,4.7170000000000005,22.5,8.32C22.5,8.32,22.5,15.188,22.5,15.188C22.5,17.032,21.848,18.698,20.663,19.88C19.6,20.939,18.221,21.5,16.675,21.5C16.675,21.5,16.659,21.5,16.659,21.5C16.659,21.5,6.841,21.5,6.841,21.5C6.841,21.5,6.822,21.5,6.822,21.5C6.822,21.5,6.822,21.5,6.822,21.5Z" fill-rule="evenodd" fill="#000000" fill-opacity="1"/></g></g></g></g></g></g></g></svg>