<svg xmlns="http://www.w3.org/2000/svg" xmlns:xlink="http://www.w3.org/1999/xlink" fill="none" version="1.1" width="24" height="24" viewBox="0 0 24 24"><clipPath id="master_svg_0"><rect x="0" y="0" width="24" height="24" rx="0"/></clipPath><g clip-path="url(#master_svg_0)" style="mix-blend-mode:passthrough"><g><g style="mix-blend-mode:passthrough"><path d="M8.8180276953125,2.8180199999999997C9.6619376953125,1.974105,10.8065276953125,1.5,11.9999976953125,1.5C13.1934676953125,1.5,14.3380776953125,1.974106,15.1819376953125,2.8180199999999997C16.0259376953125,3.66193,16.5000376953125,4.80653,16.5000376953125,6L16.5000376953125,12C16.5000376953125,13.1935,16.0259376953125,14.3381,15.1819376953125,15.182C14.3380776953125,16.0259,13.1934776953125,16.5,11.9999976953125,16.5C11.4090476953125,16.5,10.8238876953125,16.3836,10.2779276953125,16.1575C9.7319576953125,15.9313,9.235887695312499,15.5998,8.8180276953125,15.182C8.400157695312501,14.7641,8.0686976953125,14.268,7.842547695312501,13.7221C7.6163976953125,13.1761,7.5000076953125,12.591,7.5000076953125,12L7.5000076953125,5.99999C7.5000076953125,4.80652,7.9741076953125,3.66193,8.8180276953125,2.8180199999999997ZM9.8786876953125,3.87868C10.4412876953125,3.31607,11.2043476953125,3,11.9999976953125,3C12.7956476953125,3,13.5587176953125,3.31607,14.1213276953125,3.87868C14.6839376953125,4.44129,15.0000376953125,5.20435,15.0000376953125,6L15.0000376953125,12C15.0000376953125,12.7956,14.6839376953125,13.5587,14.1213276953125,14.1213C13.5587176953125,14.6839,12.7956476953125,15,11.9999976953125,15C11.6060376953125,15,11.2159276953125,14.9224,10.8519476953125,14.7716C10.4879776953125,14.6209,10.157257695312499,14.3999,9.8786876953125,14.1213C9.6001076953125,13.8427,9.3791276953125,13.512,9.2283676953125,13.1481C9.0776076953125,12.7841,9.000007695312501,12.394,9.000007695312501,12L9.000007695312501,5.99999C9.000007695312501,5.20434,9.3160776953125,4.44128,9.8786876953125,3.87868ZM5.2078046953125,12.0047C5.6194476953125,11.9586,5.9904876953125,12.255,6.0365576953125,12.6666C6.2006776953125,14.1334,6.8996176953125,15.4882,7.9997576953125,16.472099999999998C9.0998976953125,17.456,10.5240676953125,18,12.000007695312501,18C13.4759376953125,18,14.9001376953125,17.4561,16.0002376953125,16.472099999999998C17.1004376953125,15.4882,17.799337695312502,14.1334,17.9634376953125,12.6666C18.009537695312503,12.255,18.380537695312498,11.9586,18.7922376953125,12.0047C19.2038376953125,12.0507,19.5002376953125,12.4218,19.4541376953125,12.8334C19.249037695312502,14.6669,18.3753376953125,16.3604,17.0002376953125,17.5902C15.8125376953125,18.6524,14.3226976953125,19.3044,12.7500076953125,19.4624L12.7500076953125,21.75C12.7500076953125,22.1642,12.4142176953125,22.5,12.000007695312501,22.5C11.5857976953125,22.5,11.250007695312501,22.1642,11.250007695312501,21.75L11.250007695312501,19.4624C9.6773176953125,19.3044,8.187507695312501,18.6524,6.9998076953125,17.5902C5.6246676953125,16.3604,4.7510076953125004,14.6668,4.5458560653125,12.8334C4.4997952953125,12.4218,4.7961596953125,12.0507,5.2078046953125,12.0047Z" fill-rule="evenodd" fill="#000000" fill-opacity="1"/></g></g></g></svg>