<svg xmlns="http://www.w3.org/2000/svg" xmlns:xlink="http://www.w3.org/1999/xlink" fill="none" version="1.1" width="24" height="24" viewBox="0 0 24 24"><clipPath id="master_svg_0"><rect x="0" y="0" width="24" height="24" rx="0"/></clipPath><g clip-path="url(#master_svg_0)" style="mix-blend-mode:passthrough"><g><g style="mix-blend-mode:passthrough"><path d="M20.25,2.9999535942382813C20.25,2.769001594238281,20.1436,2.5509295942382813,19.9616,2.4087995942382814C19.7795,2.266668994238281,19.5422,2.216332594238281,19.3181,2.272346494238281L7.3181,5.2723465942382814C6.98422,5.355816594238281,6.75,5.655806594238282,6.75,5.999956594238281L6.75,10.483016594238281C6.74976,10.493896594238281,6.74976,10.504816594238282,6.75,10.515766594238281L6.75,16.318246594238282C6.21371,15.959246594238282,5.5688,15.749946594238281,4.875,15.749946594238281C3.01104,15.749946594238281,1.5,17.26094659423828,1.5,19.12494659423828C1.5,20.988946594238282,3.01104,22.49994659423828,4.875,22.49994659423828C6.73896,22.49994659423828,8.25,20.988946594238282,8.25,19.12494659423828L8.25,11.085526594238281L18.75,8.460536594238281L18.75,13.318246594238282C18.2137,12.959246594238282,17.5688,12.749946594238281,16.875,12.749946594238281C15.011,12.749946594238281,13.5,14.26094659423828,13.5,16.12494659423828C13.5,17.988946594238282,15.011,19.49994659423828,16.875,19.49994659423828C18.739,19.49994659423828,20.25,17.988946594238282,20.25,16.12494659423828L20.25,7.516936594238281C20.2502,7.506036594238282,20.2502,7.495086594238281,20.25,7.484116594238281L20.25,2.9999535942382813ZM18.75,6.914366594238281L18.75,3.960536594238281L8.25,6.585536594238281L8.25,9.539366594238281L18.75,6.914366594238281ZM18.75,16.12494659423828C18.75,15.08944659423828,17.9105,14.249946594238281,16.875,14.249946594238281C15.8395,14.249946594238281,15,15.08944659423828,15,16.12494659423828C15,17.16044659423828,15.8395,17.99994659423828,16.875,17.99994659423828C17.9105,17.99994659423828,18.75,17.16044659423828,18.75,16.12494659423828ZM6.75,19.12494659423828C6.75,18.089446594238282,5.91053,17.24994659423828,4.875,17.24994659423828C3.83947,17.24994659423828,3,18.089446594238282,3,19.12494659423828C3,20.16044659423828,3.83947,20.99994659423828,4.875,20.99994659423828C5.91053,20.99994659423828,6.75,20.16044659423828,6.75,19.12494659423828Z" fill-rule="evenodd" fill="#000000" fill-opacity="1"/></g></g></g></svg>