<svg xmlns="http://www.w3.org/2000/svg" xmlns:xlink="http://www.w3.org/1999/xlink" fill="none" version="1.1" width="24" height="24" viewBox="0 0 24 24"><clipPath id="master_svg_0"><rect x="0" y="0" width="24" height="24" rx="0"/></clipPath><g clip-path="url(#master_svg_0)" style="mix-blend-mode:passthrough"><g><g style="mix-blend-mode:passthrough"><path d="M12.21551,3.0315869089355467C11.98843,2.963462708935547,11.74251,3.0067169989355467,11.552299999999999,3.1482374089355467C11.36209,3.289756408935547,11.25,3.512877408935547,11.25,3.749956408935547L11.25,13.895750408935546C10.45387,13.183250408935546,9.402529999999999,12.749960408935546,8.25,12.749960408935546C5.7647200000000005,12.749960408935546,3.75,14.764650408935546,3.75,17.249950408935547C3.75,19.735250408935546,5.7647200000000005,21.749950408935547,8.25,21.749950408935547C10.73528,21.749950408935547,12.75,19.735250408935546,12.75,17.249950408935547L12.75,4.757980408935547L19.2845,6.718330408935547C19.6812,6.8373504089355475,20.0993,6.612210408935547,20.2184,6.215470408935547C20.3374,5.8187204089355475,20.1123,5.400610408935547,19.7155,5.281590408935546L12.21551,3.0315869089355467ZM11.25,17.249950408935547C11.25,15.593150408935546,9.90685,14.249950408935547,8.25,14.249950408935547C6.59315,14.249950408935547,5.25,15.593150408935546,5.25,17.249950408935547C5.25,18.906850408935547,6.59315,20.249950408935547,8.25,20.249950408935547C9.90685,20.249950408935547,11.25,18.906850408935547,11.25,17.249950408935547Z" fill-rule="evenodd" fill="#000000" fill-opacity="1"/></g></g></g></svg>