<svg xmlns="http://www.w3.org/2000/svg" xmlns:xlink="http://www.w3.org/1999/xlink" fill="none" version="1.1" width="24" height="24" viewBox="0 0 24 24"><clipPath id="master_svg_0"><rect x="0" y="0" width="24" height="24" rx="0"/></clipPath><g clip-path="url(#master_svg_0)" style="mix-blend-mode:passthrough"><g><g style="mix-blend-mode:passthrough"><path d="M12.21551,3.0315869089355467C11.98843,2.963462708935547,11.74251,3.0067169989355467,11.552299999999999,3.1482374089355467C11.3621,3.289756408935547,11.25,3.512877408935547,11.25,3.749956408935547L11.25,8.233110408935547C11.24974,8.244560408935547,11.24974,8.255990408935546,11.25,8.267390408935547L11.25,13.895750408935546C10.45387,13.183250408935546,9.402529999999999,12.749960408935546,8.25,12.749960408935546C5.7647200000000005,12.749960408935546,3.75,14.764650408935546,3.75,17.249950408935547C3.75,19.735250408935546,5.7647200000000005,21.749950408935547,8.25,21.749950408935547C10.73528,21.749950408935547,12.75,19.735250408935546,12.75,17.249950408935547L12.75,9.257980408935547L19.2845,11.218330408935547C19.5116,11.286450408935547,19.7575,11.243200408935547,19.9477,11.101680408935547C20.1379,10.960160408935547,20.25,10.737040408935547,20.25,10.499960408935546L20.25,5.9999604089355465C20.25,5.668750408935547,20.0327,5.376760408935547,19.7155,5.281590408935546L12.21551,3.0315869089355467ZM11.25,17.249950408935547C11.25,15.593150408935546,9.90685,14.249950408935547,8.25,14.249950408935547C6.59315,14.249950408935547,5.25,15.593150408935546,5.25,17.249950408935547C5.25,18.906850408935547,6.59315,20.249950408935547,8.25,20.249950408935547C9.90685,20.249950408935547,11.25,18.906850408935547,11.25,17.249950408935547ZM18.75,9.491930408935547L12.75,7.691930408935547L12.75,4.757980408935547L18.75,6.557980408935547L18.75,9.491930408935547Z" fill-rule="evenodd" fill="#000000" fill-opacity="1"/></g></g></g></svg>