<svg xmlns="http://www.w3.org/2000/svg" xmlns:xlink="http://www.w3.org/1999/xlink" fill="none" version="1.1" width="24" height="24" viewBox="0 0 24 24"><defs><mask id="master_svg_0"><g style="mix-blend-mode:passthrough"><path d="M3.000086545944214,1C3.000086545944214,1,21.496986545944214,1,21.496986545944214,1C21.496986545944214,1,21.496986545944214,18.348,21.496986545944214,18.348C21.496986545944214,18.348,3.000086545944214,18.348,3.000086545944214,18.348C3.000086545944214,18.348,3.000086545944214,1,3.000086545944214,1C3.000086545944214,1,3.000086545944214,1,3.000086545944214,1Z" fill-rule="evenodd" fill="#FFFFFF" fill-opacity="1"/></g></mask></defs><g style="mix-blend-mode:passthrough"><g><g style="mix-blend-mode:passthrough"><g><g style="mix-blend-mode:passthrough"><g mask="url(#master_svg_0)"><g style="mix-blend-mode:passthrough"><path d="M12.247096545944213,2.5C8.752096545944214,2.5,6.316096545944214,5.238,6.316096545944214,7.695C6.316096545944214,9.774,5.739096545944214,10.735,5.2290965459442145,11.583C4.820096545944214,12.264,4.497096545944213,12.802,4.497096545944213,13.971C4.664096545944214,15.857,5.909096545944214,16.848,12.247096545944213,16.848C18.550086545944215,16.848,19.834086545944213,15.813,20.000086545944214,13.906C19.997086545944214,12.802,19.674086545944213,12.264,19.265086545944214,11.583C18.755086545944216,10.735,18.178086545944215,9.774,18.178086545944215,7.695C18.178086545944215,5.238,15.742086545944215,2.5,12.247096545944213,2.5ZM12.247096545944213,18.348C7.571096545944214,18.348,3.3450995459442137,18.018,3.000099900644214,14.035C2.997099895944214,12.387,3.500099545944214,11.549,3.944099545944214,10.811C4.393096545944214,10.063,4.816096545944214,9.358,4.816096545944214,7.695C4.816096545944214,4.462,7.802096545944214,1,12.247096545944213,1C16.692086545944214,1,19.678086545944215,4.462,19.678086545944215,7.695C19.678086545944215,9.358,20.101086545944213,10.063,20.550086545944215,10.811C20.994086545944214,11.549,21.497086545944214,12.387,21.497086545944214,13.971C21.148086545944214,18.018,16.923086545944216,18.348,12.247096545944213,18.348Z" fill-rule="evenodd" fill="#000000" fill-opacity="1"/></g></g></g><g style="mix-blend-mode:passthrough"><path d="M12.198304074935914,22.499998689575197C12.198304074935914,22.499998689575197,12.196304074935913,22.499998689575197,12.196304074935913,22.499998689575197C11.075304074935913,22.498998689575195,10.014300074935914,22.004998689575196,9.209300074935912,21.107998689575194C8.932299674935914,20.801000689575197,8.957299774935914,20.326000689575196,9.265300074935913,20.050000689575196C9.573300074935913,19.772000789575195,10.047304074935912,19.797000789575197,10.324304074935913,20.106000689575197C10.842304074935914,20.683000689575195,11.507304074935913,20.999998689575197,12.197304074935913,20.999998689575197C12.197304074935913,20.999998689575197,12.198304074935914,20.999998689575197,12.198304074935914,20.999998689575197C12.891304074935913,20.999998689575197,13.559304074935913,20.683000689575195,14.078304074935913,20.105000689575196C14.356304074935913,19.798000789575195,14.830304074935913,19.773000789575196,15.137304074935912,20.050000689575196C15.445304074935912,20.327000689575197,15.470304074935914,20.802000689575195,15.193304074935913,21.108998689575195C14.385304074935913,22.005998689575193,13.322304074935914,22.499998689575197,12.198304074935914,22.499998689575197Z" fill-rule="evenodd" fill="#000000" fill-opacity="1"/></g></g></g></g></g></svg>