<svg xmlns="http://www.w3.org/2000/svg" xmlns:xlink="http://www.w3.org/1999/xlink" fill="none" version="1.1" width="24" height="24" viewBox="0 0 24 24"><clipPath id="master_svg_0"><rect x="0" y="0" width="24" height="24" rx="0"/></clipPath><g clip-path="url(#master_svg_0)" style="mix-blend-mode:passthrough"><g><g style="mix-blend-mode:passthrough"><path d="M12,2.25C6.61522,2.25,2.25,6.61522,2.25,12C2.25,17.3848,6.61522,21.75,12,21.75C17.3848,21.75,21.75,17.3848,21.75,12C21.75,6.61522,17.3848,2.25,12,2.25ZM3.75,12C3.75,7.44365,7.44365,3.75,12,3.75C16.5563,3.75,20.25,7.44365,20.25,12C20.25,16.5563,16.5563,20.25,12,20.25C7.44365,20.25,3.75,16.5563,3.75,12ZM9.75,8.25C10.16421,8.25,10.5,8.58579,10.5,9L10.5,15C10.5,15.4142,10.16421,15.75,9.75,15.75C9.33579,15.75,9,15.4142,9,15L9,9C9,8.58579,9.33579,8.25,9.75,8.25ZM14.25,8.25C14.6642,8.25,15,8.58579,15,9L15,15C15,15.4142,14.6642,15.75,14.25,15.75C13.8358,15.75,13.5,15.4142,13.5,15L13.5,9C13.5,8.58579,13.8358,8.25,14.25,8.25Z" fill-rule="evenodd" fill="#000000" fill-opacity="1"/></g></g></g></svg>