<svg xmlns="http://www.w3.org/2000/svg" xmlns:xlink="http://www.w3.org/1999/xlink" fill="none" version="1.1" width="24" height="24" viewBox="0 0 24 24"><clipPath id="master_svg_0"><rect x="0" y="0" width="24" height="24" rx="0"/></clipPath><g clip-path="url(#master_svg_0)" style="mix-blend-mode:passthrough"><g><g style="mix-blend-mode:passthrough"><path d="M5.25,3C4.421573,3,3.75,3.671573,3.75,4.5L3.75,19.5C3.75,20.3284,4.421573,21,5.25,21L8.625,21C9.45343,21,10.125,20.3284,10.125,19.5L10.125,4.5C10.125,3.671573,9.45343,3,8.625,3L5.25,3ZM15.375,3C14.5466,3,13.875,3.671573,13.875,4.5L13.875,19.5C13.875,20.3284,14.5466,21,15.375,21L18.75,21C19.578400000000002,21,20.25,20.3284,20.25,19.5L20.25,4.5C20.25,3.671573,19.578400000000002,3,18.75,3L15.375,3ZM5.25,4.5L8.625,4.5L8.625,19.5L5.25,19.5L5.25,4.5ZM15.375,4.5L18.75,4.5L18.75,19.5L15.375,19.5L15.375,4.5Z" fill-rule="evenodd" fill="#000000" fill-opacity="1"/></g></g></g></svg>