<svg xmlns="http://www.w3.org/2000/svg" xmlns:xlink="http://www.w3.org/1999/xlink" fill="none" version="1.1" width="24" height="24" viewBox="0 0 24 24"><clipPath id="master_svg_0"><rect x="0" y="0" width="24" height="24" rx="0"/></clipPath><g clip-path="url(#master_svg_0)" style="mix-blend-mode:passthrough"><g><g style="mix-blend-mode:passthrough"><path d="M3.75,5.25C3.335786,5.25,3,5.585786,3,6C3,6.41421,3.335786,6.75,3.75,6.75L20.25,6.75C20.6642,6.75,21,6.41421,21,6C21,5.585786,20.6642,5.25,20.25,5.25L3.75,5.25ZM3,12C3,11.58579,3.335786,11.25,3.75,11.25L20.25,11.25C20.6642,11.25,21,11.58579,21,12C21,12.41421,20.6642,12.75,20.25,12.75L3.75,12.75C3.335786,12.75,3,12.41421,3,12ZM19.5,15C19.9142,15,20.25,15.3358,20.25,15.75L20.25,17.25L21.75,17.25C22.1642,17.25,22.5,17.5858,22.5,18C22.5,18.4142,22.1642,18.75,21.75,18.75L20.25,18.75L20.25,20.25C20.25,20.6642,19.9142,21,19.5,21C19.0858,21,18.75,20.6642,18.75,20.25L18.75,18.75L17.25,18.75C16.8358,18.75,16.5,18.4142,16.5,18C16.5,17.5858,16.8358,17.25,17.25,17.25L18.75,17.25L18.75,15.75C18.75,15.3358,19.0858,15,19.5,15ZM3,18C3,17.5858,3.335786,17.25,3.75,17.25L13.5,17.25C13.9142,17.25,14.25,17.5858,14.25,18C14.25,18.4142,13.9142,18.75,13.5,18.75L3.75,18.75C3.335786,18.75,3,18.4142,3,18Z" fill-rule="evenodd" fill="#000000" fill-opacity="1"/></g></g></g></svg>