<svg xmlns="http://www.w3.org/2000/svg" xmlns:xlink="http://www.w3.org/1999/xlink" fill="none" version="1.1" width="24" height="24" viewBox="0 0 24 24"><clipPath id="master_svg_0"><rect x="0" y="0" width="24" height="24" rx="0"/></clipPath><g clip-path="url(#master_svg_0)" style="mix-blend-mode:passthrough"><g><g style="mix-blend-mode:passthrough"><path d="M6.766274,2.4427462270507814C6.998698,2.312397427050781,7.2616499999999995,2.246318907050781,7.52808,2.2513082290507813C7.79452,2.2562974970507814,8.05481,2.3321735270507813,8.28219,2.4711342270507815C8.28219,2.4711342270507815,21.78,10.720065227050782,21.78,10.720065227050782C21.999299999999998,10.854065227050782,22.1804,11.042135227050782,22.3061,11.266255227050781C22.4318,11.490375227050782,22.4978,11.743025227050781,22.4978,11.999975227050781C22.4978,12.256945227050782,22.4318,12.509545227050781,22.3061,12.73374522705078C22.1804,12.95784522705078,21.999299999999998,13.145945227050781,21.78,13.279845227050782C21.78,13.279845227050782,8.28219,21.52884522705078,8.28219,21.52884522705078C8.05481,21.66774522705078,7.79451,21.74364522705078,7.52808,21.74864522705078C7.2616499999999995,21.753645227050782,6.9987,21.68754522705078,6.766274,21.55724522705078C6.533848,21.42684522705078,6.340346,21.236945227050782,6.205669,21.00704522705078C6.0709916,20.77704522705078,6.000000119209,20.51544522705078,6,20.248945227050783C6,20.248945227050783,6,3.7510452270507812,6,3.7510452270507812C6.000000119209,3.484565227050781,6.070991,3.2228932270507813,6.205669,2.9929512270507814C6.340347,2.763009227050781,6.533849,2.573095227050781,6.766274,2.4427462270507814C6.766274,2.4427462270507814,6.766274,2.4427462270507814,6.766274,2.4427462270507814ZM20.997799999999998,11.999975227050781C20.997799999999998,11.999975227050781,7.5,3.7510452270507812,7.5,3.7510452270507812C7.5,3.7510452270507812,7.5,20.248945227050783,7.5,20.248945227050783C7.5,20.248945227050783,20.997799999999998,11.999975227050781,20.997799999999998,11.999975227050781C20.997799999999998,11.999975227050781,20.997799999999998,11.999975227050781,20.997799999999998,11.999975227050781Z" fill-rule="evenodd" fill="#000000" fill-opacity="1"/></g></g></g></svg>