<svg xmlns="http://www.w3.org/2000/svg" xmlns:xlink="http://www.w3.org/1999/xlink" fill="none" version="1.1" width="24" height="24" viewBox="0 0 24 24"><clipPath id="master_svg_0"><rect x="0" y="0" width="24" height="24" rx="0"/></clipPath><g clip-path="url(#master_svg_0)" style="mix-blend-mode:passthrough"><g><g style="mix-blend-mode:passthrough"><path d="M3,6C3,5.585786,3.335786,5.25,3.75,5.25L20.25,5.25C20.6642,5.25,21,5.585786,21,6C21,6.41421,20.6642,6.75,20.25,6.75L3.75,6.75C3.335786,6.75,3,6.41421,3,6ZM16.8975,10.614C16.6663,10.4695,16.3749,10.46185,16.136400000000002,10.59402C15.898,10.726189999999999,15.75,10.977360000000001,15.75,11.25L15.75,18.75C15.75,19.0226,15.898,19.2738,16.136400000000002,19.406C16.3749,19.5382,16.6663,19.5305,16.8975,19.386L22.8975,15.636C23.1168,15.4989,23.25,15.2586,23.25,15C23.25,14.74141,23.1168,14.50105,22.8975,14.364L16.8975,10.614ZM3.75,11.25C3.335786,11.25,3,11.58579,3,12C3,12.41421,3.335786,12.75,3.75,12.75L12.75,12.75C13.1642,12.75,13.5,12.41421,13.5,12C13.5,11.58579,13.1642,11.25,12.75,11.25L3.75,11.25ZM17.25,17.3968L17.25,12.60319L21.0849,15L17.25,17.3968ZM3.75,17.25C3.335786,17.25,3,17.5858,3,18C3,18.4142,3.335786,18.75,3.75,18.75L12.75,18.75C13.1642,18.75,13.5,18.4142,13.5,18C13.5,17.5858,13.1642,17.25,12.75,17.25L3.75,17.25Z" fill-rule="evenodd" fill="#000000" fill-opacity="1"/></g></g></g></svg>