<svg xmlns="http://www.w3.org/2000/svg" xmlns:xlink="http://www.w3.org/1999/xlink" fill="none" version="1.1" width="24" height="24" viewBox="0 0 24 24"><clipPath id="master_svg_0"><rect x="0" y="0" width="24" height="24" rx="0"/></clipPath><g clip-path="url(#master_svg_0)" style="mix-blend-mode:passthrough"><g><g style="mix-blend-mode:passthrough"><path d="M3.75,5.999420166015625C3.75,5.585206166015625,4.085786,5.249420166015625,4.5,5.249420166015625L17.2499,5.249420166015625C17.664099999999998,5.249420166015625,17.9999,5.585206166015625,17.9999,5.999420166015625C17.9999,6.413630166015625,17.664099999999998,6.749420166015625,17.2499,6.749420166015625L4.5,6.749420166015625C4.085786,6.749420166015625,3.75,6.413630166015625,3.75,5.999420166015625ZM17.25,9.749410166015625C17.6642,9.749410166015625,18,10.085200166015625,18,10.499410166015625L18,17.688920166015627L20.4696,15.219660166015625C20.7625,14.926790166015625,21.2374,14.926820166015625,21.5303,15.219730166015625C21.8231,15.512620166015624,21.8231,15.987520166015624,21.5302,16.280420166015624L17.7803,20.029820166015625C17.4874,20.322720166015625,17.0125,20.322720166015625,16.7197,20.029820166015625L12.96967,16.279820166015625C12.67678,15.986920166015626,12.67678,15.512020166015626,12.96967,15.219130166015624C13.26256,14.926240166015624,13.73744,14.926240166015624,14.0303,15.219130166015624L16.5,17.688820166015624L16.5,10.499410166015625C16.5,10.085200166015625,16.8358,9.749410166015625,17.25,9.749410166015625ZM4.5,11.249420166015625C4.085786,11.249420166015625,3.75,11.585210166015624,3.75,11.999420166015625C3.75,12.413630166015626,4.085786,12.749420166015625,4.5,12.749420166015625L11.24991,12.749420166015625C11.66412,12.749420166015625,11.99991,12.413630166015626,11.99991,11.999420166015625C11.99991,11.585210166015624,11.66412,11.249420166015625,11.24991,11.249420166015625L4.5,11.249420166015625ZM3.75,17.999420166015625C3.75,17.585220166015624,4.085786,17.249420166015625,4.5,17.249420166015625L9.75,17.249420166015625C10.16421,17.249420166015625,10.5,17.585220166015624,10.5,17.999420166015625C10.5,18.413620166015626,10.16421,18.749420166015625,9.75,18.749420166015625L4.5,18.749420166015625C4.085786,18.749420166015625,3.75,18.413620166015626,3.75,17.999420166015625Z" fill-rule="evenodd" fill="#000000" fill-opacity="1"/></g></g></g></svg>