<svg xmlns="http://www.w3.org/2000/svg" xmlns:xlink="http://www.w3.org/1999/xlink" fill="none" version="1.1" width="24" height="24" viewBox="0 0 24 24"><clipPath id="master_svg_0"><rect x="0" y="0" width="24" height="24" rx="0"/></clipPath><g clip-path="url(#master_svg_0)" style="mix-blend-mode:passthrough"><g><g style="mix-blend-mode:passthrough"><path d="M3.75,5.25C3.335786,5.25,3,5.585786,3,6C3,6.41421,3.335786,6.75,3.75,6.75L20.25,6.75C20.6642,6.75,21,6.41421,21,6C21,5.585786,20.6642,5.25,20.25,5.25L3.75,5.25ZM18.302300000000002,9.89828C18.4925,9.75676,18.7384,9.71351,18.9655,9.78163L22.7155,10.90663C23.1123,11.025649999999999,23.3374,11.44377,23.2184,11.84051C23.0993,12.23726,22.6812,12.46239,22.2845,12.34337L19.5,11.50802L19.5,18C19.5,19.6569,18.1569,21,16.5,21C14.8431,21,13.5,19.6569,13.5,18C13.5,16.3431,14.8431,15,16.5,15C17.0464,15,17.5587,15.14608,18,15.4013L18,10.5C18,10.262920000000001,18.112099999999998,10.0398,18.302300000000002,9.89828ZM18,18C18,17.171599999999998,17.328400000000002,16.5,16.5,16.5C15.6716,16.5,15,17.171599999999998,15,18C15,18.828400000000002,15.6716,19.5,16.5,19.5C17.328400000000002,19.5,18,18.828400000000002,18,18ZM3,12C3,11.58579,3.335786,11.25,3.75,11.25L15,11.25C15.4142,11.25,15.75,11.58579,15.75,12C15.75,12.41421,15.4142,12.75,15,12.75L3.75,12.75C3.335786,12.75,3,12.41421,3,12ZM3,18C3,17.5858,3.335786,17.25,3.75,17.25L10.5,17.25C10.91421,17.25,11.25,17.5858,11.25,18C11.25,18.4142,10.91421,18.75,10.5,18.75L3.75,18.75C3.335786,18.75,3,18.4142,3,18Z" fill-rule="evenodd" fill="#000000" fill-opacity="1"/></g></g></g></svg>