<svg xmlns="http://www.w3.org/2000/svg" xmlns:xlink="http://www.w3.org/1999/xlink" fill="none" version="1.1" width="24" height="24" viewBox="0 0 24 24"><g style="mix-blend-mode:passthrough"><g><g style="mix-blend-mode:passthrough"><g><g style="mix-blend-mode:passthrough"><path d="M11.75,16.154300071716307C11.336,16.154300071716307,11,15.818300071716308,11,15.404300071716309C11,15.404300071716309,11,8.077300071716309,11,8.077300071716309C11,7.663300071716309,11.336,7.327300071716309,11.75,7.327300071716309C12.164,7.327300071716309,12.5,7.663300071716309,12.5,8.077300071716309C12.5,8.077300071716309,12.5,15.404300071716309,12.5,15.404300071716309C12.5,15.818300071716308,12.164,16.154300071716307,11.75,16.154300071716307Z" fill-rule="evenodd" fill="#000000" fill-opacity="1"/></g><g style="mix-blend-mode:passthrough"><path d="M15.416499908447266,12.49020004272461C15.416499908447266,12.49020004272461,8.083499908447266,12.49020004272461,8.083499908447266,12.49020004272461C7.668499908447266,12.49020004272461,7.333499908447266,12.154200042724609,7.333499908447266,11.74020004272461C7.333499908447266,11.32620004272461,7.668499908447266,10.99020004272461,8.083499908447266,10.99020004272461C8.083499908447266,10.99020004272461,15.416499908447266,10.99020004272461,15.416499908447266,10.99020004272461C15.830499908447266,10.99020004272461,16.166499908447264,11.32620004272461,16.166499908447264,11.74020004272461C16.166499908447264,12.154200042724609,15.830499908447266,12.49020004272461,15.416499908447266,12.49020004272461Z" fill-rule="evenodd" fill="#000000" fill-opacity="1"/></g><g style="mix-blend-mode:passthrough"><path d="M7.064,2.5C4.292,2.5,2.5,4.397,2.5,7.335C2.5,7.335,2.5,16.165,2.5,16.165C2.5,19.103,4.292,21,7.064,21C7.064,21,16.436,21,16.436,21C19.209,21,21,19.103,21,16.165C21,16.165,21,7.335,21,7.335C21,4.397,19.209,2.5,16.436,2.5C16.436,2.5,7.064,2.5,7.064,2.5C7.064,2.5,7.064,2.5,7.064,2.5ZM16.436,22.5C16.436,22.5,7.064,22.5,7.064,22.5C3.437,22.5,1,19.954,1,16.165C1,16.165,1,7.335,1,7.335C1,3.546,3.437,1,7.064,1C7.064,1,16.436,1,16.436,1C20.063,1,22.5,3.546,22.5,7.335C22.5,7.335,22.5,16.165,22.5,16.165C22.5,19.954,20.063,22.5,16.436,22.5C16.436,22.5,16.436,22.5,16.436,22.5C16.436,22.5,16.436,22.5,16.436,22.5Z" fill-rule="evenodd" fill="#000000" fill-opacity="1"/></g></g></g></g></g></svg>