<svg xmlns="http://www.w3.org/2000/svg" xmlns:xlink="http://www.w3.org/1999/xlink" fill="none" version="1.1" width="24" height="24" viewBox="0 0 24 24"><clipPath id="master_svg_0"><rect x="0" y="0" width="24" height="24" rx="0"/></clipPath><g style="mix-blend-mode:passthrough"><g><g clip-path="url(#master_svg_0)" style="mix-blend-mode:passthrough"><g><g style="mix-blend-mode:passthrough"></g><g style="mix-blend-mode:passthrough"><path d="M12.99984359741211,5.000002861022949C12.99984359741211,4.447717861022949,12.552128597412109,4.000002861022949,11.99984359741211,4.000002861022949C11.44755859741211,4.000002861022949,10.99984359741211,4.447717861022949,10.99984359741211,5.000002861022949C10.99984359741211,5.000002861022949,12.99984359741211,5.000002861022949,12.99984359741211,5.000002861022949C12.99984359741211,5.000002861022949,12.99984359741211,5.000002861022949,12.99984359741211,5.000002861022949ZM10.99984359741211,19.00000286102295C10.99984359741211,19.55230286102295,11.44755859741211,20.00000286102295,11.99984359741211,20.00000286102295C12.552128597412109,20.00000286102295,12.99984359741211,19.55230286102295,12.99984359741211,19.00000286102295C12.99984359741211,19.00000286102295,10.99984359741211,19.00000286102295,10.99984359741211,19.00000286102295C10.99984359741211,19.00000286102295,10.99984359741211,19.00000286102295,10.99984359741211,19.00000286102295ZM10.99984359741211,5.000002861022949C10.99984359741211,5.000002861022949,10.99984359741211,19.00000286102295,10.99984359741211,19.00000286102295C10.99984359741211,19.00000286102295,12.99984359741211,19.00000286102295,12.99984359741211,19.00000286102295C12.99984359741211,19.00000286102295,12.99984359741211,5.000002861022949,12.99984359741211,5.000002861022949C12.99984359741211,5.000002861022949,10.99984359741211,5.000002861022949,10.99984359741211,5.000002861022949C10.99984359741211,5.000002861022949,10.99984359741211,5.000002861022949,10.99984359741211,5.000002861022949Z" fill="#121212" fill-opacity="1"/></g><g style="mix-blend-mode:passthrough"><path d="M4.9998369216918945,11.000025749206543C4.447551921691894,11.000025749206543,3.9998369216918945,11.447740749206543,3.9998369216918945,12.000025749206543C3.9998369216918945,12.552310749206542,4.447551921691894,13.000025749206543,4.9998369216918945,13.000025749206543C4.9998369216918945,13.000025749206543,4.9998369216918945,11.000025749206543,4.9998369216918945,11.000025749206543C4.9998369216918945,11.000025749206543,4.9998369216918945,11.000025749206543,4.9998369216918945,11.000025749206543ZM18.999836921691895,13.000025749206543C19.552136921691897,13.000025749206543,19.999836921691895,12.552310749206542,19.999836921691895,12.000025749206543C19.999836921691895,11.447740749206543,19.552136921691897,11.000025749206543,18.999836921691895,11.000025749206543C18.999836921691895,11.000025749206543,18.999836921691895,13.000025749206543,18.999836921691895,13.000025749206543C18.999836921691895,13.000025749206543,18.999836921691895,13.000025749206543,18.999836921691895,13.000025749206543ZM4.9998369216918945,13.000025749206543C4.9998369216918945,13.000025749206543,18.999836921691895,13.000025749206543,18.999836921691895,13.000025749206543C18.999836921691895,13.000025749206543,18.999836921691895,11.000025749206543,18.999836921691895,11.000025749206543C18.999836921691895,11.000025749206543,4.9998369216918945,11.000025749206543,4.9998369216918945,11.000025749206543C4.9998369216918945,11.000025749206543,4.9998369216918945,13.000025749206543,4.9998369216918945,13.000025749206543C4.9998369216918945,13.000025749206543,4.9998369216918945,13.000025749206543,4.9998369216918945,13.000025749206543Z" fill="#121212" fill-opacity="1"/></g></g></g></g></g></svg>