<svg xmlns="http://www.w3.org/2000/svg" xmlns:xlink="http://www.w3.org/1999/xlink" fill="none" version="1.1" width="24" height="24" viewBox="0 0 24 24"><defs><mask id="master_svg_0"><g style="mix-blend-mode:passthrough"><path d="M4,14.496100425720215C4,14.496100425720215,19.8399,14.496100425720215,19.8399,14.496100425720215C19.8399,14.496100425720215,19.8399,21.870100425720214,19.8399,21.870100425720214C19.8399,21.870100425720214,4,21.870100425720214,4,21.870100425720214C4,21.870100425720214,4,14.496100425720215,4,14.496100425720215C4,14.496100425720215,4,14.496100425720215,4,14.496100425720215Z" fill-rule="evenodd" fill="#A5A5A5" fill-opacity="1"/></g></mask><mask id="master_svg_1"><g style="mix-blend-mode:passthrough"><path d="M6.60986852645874,2.0001001358032227C6.60986852645874,2.0001001358032227,17.229868526458738,2.0001001358032227,17.229868526458738,2.0001001358032227C17.229868526458738,2.0001001358032227,17.229868526458738,12.618700135803223,17.229868526458738,12.618700135803223C17.229868526458738,12.618700135803223,6.60986852645874,12.618700135803223,6.60986852645874,12.618700135803223C6.60986852645874,12.618700135803223,6.60986852645874,2.0001001358032227,6.60986852645874,2.0001001358032227C6.60986852645874,2.0001001358032227,6.60986852645874,2.0001001358032227,6.60986852645874,2.0001001358032227Z" fill-rule="evenodd" fill="#A5A5A5" fill-opacity="1"/></g></mask></defs><g style="mix-blend-mode:passthrough"><g><g style="mix-blend-mode:passthrough"><g><g style="mix-blend-mode:passthrough"><g mask="url(#master_svg_0)"><g style="mix-blend-mode:passthrough"><path d="M11.921,15.996100425720215C7.66,15.996100425720215,5.5,16.728100425720214,5.5,18.173100425720214C5.5,19.631100425720213,7.66,20.370100425720214,11.921,20.370100425720214C16.180999999999997,20.370100425720214,18.34,19.638100425720214,18.34,18.193100425720214C18.34,16.735100425720216,16.180999999999997,15.996100425720215,11.921,15.996100425720215ZM11.921,21.870100425720214C9.962,21.870100425720214,4,21.870100425720214,4,18.173100425720214C4,14.877100425720215,8.521,14.496100425720215,11.921,14.496100425720215C13.88,14.496100425720215,19.84,14.496100425720215,19.84,18.193100425720214C19.84,21.489100425720217,15.32,21.870100425720214,11.921,21.870100425720214Z" fill-rule="evenodd" fill="#A5A5A5" fill-opacity="1"/></g></g></g><g style="mix-blend-mode:passthrough"><g mask="url(#master_svg_1)"><g style="mix-blend-mode:passthrough"><path d="M11.920898526458739,3.427700143933296C9.77989852645874,3.427700143933296,8.03789852645874,5.168700143933297,8.03789852645874,7.309700143933296C8.03089852645874,9.443700143933295,9.759898526458741,11.183700143933295,11.89189852645874,11.191700143933296C11.89189852645874,11.191700143933296,11.920898526458739,11.905700143933297,11.920898526458739,11.905700143933297C11.920898526458739,11.905700143933297,11.920898526458739,11.191700143933296,11.920898526458739,11.191700143933296C14.06089852645874,11.191700143933296,15.801898526458741,9.449700143933295,15.801898526458741,7.309700143933296C15.801898526458741,5.168700143933297,14.06089852645874,3.427700143933296,11.920898526458739,3.427700143933296ZM11.920898526458739,12.618700143933296C11.920898526458739,12.618700143933296,11.888898526458739,12.618700143933296,11.888898526458739,12.618700143933296C8.96689852645874,12.609700143933296,6.59990009645874,10.226700143933297,6.60990009585874,7.306700143933297C6.60990009585874,4.381700143933296,8.99189852645874,1.9997001439332962,11.920898526458739,1.9997001439332962C14.84889852645874,1.9997001439332962,17.229868526458738,4.381700143933296,17.229868526458738,7.309700143933296C17.229868526458738,10.237700143933296,14.84889852645874,12.618700143933296,11.920898526458739,12.618700143933296Z" fill-rule="evenodd" fill="#A5A5A5" fill-opacity="1"/></g></g></g></g></g></g></g></svg>