<svg xmlns="http://www.w3.org/2000/svg" xmlns:xlink="http://www.w3.org/1999/xlink" fill="none" version="1.1" width="24" height="24" viewBox="0 0 24 24"><clipPath id="master_svg_0"><rect x="0" y="0" width="24" height="24" rx="0"/></clipPath><g clip-path="url(#master_svg_0)" style="mix-blend-mode:passthrough"><g><g style="mix-blend-mode:passthrough"><path d="M2.2499882578759767,12.00002335144043C2.2520041003759768,10.210433351440429,2.9638097603759768,8.49471335144043,4.229243760375977,7.229283351440429C5.494673760375976,5.963843351440429,7.210393760375976,5.252043351440429,8.999983760375976,5.250023351440429C8.999983760375976,5.250023351440429,17.999963760375977,5.250023351440429,17.999963760375977,5.250023351440429C17.999963760375977,5.250023351440429,17.999963760375977,3.7500253514404296,17.999963760375977,3.7500253514404296C17.999963760375977,3.6016843514404298,18.043963760375977,3.45667535144043,18.126363760375977,3.3333353514404296C18.208763760375977,3.20999535144043,18.325963760375977,3.1138653514404298,18.462963760375978,3.0570998514404297C18.600063760375978,3.0003348174404296,18.750863760375978,2.9854851514404297,18.896363760375976,3.01442885144043C19.041863760375975,3.0433724514404297,19.175463760375976,3.11480935144043,19.280363760375977,3.21970535144043C19.280363760375977,3.21970535144043,21.530363760375977,5.46970335144043,21.530363760375977,5.46970335144043C21.670963760375976,5.61035335144043,21.749963760375977,5.80111335144043,21.749963760375977,6.000023351440429C21.749963760375977,6.19893335144043,21.670963760375976,6.38969335144043,21.530363760375977,6.53034335144043C21.530363760375977,6.53034335144043,19.280363760375977,8.780343351440429,19.280363760375977,8.780343351440429C19.175463760375976,8.88524335144043,19.041863760375975,8.956673351440429,18.896363760375976,8.985623351440431C18.750863760375978,9.01456335144043,18.600063760375978,8.99971335144043,18.462963760375978,8.94295335144043C18.325963760375977,8.88618335144043,18.208763760375977,8.79005335144043,18.126363760375977,8.666713351440428C18.043963760375977,8.54337335144043,17.999963760375977,8.39836335144043,17.999963760375977,8.25002335144043C17.999963760375977,8.25002335144043,17.999963760375977,6.750023351440429,17.999963760375977,6.750023351440429C17.999963760375977,6.750023351440429,8.999983760375976,6.750023351440429,8.999983760375976,6.750023351440429C7.608083760375977,6.75159335144043,6.273633760375977,7.3052233514404294,5.289413760375977,8.289443351440429C4.305183760375977,9.27367335144043,3.7515537603759768,10.60812335144043,3.7499837603759767,12.00002335144043C3.7499837603759767,12.198933351440429,3.6709737603759764,12.38970335144043,3.530313760375977,12.53035335144043C3.3896637603759765,12.67100335144043,3.1989007603759765,12.75002335144043,2.9999887603759765,12.75002335144043C2.8010757603759764,12.75002335144043,2.6103107603759765,12.67100335144043,2.4696577603759766,12.53035335144043C2.3290058603759767,12.38970335144043,2.2499882578759767,12.198933351440429,2.2499882578759767,12.00002335144043C2.2499882578759767,12.00002335144043,2.2499882578759767,12.00002335144043,2.2499882578759767,12.00002335144043ZM20.999963760375977,11.25002335144043C20.80106376037598,11.250033351440429,20.610363760375975,11.32905335144043,20.469663760375976,11.46970335144043C20.329063760375977,11.61035335144043,20.249963760375977,11.80111335144043,20.249963760375977,12.00002335144043C20.248463760375977,13.39191335144043,19.694763760375977,14.72641335144043,18.710563760375976,15.71061335144043C17.726363760375975,16.69481335144043,16.391863760375976,17.24841335144043,14.999963760375977,17.25001335144043C14.999963760375977,17.25001335144043,5.999983760375977,17.25001335144043,5.999983760375977,17.25001335144043C5.999983760375977,17.25001335144043,5.999983760375977,15.75001335144043,5.999983760375977,15.75001335144043C5.999993760375977,15.601713351440429,5.956003760375976,15.45671335144043,5.873583760375976,15.33331335144043C5.791173760375976,15.21001335144043,5.674033760375977,15.113913351440429,5.536983760375977,15.05711335144043C5.399933760375976,15.000313351440429,5.249133760375976,14.98551335144043,5.103643760375977,15.01441335144043C4.958153760375977,15.04341335144043,4.824513760375977,15.11481335144043,4.719623760375977,15.21971335144043C4.719623760375977,15.21971335144043,2.4696227603759766,17.46971335144043,2.4696227603759766,17.46971335144043C2.3289771603759766,17.610313351440432,2.249963760375977,17.801113351440428,2.2499637603759766,18.00001335144043C2.2499637603759766,18.19891335144043,2.3289771603759766,18.389713351440427,2.4696227603759766,18.53031335144043C2.4696227603759766,18.53031335144043,4.719623760375977,20.78031335144043,4.719623760375977,20.78031335144043C4.824513760375977,20.88521335144043,4.958153760375977,20.95671335144043,5.103643760375977,20.98561335144043C5.249133760375976,21.01461335144043,5.399933760375976,20.99971335144043,5.536983760375977,20.94291335144043C5.674033760375977,20.88621335144043,5.791173760375976,20.79001335144043,5.873583760375976,20.66671335144043C5.956003760375976,20.543413351440428,5.999993760375977,20.39841335144043,5.999983760375977,20.25001335144043C5.999983760375977,20.25001335144043,5.999983760375977,18.75001335144043,5.999983760375977,18.75001335144043C5.999983760375977,18.75001335144043,14.999963760375977,18.75001335144043,14.999963760375977,18.75001335144043C16.789563760375977,18.748013351440427,18.505263760375975,18.03621335144043,19.770763760375978,16.77081335144043C21.036163760375977,15.50531335144043,21.747963760375978,13.78961335144043,21.749963760375977,12.00002335144043C21.749963760375977,11.80111335144043,21.670963760375976,11.61035335144043,21.530263760375977,11.46970335144043C21.389663760375978,11.32905335144043,21.198863760375975,11.250033351440429,20.999963760375977,11.25002335144043C20.999963760375977,11.25002335144043,20.999963760375977,11.25002335144043,20.999963760375977,11.25002335144043Z" fill="#000000" fill-opacity="1"/></g></g></g></svg>