<svg xmlns="http://www.w3.org/2000/svg" xmlns:xlink="http://www.w3.org/1999/xlink" fill="none" version="1.1" width="24" height="24" viewBox="0 0 24 24"><defs><mask id="master_svg_0"><g style="mix-blend-mode:passthrough"><path d="M2,2C2,2,21.4768,2,21.4768,2C21.4768,2,21.4768,21.477,21.4768,21.477C21.4768,21.477,2,21.477,2,21.477C2,21.477,2,2,2,2C2,2,2,2,2,2Z" fill-rule="evenodd" fill="#A5A5A5" fill-opacity="1"/></g></mask><mask id="master_svg_1"><g style="mix-blend-mode:passthrough"><path d="M17.239949226379395,17.70694923400879C17.239949226379395,17.70694923400879,22.263999226379394,17.70694923400879,22.263999226379394,17.70694923400879C22.263999226379394,17.70694923400879,22.263999226379394,22.72169923400879,22.263999226379394,22.72169923400879C22.263999226379394,22.72169923400879,17.239949226379395,22.72169923400879,17.239949226379395,22.72169923400879C17.239949226379395,22.72169923400879,17.239949226379395,17.70694923400879,17.239949226379395,17.70694923400879C17.239949226379395,17.70694923400879,17.239949226379395,17.70694923400879,17.239949226379395,17.70694923400879Z" fill-rule="evenodd" fill="#A5A5A5" fill-opacity="1"/></g></mask></defs><g style="mix-blend-mode:passthrough"><g><g style="mix-blend-mode:passthrough"><g><g style="mix-blend-mode:passthrough"><g mask="url(#master_svg_0)"><g style="mix-blend-mode:passthrough"><path d="M11.738800000005053,3.5C7.195800000005052,3.5,3.4998000000050524,7.195,3.4998000000050524,11.738C3.4998000000050524,16.281,7.195800000005052,19.977,11.738800000005053,19.977C16.28080000000505,19.977,19.976800000005053,16.281,19.976800000005053,11.738C19.976800000005053,7.195,16.28080000000505,3.5,11.738800000005053,3.5ZM11.738800000005053,21.477C6.368800000005052,21.477,1.9998000000050524,17.108,1.9998000000050524,11.738C1.9998000000050524,6.368,6.368800000005052,2,11.738800000005053,2C17.108800000005054,2,21.476800000005053,6.368,21.476800000005053,11.738C21.476800000005053,17.108,17.108800000005054,21.477,11.738800000005053,21.477Z" fill-rule="evenodd" fill="#A5A5A5" fill-opacity="1"/></g></g></g><g style="mix-blend-mode:passthrough"><g mask="url(#master_svg_1)"><g style="mix-blend-mode:passthrough"><path d="M21.514199226379397,22.72169923400879C21.323199226379394,22.72169923400879,21.131199226379394,22.648699234008788,20.984199226379395,22.502699234008787C20.984199226379395,22.502699234008787,17.460200226379396,18.988699234008788,17.460200226379396,18.988699234008788C17.167199826379395,18.69569923400879,17.166199826379394,18.22069923400879,17.459200226379394,17.927699234008788C17.751200226379396,17.63269923400879,18.226200226379394,17.63469923400879,18.520199226379393,17.92569923400879C18.520199226379393,17.92569923400879,22.044199226379394,21.44069923400879,22.044199226379394,21.44069923400879C22.337199226379393,21.73369923400879,22.338199226379395,22.20769923400879,22.045199226379395,22.50069923400879C21.899199226379395,22.648699234008788,21.706199226379393,22.72169923400879,21.514199226379397,22.72169923400879Z" fill-rule="evenodd" fill="#A5A5A5" fill-opacity="1"/></g></g></g></g></g></g></g></svg>