<svg xmlns="http://www.w3.org/2000/svg" xmlns:xlink="http://www.w3.org/1999/xlink" fill="none" version="1.1" width="24" height="24" viewBox="0 0 24 24"><defs><mask id="master_svg_0"><g style="mix-blend-mode:passthrough"><path d="M2,2.000499963760376C2,2.000499963760376,21.2849,2.000499963760376,21.2849,2.000499963760376C21.2849,2.000499963760376,21.2849,22.721499963760376,21.2849,22.721499963760376C21.2849,22.721499963760376,2,22.721499963760376,2,22.721499963760376C2,22.721499963760376,2,2.000499963760376,2,2.000499963760376C2,2.000499963760376,2,2.000499963760376,2,2.000499963760376Z" fill-rule="evenodd" fill="#FFFFFF" fill-opacity="1"/></g></mask></defs><g style="mix-blend-mode:passthrough"><g><g style="mix-blend-mode:passthrough"><g><g style="mix-blend-mode:passthrough"><g mask="url(#master_svg_0)"><g style="mix-blend-mode:passthrough"><path d="M7.202200230294366,17.440499963760374C7.431200230294366,17.440499963760374,7.6602002302943655,17.469499963760377,7.884200230294366,17.529499963760376C8.560200230294367,17.711499963760374,9.147200230294366,18.163499963760376,9.495200230294365,18.770499963760376C9.721200230294366,19.151499963760376,9.846200230294366,19.596499963760376,9.850200230294366,20.050499963760377C9.850200230294366,20.700499963760375,10.372200230294366,21.221499963760376,11.014200230294366,21.221499963760376C11.014200230294366,21.221499963760376,12.267180230294366,21.221499963760376,12.267180230294366,21.221499963760376C12.906180230294366,21.221499963760376,13.428180230294366,20.703499963760375,13.431180230294366,20.064499963760376C13.427180230294367,19.358499963760377,13.703180230294366,18.687499963760377,14.208180230294365,18.182499963760375C14.706180230294366,17.684499963760373,15.402180230294366,17.385499963760374,16.098180230294368,17.405499963760377C16.554180230294364,17.416499963760376,16.993180230294364,17.539499963760377,17.380180230294364,17.759499963760376C17.937180230294366,18.078499963760375,18.648180230294365,17.888499963760374,18.970180230294368,17.338499963760377C18.970180230294368,17.338499963760377,19.634180230294366,16.231499963760378,19.634180230294366,16.231499963760378C19.782180230294365,15.976499963760377,19.825180230294364,15.656499963760377,19.746180230294367,15.361499963760377C19.668180230294364,15.066499963760377,19.472180230294367,14.810499963760376,19.208180230294367,14.659499963760377C18.590180230294365,14.303499963760377,18.149180230294366,13.729499963760375,17.966180230294366,13.041499963760376C17.785180230294365,12.366499963760376,17.884180230294366,11.629499963760376,18.237180230294367,11.022499963760376C18.467180230294368,10.622499963760376,18.804180230294367,10.285499963760376,19.208180230294367,10.053499963760377C19.750180230294365,9.736499963760377,19.940180230294366,9.027499963760377,19.625180230294365,8.475499963760376C19.612180230294367,8.453499963760375,19.600180230294367,8.430499963760376,19.590180230294365,8.406499963760375C19.590180230294365,8.406499963760375,19.004180230294367,7.390499963760376,19.004180230294367,7.390499963760376C18.685180230294367,6.835499963760376,17.975180230294367,6.644499963760376,17.418180230294368,6.961499963760376C16.816180230294364,7.317499963760376,16.100180230294367,7.419499963760376,15.412180230294366,7.238499963760376C14.725180230294367,7.060499963760376,14.149180230294366,6.625499963760376,13.790180230294366,6.011499963760376C13.560180230294366,5.627499963760376,13.435180230294366,5.180499963760376,13.431180230294366,4.725499963760376C13.440180230294366,4.383499963760376,13.320180230294365,4.0764999637603765,13.102180230294366,3.851499963760376C12.885180230294367,3.6274999637603758,12.580180230294365,3.500499963760376,12.267180230294366,3.500499963760376C12.267180230294366,3.500499963760376,11.014200230294366,3.500499963760376,11.014200230294366,3.500499963760376C10.704200230294365,3.500499963760376,10.414200230294366,3.621499963760376,10.195200230294367,3.839499963760376C9.977200230294365,4.058499963760376,9.858200230294365,4.349499963760376,9.860200230294366,4.659499963760376C9.839200230294367,6.121499963760376,8.644200230294366,7.298499963760376,7.197200230294366,7.298499963760376C6.733200230294366,7.293499963760376,6.286200230294366,7.168499963760376,5.898200230294366,6.936499963760376C5.353200230294366,6.626499963760376,4.641200230294366,6.817499963760376,4.322200230294365,7.372499963760376C4.322200230294365,7.372499963760376,3.645200230294366,8.485499963760375,3.645200230294366,8.485499963760375C3.335200230294366,9.023499963760376,3.5252002302943657,9.734499963760376,4.077200230294366,10.055499963760376C4.896200230294365,10.529499963760376,5.407200230294366,11.413499963760376,5.407200230294366,12.361499963760377C5.407200230294366,13.309499963760375,4.896200230294365,14.192499963760376,4.0752002302943655,14.667499963760376C3.526200230294366,14.985499963760375,3.3362002302943656,15.692499963760376,3.654200230294366,16.242499963760377C3.654200230294366,16.242499963760377,4.285200230294366,17.330499963760374,4.285200230294366,17.330499963760374C4.441200230294366,17.611499963760377,4.696200230294366,17.814499963760376,4.991200230294366,17.897499963760374C5.285200230294366,17.979499963760375,5.609200230294366,17.94449996376038,5.879200230294366,17.794499963760376C6.276200230294366,17.561499963760376,6.738200230294366,17.440499963760374,7.202200230294366,17.440499963760374ZM12.267180230294366,22.721499963760376C12.267180230294366,22.721499963760376,11.014200230294366,22.721499963760376,11.014200230294366,22.721499963760376C9.545200230294366,22.721499963760376,8.350200230294366,21.527499963760377,8.350200230294366,20.058499963760376C8.348200230294367,19.877499963760375,8.296200230294366,19.689499963760376,8.199200230294366,19.526499963760376C8.042200230294366,19.252499963760375,7.788200230294366,19.056499963760377,7.495200230294366,18.978499963760378C7.204200230294366,18.900499963760375,6.885200230294366,18.943499963760377,6.6232002302943656,19.095499963760375C5.995200230294365,19.445499963760376,5.2562002302943664,19.530499963760377,4.580200230294366,19.340499963760376C3.9052002302943656,19.149499963760377,3.322200230294366,18.685499963760375,2.9802002302943658,18.070499963760376C2.9802002302943658,18.070499963760376,2.3552002302943658,16.993499963760378,2.3552002302943658,16.993499963760378C1.6242002302943659,15.725499963760376,2.059199930294366,14.100499963760376,3.325200230294366,13.368499963760376C3.684200230294366,13.161499963760376,3.907200230294366,12.775499963760376,3.907200230294366,12.361499963760377C3.907200230294366,11.947499963760375,3.684200230294366,11.560499963760376,3.325200230294366,11.353499963760376C2.058200030294366,10.617499963760377,1.6242002302943659,8.988499963760376,2.354200230294366,7.720499963760376C2.354200230294366,7.720499963760376,3.032200230294366,6.607499963760376,3.032200230294366,6.607499963760376C3.753200230294366,5.353499963760376,5.383200230294365,4.911499963760376,6.654200230294366,5.641499963760376C6.827200230294366,5.744499963760376,7.015200230294366,5.796499963760375,7.206200230294366,5.798499963760376C7.829200230294366,5.798499963760376,8.350200230294366,5.284499963760376,8.360200230294366,4.652499963760376C8.356200230294366,3.955499963760376,8.631200230294365,3.286499963760376,9.132200230294366,2.781499963760376C9.635200230294366,2.277499963760376,10.303200230294365,2.000499963760376,11.014200230294366,2.000499963760376C11.014200230294366,2.000499963760376,12.267180230294366,2.000499963760376,12.267180230294366,2.000499963760376C12.983180230294366,2.000499963760376,13.679180230294365,2.294499963760376,14.178180230294366,2.805499963760376C14.676180230294365,3.319499963760376,14.951180230294366,4.024499963760376,14.930180230294367,4.739499963760376C14.932180230294366,4.900499963760376,14.985180230294366,5.086499963760376,15.081180230294366,5.2494999637603765C15.240180230294365,5.519499963760376,15.491180230294367,5.709499963760376,15.789180230294367,5.787499963760376C16.087180230294365,5.861499963760377,16.399180230294366,5.821499963760376,16.664180230294367,5.664499963760376C17.944180230294364,4.933499963760376,19.573180230294366,5.371499963760376,20.304180230294367,6.641499963760376C20.304180230294367,6.641499963760376,20.927180230294365,7.720499963760376,20.927180230294365,7.720499963760376C20.943180230294367,7.749499963760376,20.957180230294366,7.777499963760376,20.969180230294366,7.806499963760376C21.631180230294365,9.057499963760376,21.189180230294365,10.632499963760376,19.959180230294365,11.351499963760377C19.780180230294366,11.454499963760377,19.635180230294367,11.598499963760377,19.535180230294365,11.772499963760376C19.380180230294364,12.041499963760376,19.337180230294365,12.361499963760377,19.415180230294364,12.655499963760375C19.495180230294366,12.955499963760376,19.686180230294365,13.204499963760377,19.955180230294367,13.358499963760377C20.562180230294366,13.707499963760377,21.015180230294366,14.295499963760376,21.196180230294367,14.974499963760376C21.377180230294368,15.652499963760375,21.278180230294367,16.388499963760374,20.925180230294366,16.995499963760373C20.925180230294366,16.995499963760373,20.261180230294364,18.101499963760375,20.261180230294364,18.101499963760375C19.530180230294366,19.357499963760375,17.901180230294365,19.792499963760378,16.634180230294366,19.060499963760375C16.465180230294365,18.963499963760377,16.270180230294365,18.910499963760376,16.076180230294366,18.905499963760377C16.076180230294366,18.905499963760377,16.070180230294365,18.905499963760377,16.070180230294365,18.905499963760377C15.781180230294366,18.905499963760377,15.484180230294365,19.028499963760375,15.268180230294366,19.243499963760375C15.049180230294366,19.462499963760376,14.929180230294365,19.754499963760377,14.931180230294366,20.064499963760376C14.924180230294366,21.533499963760377,13.729180230294366,22.721499963760376,12.267180230294366,22.721499963760376Z" fill-rule="evenodd" fill="#000000" fill-opacity="1"/></g></g></g><g style="mix-blend-mode:passthrough"><path d="M11.645099960327148,10.474600076675415C10.605099960327149,10.474600076675415,9.759099960327148,11.321600076675415,9.759099960327148,12.361600076675415C9.759099960327148,13.401600076675415,10.605099960327149,14.246600076675415,11.645099960327148,14.246600076675415C12.685099960327149,14.246600076675415,13.531099960327149,13.401600076675415,13.531099960327149,12.361600076675415C13.531099960327149,11.321600076675415,12.685099960327149,10.474600076675415,11.645099960327148,10.474600076675415ZM11.645099960327148,15.746600076675415C9.778099960327149,15.746600076675415,8.259099960327148,14.228600076675415,8.259099960327148,12.361600076675415C8.259099960327148,10.494600076675415,9.778099960327149,8.974600076675415,11.645099960327148,8.974600076675415C13.512099960327149,8.974600076675415,15.031099960327149,10.494600076675415,15.031099960327149,12.361600076675415C15.031099960327149,14.228600076675415,13.512099960327149,15.746600076675415,11.645099960327148,15.746600076675415Z" fill-rule="evenodd" fill="#000000" fill-opacity="1"/></g></g></g></g></g></svg>