<svg xmlns="http://www.w3.org/2000/svg" xmlns:xlink="http://www.w3.org/1999/xlink" fill="none" version="1.1" width="24" height="24" viewBox="0 0 24 24"><clipPath id="master_svg_0"><rect x="0" y="0" width="24" height="24" rx="0"/></clipPath><g clip-path="url(#master_svg_0)" style="mix-blend-mode:passthrough"><g><g style="mix-blend-mode:passthrough"><path d="M15.9697,4.71967C16.2626,4.4267767,16.7374,4.4267767,17.0303,4.71967L21.5268,9.21616L21.5303,9.21967C21.5418,9.231169999999999,21.553,9.24306,21.5637,9.2553C21.6115,9.30972,21.6516,9.371120000000001,21.6821,9.43778C21.7257,9.53284,21.75,9.638580000000001,21.75,9.75C21.75,9.861419999999999,21.7257,9.96716,21.6821,10.06222C21.6524,10.12715,21.6129,10.18872,21.5637,10.2447C21.553,10.25685,21.5419,10.26873,21.5303,10.28033L21.5268,10.28384L17.0303,14.7803C16.7374,15.0732,16.2626,15.0732,15.9697,14.7803C15.6768,14.48744,15.6768,14.01256,15.9697,13.71967L19.1893,10.5L15.75,10.5C13.9208,10.50015,12.1434,11.10796,10.69712,12.22795C9.250820000000001,13.34796,8.21757,14.9167,7.75967,16.6877C7.65598,17.0887,7.24683,17.3298,6.84581,17.226100000000002C6.44478,17.1224,6.20374,16.7133,6.30742,16.3122C6.84854,14.21935,8.069569999999999,12.36553,9.77871,11.041979999999999C11.48785,9.718440000000001,13.5882,9.000160000000001,15.7499,9L19.1893,9L15.9697,5.78033C15.6768,5.487437,15.6768,5.012563,15.9697,4.71967ZM3,7.5C3.4142099999999997,7.5,3.75,7.835789999999999,3.75,8.25L3.75,19.5L18,19.5C18.4142,19.5,18.75,19.8358,18.75,20.25C18.75,20.6642,18.4142,21,18,21L3.75,21C3.3521799999999997,21,2.970645,20.842,2.68934,20.5607C2.408035,20.279400000000003,2.25,19.8978,2.25,19.5L2.25,8.25C2.25,7.835789999999999,2.585786,7.5,3,7.5Z" fill-rule="evenodd" fill="#000000" fill-opacity="1"/></g></g></g></svg>