<svg xmlns="http://www.w3.org/2000/svg" xmlns:xlink="http://www.w3.org/1999/xlink" fill="none" version="1.1" width="24" height="24" viewBox="0 0 24 24"><defs><mask id="master_svg_0"><g style="mix-blend-mode:passthrough"><path d="M2.000149965286255,4.000200271606445C2.000149965286255,4.000200271606445,21.999949965286255,4.000200271606445,21.999949965286255,4.000200271606445C21.999949965286255,4.000200271606445,21.999949965286255,20.105200271606446,21.999949965286255,20.105200271606446C21.999949965286255,20.105200271606446,2.000149965286255,20.105200271606446,2.000149965286255,20.105200271606446C2.000149965286255,20.105200271606446,2.000149965286255,4.000200271606445,2.000149965286255,4.000200271606445C2.000149965286255,4.000200271606445,2.000149965286255,4.000200271606445,2.000149965286255,4.000200271606445Z" fill-rule="evenodd" fill="#FFFFFF" fill-opacity="1"/></g></mask></defs><g style="mix-blend-mode:passthrough"><g><g style="mix-blend-mode:passthrough"><g><g style="mix-blend-mode:passthrough"><path d="M11.999599920272827,9.641300201416016C10.669599920272827,9.641300201416016,9.588599920272827,10.723300201416016,9.588599920272827,12.053300201416015C9.588599920272827,13.382300201416015,10.669599920272827,14.463300201416015,11.999599920272827,14.463300201416015C13.329599920272827,14.463300201416015,14.411599920272828,13.382300201416015,14.411599920272828,12.053300201416015C14.411599920272828,10.723300201416016,13.329599920272827,9.641300201416016,11.999599920272827,9.641300201416016ZM11.999599920272827,15.963300201416015C9.842599920272827,15.963300201416015,8.088599920272827,14.209300201416015,8.088599920272827,12.053300201416015C8.088599920272827,9.896300201416015,9.842599920272827,8.141300201416016,11.999599920272827,8.141300201416016C14.156599920272827,8.141300201416016,15.911599920272828,9.896300201416015,15.911599920272828,12.053300201416015C15.911599920272828,14.209300201416015,14.156599920272827,15.963300201416015,11.999599920272827,15.963300201416015Z" fill-rule="evenodd" fill="#000000" fill-opacity="1"/></g><g style="mix-blend-mode:passthrough"><g mask="url(#master_svg_0)"><g style="mix-blend-mode:passthrough"><path d="M3.569899965286255,12.052500316143036C5.429899965286255,16.161450316143036,8.562899965286256,18.604450316143037,11.999899965286255,18.605450316143035C15.436949965286255,18.604450316143037,18.569849965286256,16.161450316143036,20.429949965286255,12.052500316143036C18.569849965286256,7.944500316143036,15.436949965286255,5.501500316143035,11.999899965286255,5.500500316143036C8.563899965286254,5.501500316143035,5.429899965286255,7.944500316143036,3.569899965286255,12.052500316143036C3.569899965286255,12.052500316143036,3.569899965286255,12.052500316143036,3.569899965286255,12.052500316143036C3.569899965286255,12.052500316143036,3.569899965286255,12.052500316143036,3.569899965286255,12.052500316143036ZM12.001849965286254,20.105450316143035C12.001849965286254,20.105450316143035,11.997899965286255,20.105450316143035,11.997899965286255,20.105450316143035C11.997899965286255,20.105450316143035,11.996899965286255,20.105450316143035,11.996899965286255,20.105450316143035C7.860899965286255,20.102450316143035,4.146899965286255,17.203550316143037,2.060899965286255,12.348500316143037C1.9798999652862548,12.159500316143037,1.9798999652862548,11.945500316143036,2.060899965286255,11.756500316143036C4.146899965286255,6.902500316143036,7.861899965286255,4.003500316143036,11.996899965286255,4.000500316143036C11.998899965286254,3.999500316143036,11.998899965286254,3.999500316143036,11.999899965286255,4.000500316143036C12.001849965286254,3.999500316143036,12.001849965286254,3.999500316143036,12.002949965286255,4.000500316143036C16.138949965286255,4.003500316143036,19.852849965286254,6.902500316143036,21.938849965286256,11.756500316143036C22.020949965286256,11.945500316143036,22.020949965286256,12.159500316143037,21.938849965286256,12.348500316143037C19.853849965286255,17.203550316143037,16.138949965286255,20.102450316143035,12.002949965286255,20.105450316143035C12.002949965286255,20.105450316143035,12.001849965286254,20.105450316143035,12.001849965286254,20.105450316143035C12.001849965286254,20.105450316143035,12.001849965286254,20.105450316143035,12.001849965286254,20.105450316143035Z" fill-rule="evenodd" fill="#000000" fill-opacity="1"/></g></g></g></g></g></g></g></svg>