<svg xmlns="http://www.w3.org/2000/svg" xmlns:xlink="http://www.w3.org/1999/xlink" fill="none" version="1.1" width="24" height="24" viewBox="0 0 24 24"><clipPath id="master_svg_0"><rect x="0" y="0" width="24" height="24" rx="0"/></clipPath><g clip-path="url(#master_svg_0)" style="mix-blend-mode:passthrough"><g><g style="mix-blend-mode:passthrough"><path d="M22.2804,16.719615258789062C22.421,16.860315258789065,22.5,17.05111525878906,22.5,17.250015258789062C22.5,17.448915258789064,22.421,17.63971525878906,22.2804,17.780415258789063C22.2804,17.780415258789063,20.0304,20.030315258789063,20.0304,20.030315258789063C19.9255,20.135215258789064,19.7918,20.206615258789064,19.6463,20.235615258789064C19.5009,20.264515258789064,19.3501,20.249615258789063,19.213,20.192915258789064C19.076,20.13611525878906,18.9588,20.04001525878906,18.8764,19.91661525878906C18.794,19.79331525878906,18.75,19.64831525878906,18.75,19.500015258789062C18.75,19.500015258789062,18.75,17.998715258789062,18.75,17.998715258789062C17.6907,17.98391525878906,16.6498,17.72061525878906,15.7109,17.22981525878906C14.7721,16.739115258789063,13.9617,16.03461525878906,13.345,15.173315258789062C13.345,15.173315258789062,9.43442,9.698455258789062,9.43442,9.698455258789062C8.94809,9.019065258789063,8.306930000000001,8.465295258789062,7.56401,8.082985258789062C6.8211,7.700685258789063,5.9978,7.5008352587890625,5.1622900000000005,7.499995258789062C5.1622900000000005,7.499995258789062,3,7.499995258789062,3,7.499995258789062C2.801088,7.499995258789062,2.610322,7.420985258789063,2.46967,7.280325258789063C2.3290176,7.139675258789063,2.2500000000000004,6.948915258789063,2.25,6.749995258789062C2.25,6.551085258789063,2.3290176,6.360325258789063,2.46967,6.219665258789062C2.610322,6.079015258789063,2.801088,5.999995258789062,3,5.999995258789062C3,5.999995258789062,5.1622900000000005,5.999995258789062,5.1622900000000005,5.999995258789062C6.23653,6.001085258789063,7.29505,6.258045258789062,8.250219999999999,6.749605258789062C9.205400000000001,7.241155258789062,10.02974,7.953175258789062,10.655,8.826695258789062C10.655,8.826695258789062,14.5656,14.301515258789063,14.5656,14.301515258789063C15.0434,14.968615258789063,15.6707,15.514615258789062,16.3973,15.895915258789062C17.1239,16.277115258789063,17.9296,16.483115258789063,18.75,16.49731525878906C18.75,16.49731525878906,18.75,15.000015258789062,18.75,15.000015258789062C18.75,14.851715258789062,18.794,14.706715258789062,18.8764,14.583315258789062C18.9588,14.460015258789063,19.076,14.363915258789062,19.213,14.307115258789063C19.3501,14.250315258789062,19.5009,14.235515258789063,19.6463,14.264415258789063C19.7918,14.293315258789063,19.9255,14.364715258789062,20.0304,14.469615258789062C20.0304,14.469615258789062,22.2804,16.719615258789062,22.2804,16.719615258789062C22.2804,16.719615258789062,22.2804,16.719615258789062,22.2804,16.719615258789062ZM13.4075,10.029515258789061C13.4877,10.086795258789063,13.5783,10.127725258789063,13.6743,10.149955258789063C13.7702,10.172195258789063,13.8696,10.175305258789063,13.9668,10.159105258789062C14.0639,10.142915258789063,14.1569,10.107725258789063,14.2405,10.055565258789063C14.324,10.003395258789062,14.3965,9.935285258789062,14.4537,9.855105258789063C14.4537,9.855105258789063,14.5656,9.698455258789062,14.5656,9.698455258789062C15.0434,9.031405258789063,15.6707,8.485405258789061,16.3973,8.104135258789062C17.1239,7.722855258789062,17.9296,7.516875258789062,18.75,7.502655258789062C18.75,7.502655258789062,18.75,9.000005258789063,18.75,9.000005258789063C18.75,9.148335258789063,18.794,9.293335258789062,18.8764,9.416675258789063C18.9588,9.540005258789062,19.076,9.636135258789063,19.213,9.692905258789063C19.3501,9.749665258789062,19.5009,9.764525258789062,19.6463,9.735595258789061C19.7918,9.706665258789062,19.9255,9.635245258789062,20.0304,9.530365258789063C20.0304,9.530365258789063,22.2804,7.280365258789063,22.2804,7.280365258789063C22.421,7.139695258789063,22.5,6.948915258789063,22.5,6.749995258789062C22.5,6.551075258789062,22.421,6.3603052587890625,22.2804,6.219635258789062C22.2804,6.219635258789062,20.0304,3.9696342587890623,20.0304,3.9696342587890623C19.9255,3.8647602587890626,19.7918,3.7933452587890626,19.6463,3.7644173587890624C19.5009,3.7354893587890623,19.3501,3.7503479607890626,19.213,3.8071145587890625C19.076,3.8638812587890623,18.9588,3.9600062587890625,18.8764,4.083337258789062C18.794,4.206668258789063,18.75,4.351666258789063,18.75,4.500000258789062C18.75,4.500000258789062,18.75,6.001325258789063,18.75,6.001325258789063C17.6907,6.016045258789063,16.6498,6.279395258789062,15.7109,6.7701452587890625C14.7721,7.260905258789062,13.9617,7.965335258789063,13.345,8.826695258789062C13.345,8.826695258789062,13.2331,8.983335258789062,13.2331,8.983335258789062C13.1759,9.063475258789062,13.135,9.154115258789062,13.1127,9.250065258789062C13.0905,9.346015258789063,13.0874,9.445405258789062,13.1036,9.542555258789061C13.1198,9.639705258789062,13.155,9.732715258789064,13.2071,9.816265258789063C13.2593,9.899815258789062,13.3274,9.972275258789063,13.4075,10.029515258789061C13.4075,10.029515258789061,13.4075,10.029515258789061,13.4075,10.029515258789061ZM10.59247,13.970515258789062C10.51234,13.913215258789062,10.42171,13.872315258789062,10.32575,13.850015258789062C10.229790000000001,13.827815258789062,10.1304,13.824715258789062,10.03324,13.840915258789062C9.93608,13.857115258789063,9.84307,13.892315258789063,9.75952,13.944415258789062C9.67596,13.996615258789063,9.60351,14.064715258789063,9.546299999999999,14.144915258789062C9.546299999999999,14.144915258789062,9.43442,14.301515258789063,9.43442,14.301515258789063C8.94809,14.980915258789063,8.306930000000001,15.534715258789063,7.56401,15.917015258789062C6.8211,16.299315258789065,5.9978,16.49911525878906,5.1622900000000005,16.500015258789062C5.1622900000000005,16.500015258789062,3,16.500015258789062,3,16.500015258789062C2.801088,16.500015258789062,2.610322,16.579015258789063,2.46967,16.719715258789062C2.3290176,16.860315258789065,2.250000000000001,17.05111525878906,2.25,17.250015258789062C2.2500000000000004,17.448915258789064,2.3290176,17.63971525878906,2.46967,17.780315258789063C2.610322,17.921015258789062,2.801088,18.000015258789062,3,18.000015258789062C3,18.000015258789062,5.1622900000000005,18.000015258789062,5.1622900000000005,18.000015258789062C6.23653,17.99891525878906,7.29505,17.741915258789064,8.250219999999999,17.25041525878906C9.205400000000001,16.758815258789063,10.02974,16.04681525878906,10.655,15.173315258789062C10.655,15.173315258789062,10.76688,15.016615258789063,10.76688,15.016615258789063C10.82413,14.936515258789063,10.86503,14.845915258789063,10.88725,14.749915258789063C10.90948,14.654015258789062,10.91258,14.554615258789063,10.89638,14.457415258789062C10.88019,14.360315258789063,10.84501,14.267315258789063,10.79286,14.183715258789062C10.74072,14.100215258789062,10.67262,14.027715258789062,10.59247,13.970515258789062C10.59247,13.970515258789062,10.59247,13.970515258789062,10.59247,13.970515258789062Z" fill="#000000" fill-opacity="1"/></g></g></g></svg>