<svg xmlns="http://www.w3.org/2000/svg" xmlns:xlink="http://www.w3.org/1999/xlink" fill="none" version="1.1" width="24" height="24" viewBox="0 0 24 24"><clipPath id="master_svg_0"><rect x="0" y="0" width="24" height="24" rx="0"/></clipPath><g clip-path="url(#master_svg_0)" style="mix-blend-mode:passthrough"><g><g style="mix-blend-mode:passthrough"><path d="M5.625,5.625C5.625,5.625,5.625,18.375,5.625,18.375C5.625,18.375,18.375,18.375,18.375,18.375C18.375,18.375,18.375,5.625,18.375,5.625C18.375,5.625,5.625,5.625,5.625,5.625C5.625,5.625,5.625,5.625,5.625,5.625ZM4.125,5.52273C4.125,4.750784,4.750784,4.125,5.52273,4.125C5.52273,4.125,18.4773,4.125,18.4773,4.125C19.249200000000002,4.125,19.875,4.750784,19.875,5.52273C19.875,5.52273,19.875,18.4773,19.875,18.4773C19.875,19.249200000000002,19.249200000000002,19.875,18.4773,19.875C18.4773,19.875,5.52273,19.875,5.52273,19.875C4.750784,19.875,4.125,19.249200000000002,4.125,18.4773C4.125,18.4773,4.125,5.52273,4.125,5.52273C4.125,5.52273,4.125,5.52273,4.125,5.52273Z" fill-rule="evenodd" fill="#000000" fill-opacity="1"/></g></g></g></svg>