<svg xmlns="http://www.w3.org/2000/svg" xmlns:xlink="http://www.w3.org/1999/xlink" fill="none" version="1.1" width="24" height="24" viewBox="0 0 24 24"><clipPath id="master_svg_0"><rect x="0" y="0" width="24" height="24" rx="0"/></clipPath><g clip-path="url(#master_svg_0)" style="mix-blend-mode:passthrough"><g><g style="mix-blend-mode:passthrough"><path d="M2.99945068359375,3.75C2.60162068359375,3.75,2.22009468359375,3.908036,1.93879068359375,4.18934C1.65748568359375,4.470644,1.49945068359375,4.85218,1.49945068359375,5.25L1.49945068359375,13.5C1.49945068359375,13.8978,1.65748568359375,14.2794,1.93879068359375,14.5607C2.22009568359375,14.842,2.6016306835937497,15,2.99945068359375,15L7.03593068359375,15L10.57863068359375,22.0854C10.70567068359375,22.3395,10.96537068359375,22.5,11.24945068359375,22.5C11.74195068359375,22.5,12.22955068359375,22.403,12.68455068359375,22.2145C13.13945068359375,22.0261,13.55285068359375,21.7499,13.90105068359375,21.4016C14.24935068359375,21.0534,14.52555068359375,20.64,14.71395068359375,20.1851C14.90245068359375,19.7301,14.99945068359375,19.2425,14.99945068359375,18.75L14.99945068359375,17.25L20.05025068359375,17.25C20.36935068359375,17.25,20.68465068359375,17.1822,20.97555068359375,17.051000000000002C21.26635068359375,16.919800000000002,21.52595068359375,16.7282,21.73705068359375,16.4891C21.94815068359375,16.2499,22.10605068359375,15.9685,22.20015068359375,15.6637C22.29425068359375,15.3589,22.32245068359375,15.0375,22.28295068359375,14.7209L21.15795068359375,5.72092C21.08985068359375,5.17675,20.82545068359375,4.67616,20.41435068359375,4.313224C20.00325068359375,3.950289,19.47365068359375,3.75,18.92525068359375,3.75L2.99945068359375,3.75ZM8.24945068359375,5.25L8.24945068359375,14.073L11.69105068359375,20.9562C11.83435068359375,20.9276,11.97485068359375,20.8849,12.11045068359375,20.8287C12.38345068359375,20.7157,12.63155068359375,20.5499,12.84045068359375,20.341C13.04935068359375,20.1321,13.21515068359375,19.884,13.32815068359375,19.611C13.44125068359375,19.3381,13.49945068359375,19.0455,13.49945068359375,18.75L13.49945068359375,16.5C13.49945068359375,16.0858,13.83525068359375,15.75,14.24945068359375,15.75L20.05025068359375,15.75C20.15665068359375,15.75,20.26175068359375,15.7274,20.35865068359375,15.6837C20.45565068359375,15.6399,20.54215068359375,15.5761,20.61255068359375,15.4964C20.68295068359375,15.4166,20.73555068359375,15.3228,20.76695068359375,15.2212C20.79825068359375,15.1196,20.80765068359375,15.0125,20.79445068359375,14.907L19.66945068359375,5.906969999999999C19.64685068359375,5.72558,19.55865068359375,5.55872,19.42165068359375,5.43774C19.28455068359375,5.31676,19.10805068359375,5.25,18.92525068359375,5.25L8.24945068359375,5.25ZM2.99945068359375,13.5L2.99945068359375,5.25L6.74945068359375,5.25L6.74945068359375,13.5L2.99945068359375,13.5Z" fill-rule="evenodd" fill="#000000" fill-opacity="1"/></g></g></g></svg>