<svg xmlns="http://www.w3.org/2000/svg" xmlns:xlink="http://www.w3.org/1999/xlink" fill="none" version="1.1" width="24" height="24" viewBox="0 0 24 24"><clipPath id="master_svg_0"><rect x="0" y="0" width="24" height="24" rx="0"/></clipPath><g clip-path="url(#master_svg_0)" style="mix-blend-mode:passthrough"><g><g style="mix-blend-mode:passthrough"><path d="M11.24945068359375,1.5C10.96537068359375,1.5,10.70567068359375,1.660502,10.57863068359375,1.91459L7.03592068359375,9L2.99945068359375,9C2.60162068359375,9,2.22009468359375,9.15804,1.93879068359375,9.43934C1.65748568359375,9.72064,1.49945068359375,10.10217,1.49945068359375,10.5L1.49945068359375,18.75C1.49945068359375,19.1478,1.65748568359375,19.5294,1.93879068359375,19.8107C2.22009568359375,20.092,2.6016306835937497,20.25,2.99945068359375,20.25L18.92525068359375,20.25C19.47365068359375,20.25,20.00325068359375,20.0497,20.41435068359375,19.6868C20.82545068359375,19.3238,21.08985068359375,18.8232,21.15795068359375,18.2791L22.28295068359375,9.27908C22.32245068359375,8.96251,22.29425068359375,8.64114,22.20015068359375,8.3363C22.10605068359375,8.03146,21.94815068359375,7.75012,21.73705068359375,7.51094C21.52595068359375,7.27177,21.26635068359375,7.08023,20.97555068359375,6.94904C20.68465068359375,6.81785,20.36935068359375,6.75,20.05025068359375,6.75L14.99945068359375,6.75L14.99945068359375,5.25C14.99945068359375,4.7575400000000005,14.90245068359375,4.269909999999999,14.71395068359375,3.81494C14.52555068359375,3.3599699999999997,14.24935068359375,2.94657,13.90105068359375,2.59835C13.55285068359375,2.25013,13.13945068359375,1.973907,12.68455068359375,1.785452C12.22955068359375,1.5969967999999999,11.74195068359375,1.5,11.24945068359375,1.5ZM8.24945068359375,18.75L18.92525068359375,18.75C19.10805068359375,18.75,19.28455068359375,18.6832,19.42165068359375,18.5623C19.55865068359375,18.4413,19.64685068359375,18.2744,19.66945068359375,18.093L20.79445068359375,9.093029999999999C20.80765068359375,8.9875,20.79825068359375,8.880379999999999,20.76695068359375,8.77877C20.73555068359375,8.677150000000001,20.68295068359375,8.58337,20.61255068359375,8.50365C20.54215068359375,8.423919999999999,20.45565068359375,8.36008,20.35865068359375,8.31635C20.26175068359375,8.27262,20.15665068359375,8.25,20.05025068359375,8.25L14.24945068359375,8.25C13.83525068359375,8.25,13.49945068359375,7.91421,13.49945068359375,7.5L13.49945068359375,5.25C13.49945068359375,4.95453,13.44125068359375,4.6619399999999995,13.32815068359375,4.38896C13.21515068359375,4.11598,13.04935068359375,3.86794,12.84045068359375,3.65901C12.63155068359375,3.45008,12.38345068359375,3.2843400000000003,12.11045068359375,3.17127C11.97485068359375,3.11509,11.83435068359375,3.07245,11.69105068359375,3.0437700000000003L8.24945068359375,9.92705L8.24945068359375,18.75ZM2.99945068359375,18.75L2.99945068359375,10.5L6.74945068359375,10.5L6.74945068359375,18.75L2.99945068359375,18.75Z" fill-rule="evenodd" fill="#000000" fill-opacity="1"/></g></g></g></svg>