<svg xmlns="http://www.w3.org/2000/svg" xmlns:xlink="http://www.w3.org/1999/xlink" fill="#7A7A7A" version="1.1" width="24" height="24" viewBox="0 0 24 24"><clipPath id="master_svg_0"><rect x="0" y="0" width="24" height="24" rx="0"/></clipPath><g clip-path="url(#master_svg_0)" style="mix-blend-mode:passthrough"><g><g style="mix-blend-mode:passthrough"><g><g style="mix-blend-mode:passthrough"><path d="M12,3.5C7.313,3.5,3.5,7.313,3.5,12C3.5,16.686999999999998,7.313,20.5,12,20.5C16.686999999999998,20.5,20.5,16.686999999999998,20.5,12C20.5,7.313,16.686999999999998,3.5,12,3.5ZM12,22C6.486,22,2,17.514,2,12C2,6.486,6.486,2,12,2C17.514,2,22,6.486,22,12C22,17.514,17.514,22,12,22Z" fill-rule="evenodd" fill="#7A7A7A" fill-opacity="1"/></g><g style="mix-blend-mode:passthrough"><path d="M15.431199569702148,15.692399856567382C15.300199569702148,15.692399856567382,15.168199569702148,15.658399856567383,15.047199569702148,15.587399856567384C15.047199569702148,15.587399856567384,11.277199569702148,13.338399856567383,11.277199569702148,13.338399856567383C11.051199569702149,13.202399856567382,10.911199569702148,12.957399856567383,10.911199569702148,12.693399856567382C10.911199569702148,12.693399856567382,10.911199569702148,7.845399856567383,10.911199569702148,7.845399856567383C10.911199569702148,7.431399856567383,11.247199569702149,7.095399856567383,11.661199569702148,7.095399856567383C12.076199569702148,7.095399856567383,12.411199569702148,7.431399856567383,12.411199569702148,7.845399856567383C12.411199569702148,7.845399856567383,12.411199569702148,12.267399856567383,12.411199569702148,12.267399856567383C12.411199569702148,12.267399856567383,15.81619956970215,14.297399856567383,15.81619956970215,14.297399856567383C16.171199569702146,14.510399856567382,16.288199569702147,14.970399856567383,16.076199569702148,15.326399856567383C15.93519956970215,15.561399856567382,15.686199569702149,15.692399856567382,15.431199569702148,15.692399856567382Z" fill-rule="evenodd" fill="#7A7A7A" fill-opacity="1"/></g></g></g></g></g></svg>