<svg xmlns="http://www.w3.org/2000/svg" xmlns:xlink="http://www.w3.org/1999/xlink" fill="none" version="1.1" width="24" height="24" viewBox="0 0 24 24"><g style="mix-blend-mode:passthrough"><g><g style="mix-blend-mode:passthrough"><g><g style="mix-blend-mode:passthrough"><path d="M7.665,3.5C5.135,3.5,3.5,5.2330000000000005,3.5,7.916C3.5,7.916,3.5,16.084,3.5,16.084C3.5,18.767,5.135,20.5,7.665,20.5C7.665,20.5,16.333,20.5,16.333,20.5C18.864,20.5,20.5,18.767,20.5,16.084C20.5,16.084,20.5,7.916,20.5,7.916C20.5,5.2330000000000005,18.865,3.5,16.334,3.5C16.334,3.5,7.665,3.5,7.665,3.5C7.665,3.5,7.665,3.5,7.665,3.5ZM16.333,22C16.333,22,7.665,22,7.665,22C4.276,22,2,19.622,2,16.084C2,16.084,2,7.916,2,7.916C2,4.378,4.276,2,7.665,2C7.665,2,16.334,2,16.334,2C19.723,2,22,4.378,22,7.916C22,7.916,22,16.084,22,16.084C22,19.622,19.723,22,16.333,22C16.333,22,16.333,22,16.333,22C16.333,22,16.333,22,16.333,22Z" fill-rule="evenodd" fill="#000000" fill-opacity="1"/></g><g style="mix-blend-mode:passthrough"><path d="M15.390099731445313,14.767600234985352C15.259099731445312,14.767600234985352,15.127099731445313,14.733600234985351,15.006099731445312,14.662600234985351C15.006099731445312,14.662600234985351,11.615099731445312,12.639600234985352,11.615099731445312,12.639600234985352C11.389099731445313,12.503600234985353,11.249099731445312,12.258600234985352,11.249099731445312,11.995600234985352C11.249099731445312,11.995600234985352,11.249099731445312,7.633600234985352,11.249099731445312,7.633600234985352C11.249099731445312,7.219600234985352,11.585099731445313,6.883600234985352,11.999099731445312,6.883600234985352C12.413099731445312,6.883600234985352,12.749099731445312,7.219600234985352,12.749099731445312,7.633600234985352C12.749099731445312,7.633600234985352,12.749099731445312,11.569600234985352,12.749099731445312,11.569600234985352C12.749099731445312,11.569600234985352,15.775099731445312,13.372600234985352,15.775099731445312,13.372600234985352C16.130099731445313,13.585600234985352,16.247099731445314,14.04560023498535,16.035099731445314,14.401600234985352C15.894099731445312,14.636600234985352,15.645099731445313,14.767600234985352,15.390099731445313,14.767600234985352Z" fill-rule="evenodd" fill="#000000" fill-opacity="1"/></g></g></g></g></g></svg>