<svg xmlns="http://www.w3.org/2000/svg" xmlns:xlink="http://www.w3.org/1999/xlink" fill="none" version="1.1" width="24" height="24" viewBox="0 0 24 24"><clipPath id="master_svg_0"><rect x="0" y="0" width="24" height="24" rx="0"/></clipPath><g style="mix-blend-mode:passthrough"><g><g clip-path="url(#master_svg_0)" style="mix-blend-mode:passthrough"><g><g style="mix-blend-mode:passthrough"></g><g style="mix-blend-mode:passthrough"><path d="M18.7071,6.707107C19.0976,6.316583,19.0976,5.683417,18.7071,5.292893C18.3166,4.9023699999999995,17.6834,4.9023699999999995,17.2929,5.292893C17.2929,5.292893,18.7071,6.707107,18.7071,6.707107C18.7071,6.707107,18.7071,6.707107,18.7071,6.707107ZM5.292893,17.2929C4.9023699999999995,17.6834,4.9023699999999995,18.3166,5.292893,18.7071C5.683417,19.0976,6.316583,19.0976,6.707107,18.7071C6.707107,18.7071,5.292893,17.2929,5.292893,17.2929C5.292893,17.2929,5.292893,17.2929,5.292893,17.2929ZM17.2929,5.292893C17.2929,5.292893,5.292893,17.2929,5.292893,17.2929C5.292893,17.2929,6.707107,18.7071,6.707107,18.7071C6.707107,18.7071,18.7071,6.707107,18.7071,6.707107C18.7071,6.707107,17.2929,5.292893,17.2929,5.292893C17.2929,5.292893,17.2929,5.292893,17.2929,5.292893Z" fill="#121212" fill-opacity="1"/></g><g style="mix-blend-mode:passthrough"><path d="M6.707107,5.292893C6.316583,4.9023699999999995,5.683417,4.9023699999999995,5.292893,5.292893C4.9023699999999995,5.683417,4.9023699999999995,6.316583,5.292893,6.707107C5.292893,6.707107,6.707107,5.292893,6.707107,5.292893C6.707107,5.292893,6.707107,5.292893,6.707107,5.292893ZM17.2929,18.7071C17.6834,19.0976,18.3166,19.0976,18.7071,18.7071C19.0976,18.3166,19.0976,17.6834,18.7071,17.2929C18.7071,17.2929,17.2929,18.7071,17.2929,18.7071C17.2929,18.7071,17.2929,18.7071,17.2929,18.7071ZM5.292893,6.707107C5.292893,6.707107,17.2929,18.7071,17.2929,18.7071C17.2929,18.7071,18.7071,17.2929,18.7071,17.2929C18.7071,17.2929,6.707107,5.292893,6.707107,5.292893C6.707107,5.292893,5.292893,6.707107,5.292893,6.707107C5.292893,6.707107,5.292893,6.707107,5.292893,6.707107Z" fill="#121212" fill-opacity="1"/></g></g></g></g></g></svg>