<svg xmlns="http://www.w3.org/2000/svg" xmlns:xlink="http://www.w3.org/1999/xlink" fill="none" version="1.1" width="24" height="24" viewBox="0 0 24 24"><clipPath id="master_svg_0"><rect x="0" y="0" width="24" height="24" rx="0"/></clipPath><g clip-path="url(#master_svg_0)" style="mix-blend-mode:passthrough"><g><g style="mix-blend-mode:passthrough"><path d="M17.652953143310548,4.060443269042969C17.613753143310547,4.026503269042969,17.571053143310547,3.9967332690429687,17.525553143310546,3.971613269042969C15.404853143310547,2.517926269042969,12.794553143310546,1.9637382690429688,10.266093143310547,2.430371269042969C7.737663143310547,2.8970042690429687,5.497113143310546,4.346443269042968,4.034963143310547,6.461363269042969C2.572823143310547,8.576273269042968,2.0082111433105467,11.184363269042969,2.464740143310547,13.71461326904297C2.921270143310547,16.244913269042968,4.361743143310546,18.49121326904297,6.470803143310547,19.96181326904297C8.579863143310547,21.432413269042968,11.185683143310547,22.007413269042967,13.717753143310548,21.56101326904297C16.249853143310546,21.11461326904297,18.501953143310548,19.68311326904297,19.980853143310547,17.57991326904297C21.459853143310546,15.47681326904297,22.045353143310546,12.873313269042969,21.609053143310547,10.33942326904297C21.172753143310548,7.805583269042969,19.750253143310548,5.5478232690429685,17.652953143310548,4.060443269042969C17.652953143310548,4.060443269042969,17.652953143310548,4.060443269042969,17.652953143310548,4.060443269042969ZM11.999983143310548,14.250013269042968C11.554973143310546,14.250013269042968,11.119963143310548,14.118013269042969,10.749953143310547,13.87081326904297C10.379943143310546,13.623613269042968,10.091553143310547,13.272213269042968,9.921253143310548,12.861013269042969C9.750953143310547,12.449913269042968,9.706403143310546,11.997513269042969,9.793213143310547,11.561053269042969C9.880033143310547,11.124593269042968,10.094323143310547,10.723683269042969,10.408993143310546,10.409013269042969C10.723663143310548,10.09435326904297,11.124573143310547,9.880053269042968,11.561033143310548,9.793243269042968C11.997483143310546,9.706423269042968,12.449853143310547,9.750983269042969,12.861053143310547,9.921273269042969C13.272153143310547,10.091573269042968,13.623553143310547,10.37996326904297,13.870753143310546,10.749973269042968C14.118053143310547,11.119983269042969,14.249953143310547,11.555003269042968,14.249953143310547,12.000003269042969C14.249253143310547,12.596513269042969,14.012053143310547,13.168413269042968,13.590253143310546,13.59021326904297C13.168453143310547,14.012013269042969,12.596553143310548,14.249313269042968,11.999983143310548,14.250013269042968C11.999983143310548,14.250013269042968,11.999983143310548,14.250013269042968,11.999983143310548,14.250013269042968ZM20.249953143310545,12.000003269042969C20.249953143310545,12.231723269042968,20.239853143310548,12.461113269042968,20.221053143310545,12.688013269042969C20.221053143310545,12.688013269042969,15.747453143310548,11.89920326904297,15.747453143310548,11.89920326904297C15.723253143310547,10.975033269042969,15.357253143310547,10.09266326904297,14.720153143310547,9.422753269042968C14.720153143310547,9.422753269042968,17.324353143310546,5.703593269042969,17.324353143310546,5.703593269042969C18.241053143310545,6.476763269042968,18.977853143310547,7.440833269042969,19.483153143310545,8.528393269042969C19.988553143310547,9.615953269042969,20.250253143310548,10.800773269042969,20.249953143310545,12.000003269042969C20.249953143310545,12.000003269042969,20.249953143310545,12.000003269042969,20.249953143310545,12.000003269042969Z" fill="#000000" fill-opacity="1"/></g></g></g></svg>