<svg xmlns="http://www.w3.org/2000/svg" xmlns:xlink="http://www.w3.org/1999/xlink" fill="none" version="1.1" width="24" height="24" viewBox="0 0 24 24"><clipPath id="master_svg_0"><rect x="0" y="0" width="24" height="24" rx="0"/></clipPath><g clip-path="url(#master_svg_0)" style="mix-blend-mode:passthrough"><g><g style="mix-blend-mode:passthrough"><path d="M11.99996566772461,2.25C10.07160566772461,2.250000000000001,8.186535667724609,2.821828,6.5831556677246095,3.89317C4.9797856677246095,4.96452,3.7300956677246093,6.48726,2.9921446677246095,8.26884C2.2541901477246093,10.050419999999999,2.061107667724609,12.01082,2.4373136677246094,13.9021C2.8135196677246093,15.7934,3.7421156677246095,17.5307,5.10567566772461,18.8943C6.46924566772461,20.2579,8.206525667724609,21.1865,10.09783566772461,21.5627C11.98915566772461,21.9389,13.94956566772461,21.7458,15.731165667724609,21.0078C17.51266566772461,20.2699,19.03546566772461,19.0202,20.10676566772461,17.416800000000002C21.17816566772461,15.8134,21.74996566772461,13.9284,21.74996566772461,12C21.74696566772461,9.41506,20.71876566772461,6.93684,18.890965667724608,5.10901C17.06316566772461,3.28118,14.584865667724609,2.25298763,11.99996566772461,2.25C11.99996566772461,2.25,11.99996566772461,2.25,11.99996566772461,2.25ZM15.71186566772461,13.0986C15.71186566772461,13.0986,12.53116566772461,16.279400000000003,12.53116566772461,16.279400000000003C12.39016566772461,16.42,12.199125667724608,16.499000000000002,11.99996566772461,16.499000000000002C11.80081566772461,16.499000000000002,11.60979566772461,16.42,11.468785667724609,16.279400000000003C11.468785667724609,16.279400000000003,8.28805566772461,13.0986,8.28805566772461,13.0986C8.14766566772461,12.9579,8.068865667724609,12.7673,8.068975667724608,12.5685C8.06907566772461,12.3698,8.148075667724608,12.17919,8.28861566772461,12.03865C8.42915566772461,11.89811,8.61974566772461,11.81911,8.818495667724608,11.819C9.017245667724609,11.8189,9.20791566772461,11.8977,9.348605667724609,12.03809C9.348605667724609,12.03809,11.24996566772461,13.9395,11.24996566772461,13.9395C11.24996566772461,13.9395,11.24996566772461,8.25,11.24996566772461,8.25C11.24996566772461,8.05109,11.32898566772461,7.86032,11.46963566772461,7.71967C11.610295667724609,7.57902,11.80105566772461,7.5,11.99996566772461,7.5C12.198885667724609,7.5,12.389665667724609,7.57902,12.53026566772461,7.71967C12.670965667724609,7.86032,12.74996566772461,8.05109,12.74996566772461,8.25C12.74996566772461,8.25,12.74996566772461,13.9395,12.74996566772461,13.9395C12.74996566772461,13.9395,14.65136566772461,12.03809,14.65136566772461,12.03809C14.792065667724609,11.8977,14.982665667724609,11.8189,15.18146566772461,11.819C15.38016566772461,11.81911,15.57076566772461,11.89811,15.711365667724609,12.03865C15.85186566772461,12.17919,15.930865667724609,12.3698,15.930965667724609,12.5685C15.93106566772461,12.7673,15.852265667724609,12.9579,15.71186566772461,13.0986C15.71186566772461,13.0986,15.71186566772461,13.0986,15.71186566772461,13.0986Z" fill="#000000" fill-opacity="1"/></g></g></g></svg>