<svg xmlns="http://www.w3.org/2000/svg" xmlns:xlink="http://www.w3.org/1999/xlink" fill="none" version="1.1" width="24" height="24" viewBox="0 0 24 24"><g style="mix-blend-mode:passthrough"><g><g style="mix-blend-mode:passthrough"><g><g style="mix-blend-mode:passthrough"><path d="M15.849783396720886,2.5006999285002443C16.480783396720888,2.5006999285002443,17.110783396720887,2.5896999565002443,17.709783396720887,2.7907002565002443C21.400783396720886,3.990700256500244,22.730783396720888,8.040700256500244,21.619783396720887,11.580700256500243C20.989783396720885,13.389740256500245,19.959783396720887,15.040740256500245,18.610783396720887,16.389740256500247C16.679783396720886,18.259740256500244,14.560783396720886,19.919740256500244,12.279783396720886,21.349740256500244C12.279783396720886,21.349740256500244,12.029783396720886,21.500740256500244,12.029783396720886,21.500740256500244C12.029783396720886,21.500740256500244,11.769803396720887,21.339740256500246,11.769803396720887,21.339740256500246C9.480803396720887,19.919740256500244,7.349803396720886,18.259740256500244,5.400803396720886,16.379740256500245C4.060803396720886,15.030740256500245,3.029803396720886,13.389740256500245,2.389800396720886,11.580700256500243C1.2598003967208862,8.040700256500244,2.5898003967208862,3.990700256500244,6.320803396720886,2.769700256500244C6.610803396720886,2.6697002565002443,6.9098033967208865,2.599699956500244,7.209803396720886,2.560699956500244C7.209803396720886,2.560699956500244,7.329803396720886,2.560699956500244,7.329803396720886,2.560699956500244C7.610803396720886,2.519699956500244,7.889803396720886,2.5006999285002443,8.169803396720887,2.5006999285002443C8.169803396720887,2.5006999285002443,8.279803396720887,2.5006999285002443,8.279803396720887,2.5006999285002443C8.909803396720886,2.519699956500244,9.519803396720885,2.6297002565002443,10.110803396720886,2.8307002565002444C10.110803396720886,2.8307002565002444,10.169803396720885,2.8307002565002444,10.169803396720885,2.8307002565002444C10.209803396720886,2.849700256500244,10.239803396720886,2.870700256500244,10.259803396720887,2.889700256500244C10.480803396720885,2.9607002565002443,10.689803396720887,3.0407002565002443,10.889803396720886,3.150700256500244C10.889803396720886,3.150700256500244,11.269803396720887,3.320700256500244,11.269803396720887,3.320700256500244C11.361623396720887,3.369671256500244,11.464683396720886,3.444499256500244,11.553763396720885,3.5091702565002443C11.610193396720886,3.550140256500244,11.661013396720886,3.587040256500244,11.699803396720887,3.610700256500244C11.716123396720887,3.620330256500244,11.732703396720886,3.630010256500244,11.749423396720886,3.639770256500244C11.835163396720887,3.6898202565002443,11.924483396720886,3.741960256500244,11.999783396720886,3.7997002565002442C13.110783396720887,2.950700256500244,14.459783396720887,2.4906999265002443,15.849783396720886,2.5006999285002443C15.849783396720886,2.5006999285002443,15.849783396720886,2.5006999285002443,15.849783396720886,2.5006999285002443ZM18.509783396720888,9.700700256500244C18.919783396720888,9.689700256500245,19.269783396720886,9.360700256500245,19.299783396720887,8.939700256500245C19.299783396720887,8.939700256500245,19.299783396720887,8.820700256500244,19.299783396720887,8.820700256500244C19.329783396720885,7.419700256500244,18.480783396720888,6.150700256500244,17.189783396720884,5.6607002565002436C16.779783396720887,5.5197002565002435,16.329783396720885,5.740700256500244,16.179783396720886,6.1607002565002436C16.039783396720885,6.580700256500244,16.259783396720884,7.040700256500244,16.679783396720886,7.189700256500244C17.320783396720884,7.429700256500245,17.749783396720886,8.060700256500244,17.749783396720886,8.759700256500244C17.749783396720886,8.759700256500244,17.749783396720886,8.790700256500244,17.749783396720886,8.790700256500244C17.730783396720888,9.019700256500244,17.799783396720887,9.240700256500244,17.939783396720884,9.410700256500245C18.079783396720885,9.580700256500243,18.289783396720885,9.679700256500244,18.509783396720888,9.700700256500244C18.509783396720888,9.700700256500244,18.509783396720888,9.700700256500244,18.509783396720888,9.700700256500244Z" fill-rule="evenodd" fill="#FB233B" fill-opacity="1"/></g></g></g></g></g></svg>