<svg xmlns="http://www.w3.org/2000/svg" xmlns:xlink="http://www.w3.org/1999/xlink" fill="none" version="1.1" width="24" height="24" viewBox="0 0 24 24"><g style="mix-blend-mode:passthrough"><g><g style="mix-blend-mode:passthrough"><g><g style="mix-blend-mode:passthrough"><path d="M9.13478,20.7733C9.13478,20.7733,9.13478,17.715600000000002,9.13478,17.715600000000002C9.13478,16.9351,9.77217,16.302300000000002,10.55844,16.302300000000002C10.55844,16.302300000000002,13.4326,16.302300000000002,13.4326,16.302300000000002C13.8102,16.302300000000002,14.1723,16.4512,14.4393,16.7163C14.7063,16.981299999999997,14.8563,17.3408,14.8563,17.715600000000002C14.8563,17.715600000000002,14.8563,20.7733,14.8563,20.7733C14.8539,21.0978,14.9821,21.4099,15.2124,21.6402C15.4427,21.8705,15.7561,22,16.082900000000002,22C16.082900000000002,22,18.043799999999997,22,18.043799999999997,22C18.9596,22.0023,19.8388,21.6428,20.4872,21.0008C21.1356,20.3588,21.5,19.487,21.5,18.5778C21.5,18.5778,21.5,9.866859999999999,21.5,9.866859999999999C21.5,9.13246,21.1721,8.435839999999999,20.6046,7.96467C20.6046,7.96467,13.934,2.675869,13.934,2.675869C12.7737,1.748562,11.11111,1.778502,9.985389999999999,2.746979C9.985389999999999,2.746979,3.467012,7.96467,3.467012,7.96467C2.872741,8.421949999999999,2.5175523,9.12064,2.5,9.866859999999999C2.5,9.866859999999999,2.5,18.5689,2.5,18.5689C2.5000000000000004,20.4639,4.04738,22,5.95617,22C5.95617,22,7.87229,22,7.87229,22C8.55123,22,9.103,21.4562,9.10792,20.7822C9.10792,20.7822,9.13478,20.7733,9.13478,20.7733C9.13478,20.7733,9.13478,20.7733,9.13478,20.7733Z" fill="#FB233B" fill-opacity="1"/></g></g></g></g></g></svg>