<svg xmlns="http://www.w3.org/2000/svg" xmlns:xlink="http://www.w3.org/1999/xlink" fill="none" version="1.1" width="24" height="24" viewBox="0 0 24 24"><clipPath id="master_svg_0"><rect x="0" y="0" width="24" height="24" rx="0"/></clipPath><g clip-path="url(#master_svg_0)" style="mix-blend-mode:passthrough"><g><g style="mix-blend-mode:passthrough"><path d="M19.715574365234374,5.2816032971191404C19.715574365234374,5.2816032971191404,12.215524365234375,3.0316075971191405,12.215524365234375,3.0316075971191405C12.103544365234375,2.9980084671191407,11.985244365234376,2.9910579671191404,11.870094365234374,3.0113104971191405C11.754944365234376,3.0315629971191407,11.646114365234375,3.0784574971191407,11.552314365234375,3.148250297119141C11.458514365234375,3.2180432971191406,11.382324365234375,3.3088012971191407,11.329834365234376,3.4132782971191404C11.277344365234374,3.517754297119141,11.250014365234374,3.6330562971191407,11.250014365234374,3.7499762971191406C11.250014365234374,3.7499762971191406,11.250014365234374,13.89947329711914,11.250014365234374,13.89947329711914C10.482244365234376,13.213073297119141,9.502184365234374,12.811003297119141,8.473584365234375,12.760373297119141C7.4449943652343755,12.709753297119141,6.430174365234375,13.01367329711914,5.598724365234375,13.62137329711914C4.767264365234375,14.22897329711914,4.169533365234375,15.10357329711914,3.905410365234375,16.09897329711914C3.641286365234375,17.09437329711914,3.726769465234375,18.150273297119142,4.147575365234375,19.09017329711914C4.568381365234375,20.03017329711914,5.299014365234375,20.79717329711914,6.217394365234375,21.263173297119142C7.135774365234375,21.72917329711914,8.186264365234376,21.86587329711914,9.193314365234375,21.65047329711914C10.200374365234374,21.43507329711914,11.102994365234375,20.880573297119142,11.750344365234376,20.07957329711914C12.397704365234375,19.27867329711914,12.750584365234374,18.279773297119142,12.750014365234374,17.24997329711914C12.750014365234374,17.24997329711914,12.750014365234374,4.758013297119141,12.750014365234374,4.758013297119141C12.750014365234374,4.758013297119141,19.284474365234374,6.718343297119141,19.284474365234374,6.718343297119141C19.474974365234374,6.7755032971191405,19.680474365234375,6.75463329711914,19.855574365234375,6.6603332971191405C20.030674365234376,6.566033297119141,20.161174365234373,6.406013297119141,20.218374365234375,6.21549329711914C20.275574365234377,6.024973297119141,20.254674365234376,5.819543297119141,20.160374365234375,5.6444032971191405C20.066074365234375,5.469263297119141,19.906074365234375,5.33876329711914,19.715574365234374,5.2816032971191404C19.715574365234374,5.2816032971191404,19.715574365234374,5.2816032971191404,19.715574365234374,5.2816032971191404Z" fill="#000000" fill-opacity="1"/></g></g></g></svg>