<svg xmlns="http://www.w3.org/2000/svg" xmlns:xlink="http://www.w3.org/1999/xlink" fill="none" version="1.1" width="24" height="24" viewBox="0 0 24 24"><clipPath id="master_svg_0"><rect x="0" y="0" width="24" height="24" rx="0"/></clipPath><g clip-path="url(#master_svg_0)" style="mix-blend-mode:passthrough"><g><g style="mix-blend-mode:passthrough"><path d="M19.96087927856445,2.408617971069336C19.871379278564454,2.337917571069336,19.766879278564453,2.288838271069336,19.655279278564453,2.265207671069336C19.543779278564454,2.241577081069336,19.428279278564453,2.244033911069336,19.317779278564455,2.272386571069336C19.317779278564455,2.272386571069336,7.317809278564453,5.272385971069336,7.317809278564453,5.272385971069336C7.155519278564453,5.312845971069336,7.011419278564453,5.406405971069336,6.908429278564453,5.538195971069336C6.805439278564453,5.669985971069336,6.749479278564453,5.832425971069336,6.7494492785644535,5.999685971069336C6.7494492785644535,5.999685971069336,6.7494492785644535,16.321135971069335,6.7494492785644535,16.321135971069335C6.124019278564453,15.903535971069337,5.376959278564453,15.706835971069337,4.626969278564453,15.762435971069335C3.876969278564453,15.818035971069335,3.1670592785644534,16.122635971069336,2.610009278564453,16.627835971069338C2.052952278564453,17.133135971069336,1.6807132785644532,17.810035971069336,1.552425378564453,18.551035971069336C1.424137378564453,19.292035971069335,1.5471588785644532,20.054735971069334,1.901945278564453,20.717835971069334C2.256731278564453,21.380935971069334,2.822929278564453,21.906435971069335,3.5105992785644533,22.210935971069336C4.1982592785644535,22.515335971069337,4.967949278564453,22.581235971069336,5.697379278564453,22.398235971069337C6.426799278564453,22.215135971069337,7.074129278564453,21.793535971069335,7.5365192785644535,21.200435971069336C7.9989092785644536,20.607335971069336,8.249839278564453,19.876735971069337,8.249449278564454,19.124635971069335C8.249449278564454,19.124635971069335,8.249449278564454,10.334885971069337,8.249449278564454,10.334885971069337C8.249449278564454,10.334885971069337,18.749479278564454,7.709885971069336,18.749479278564454,7.709885971069336C18.749479278564454,7.709885971069336,18.749479278564454,13.321135971069335,18.749479278564454,13.321135971069335C18.123979278564452,12.903535971069337,17.376979278564455,12.706835971069337,16.626979278564455,12.762435971069335C15.876979278564454,12.818035971069335,15.167079278564453,13.122635971069336,14.609979278564452,13.627835971069336C14.052979278564454,14.133135971069336,13.680679278564453,14.810035971069336,13.552379278564453,15.551035971069336C13.424179278564454,16.292035971069335,13.547179278564453,17.054735971069334,13.901979278564452,17.717835971069334C14.256779278564453,18.380935971069334,14.822979278564453,18.906435971069335,15.510579278564453,19.210935971069336C16.198279278564453,19.515335971069337,16.967979278564453,19.581235971069336,17.697379278564455,19.398235971069337C18.426779278564453,19.215135971069337,19.074079278564454,18.793535971069335,19.536479278564453,18.200435971069336C19.998879278564452,17.607335971069336,20.249879278564453,16.876735971069337,20.249479278564454,16.12463597106934C20.249479278564454,16.12463597106934,20.249479278564454,2.999681971069336,20.249479278564454,2.999681971069336C20.249279278564455,2.885728971069336,20.223279278564455,2.773298971069336,20.173279278564454,2.670897971069336C20.123279278564453,2.568497971069336,20.050679278564452,2.478808971069336,19.96087927856445,2.408617971069336C19.96087927856445,2.408617971069336,19.96087927856445,2.408617971069336,19.96087927856445,2.408617971069336Z" fill="#000000" fill-opacity="1"/></g></g></g></svg>