<svg xmlns="http://www.w3.org/2000/svg" xmlns:xlink="http://www.w3.org/1999/xlink" fill="none" version="1.1" width="24" height="24" viewBox="0 0 24 24"><clipPath id="master_svg_0"><rect x="0" y="0" width="24" height="24" rx="0"/></clipPath><g clip-path="url(#master_svg_0)" style="mix-blend-mode:passthrough"><g><g style="mix-blend-mode:passthrough"><path d="M19.961531326293944,2.4088061309814455C19.871631326293944,2.338663930981445,19.767031326293946,2.2899187309814453,19.655531326293946,2.2662735309814455C19.544031326293947,2.2426283009814454,19.428631326293946,2.2447051409814454,19.318031326293944,2.2723464309814454C19.318031326293944,2.2723464309814454,7.318071326293945,5.272346130981445,7.318071326293945,5.272346130981445C7.155801326293945,5.312906130981445,7.011751326293945,5.406556130981445,6.908821326293945,5.538396130981445C6.8058913262939456,5.670236130981445,6.749981326293946,5.832696130981445,6.749991326293945,5.999966130981445C6.749991326293945,5.999966130981445,6.749991326293945,16.320256130981445,6.749991326293945,16.320256130981445C6.124481326293945,15.902456130981445,5.377301326293946,15.705756130981445,4.627151326293945,15.761156130981446C3.877001326293945,15.816656130981446,3.1669013262939454,16.121256130981443,2.609661326293945,16.626556130981445C2.0524243262939454,17.131756130981444,1.6800083262939454,17.808756130981443,1.5515786262939453,18.549956130981446C1.4231486262939452,19.291056130981445,1.5460702262939454,20.053856130981444,1.9008153262939453,20.717156130981444C2.255560326293945,21.380456130981447,2.8217813262939453,21.906256130981447,3.509531326293945,22.210856130981444C4.197281326293945,22.515456130981445,4.967101326293945,22.581556130981447,5.696711326293945,22.398656130981447C6.426321326293945,22.215656130981444,7.073861326293946,21.794156130981445,7.536471326293945,21.200956130981446C7.999081326293945,20.607856130981446,8.250221326293946,19.877156130981444,8.249991326293944,19.124956130981445C8.249991326293944,19.124956130981445,8.249991326293944,6.5855361309814455,8.249991326293944,6.5855361309814455C8.249991326293944,6.5855361309814455,18.750031326293946,3.9605361309814455,18.750031326293946,3.9605361309814455C18.750031326293946,3.9605361309814455,18.750031326293946,13.320256130981445,18.750031326293946,13.320256130981445C18.124431326293944,12.902456130981445,17.377331326293945,12.705756130981445,16.627131326293945,12.761156130981446C15.877031326293945,12.816656130981446,15.166931326293945,13.121256130981445,14.609631326293945,13.626556130981445C14.052431326293945,14.131756130981445,13.680031326293946,14.808756130981445,13.551531326293945,15.549956130981446C13.423131326293944,16.291056130981445,13.546031326293946,17.053856130981444,13.900831326293945,17.717156130981444C14.255531326293946,18.380456130981447,14.821831326293946,18.906256130981447,15.509531326293946,19.210856130981444C16.197231326293945,19.515456130981445,16.967131326293945,19.581556130981447,17.696731326293946,19.398656130981447C18.426331326293944,19.215656130981444,19.073831326293945,18.794156130981445,19.536431326293947,18.200956130981446C19.999031326293945,17.607856130981446,20.250231326293946,16.877156130981447,20.250031326293946,16.124956130981445C20.250031326293946,16.124956130981445,20.250031326293946,2.9999621309814453,20.250031326293946,2.9999621309814453C20.250031326293946,2.8859811309814454,20.224031326293947,2.7734991309814454,20.174031326293946,2.671064130981445C20.124031326293945,2.5686301309814454,20.051331326293944,2.478938130981445,19.961531326293944,2.4088061309814455C19.961531326293944,2.4088061309814455,19.961531326293944,2.4088061309814455,19.961531326293944,2.4088061309814455Z" fill="#000000" fill-opacity="1"/></g></g></g></svg>