<svg xmlns="http://www.w3.org/2000/svg" xmlns:xlink="http://www.w3.org/1999/xlink" fill="none" version="1.1" width="24" height="24" viewBox="0 0 24 24"><clipPath id="master_svg_0"><rect x="0" y="0" width="24" height="24" rx="0"/></clipPath><g clip-path="url(#master_svg_0)" style="mix-blend-mode:passthrough"><g><g style="mix-blend-mode:passthrough"><path d="M19.5,3.75C19.5,3.75,19.5,20.25,19.5,20.25C19.5,20.4489,19.421,20.6397,19.2803,20.7803C19.139699999999998,20.921,18.948900000000002,21,18.75,21C18.551099999999998,21,18.360300000000002,20.921,18.2197,20.7803C18.079,20.6397,18,20.4489,18,20.25C18,20.25,18,13.3373,18,13.3373C18,13.3373,6.78223,20.1926,6.78223,20.1926C6.55484,20.3316,6.29454,20.4075,6.0281,20.4125C5.76166,20.4175,5.498706,20.3514,5.266278,20.221C5.033851,20.0907,4.840345,19.9007,4.705666,19.6708C4.5709876,19.4408,4.49999800825,19.1792,4.500000000107143,18.9127C4.500000000107143,18.9127,4.500000000107143,5.08731,4.500000000107143,5.08731C4.49999681562,4.82083,4.570981,4.55917,4.705651,4.32922C4.840321,4.09928,5.033815,3.909364,5.266231,3.779008C5.498646,3.648651,5.76159,3.582561,6.02802,3.587536C6.29445,3.59251,6.55475,3.66837,6.78214,3.807312C6.78214,3.807312,18,10.66269,18,10.66269C18,10.66269,18,3.75,18,3.75C18,3.551088,18.079,3.360322,18.2197,3.21967C18.360300000000002,3.0790178,18.551099999999998,2.999999999999999,18.75,3C18.948900000000002,2.999999999999999,19.139699999999998,3.0790178,19.2803,3.21967C19.421,3.360322,19.5,3.551088,19.5,3.75C19.5,3.75,19.5,3.75,19.5,3.75Z" fill="#000000" fill-opacity="1"/></g></g></g></svg>