<svg xmlns="http://www.w3.org/2000/svg" xmlns:xlink="http://www.w3.org/1999/xlink" fill="none" version="1.1" width="24" height="24" viewBox="0 0 24 24"><clipPath id="master_svg_0"><rect x="0" y="0" width="24" height="24" rx="0"/></clipPath><g clip-path="url(#master_svg_0)" style="mix-blend-mode:passthrough"><g><g style="mix-blend-mode:passthrough"><path d="M20.25,4.5C20.25,4.5,20.25,19.5,20.25,19.5C20.2495,19.8977,20.0914,20.279,19.8102,20.5602C19.529,20.8414,19.1477,20.9995,18.75,21C18.75,21,15.375,21,15.375,21C14.9773,20.9995,14.596,20.8414,14.3148,20.5602C14.0336,20.279,13.8755,19.8977,13.875,19.5C13.875,19.5,13.875,4.5,13.875,4.5C13.8755,4.10231,14.0336,3.721048,14.3148,3.439842C14.596,3.158636,14.9773,3.000454817,15.375,3C15.375,3,18.75,3,18.75,3C19.1477,3.000454817,19.529,3.158636,19.8102,3.439842C20.0914,3.721048,20.2495,4.10231,20.25,4.5C20.25,4.5,20.25,4.5,20.25,4.5ZM8.625,3C8.625,3,5.25,3,5.25,3C4.85231,3.000454817,4.471048,3.158636,4.189842,3.439842C3.908636,3.721048,3.750454817,4.10231,3.75,4.5C3.75,4.5,3.75,19.5,3.75,19.5C3.750454817,19.8977,3.908636,20.279,4.189842,20.5602C4.471048,20.8414,4.85231,20.9995,5.25,21C5.25,21,8.625,21,8.625,21C9.02269,20.9995,9.40395,20.8414,9.68516,20.5602C9.96636,20.279,10.12455,19.8977,10.125,19.5C10.125,19.5,10.125,4.5,10.125,4.5C10.12455,4.10231,9.96636,3.721048,9.68516,3.439842C9.40395,3.158636,9.02269,3.000454817,8.625,3C8.625,3,8.625,3,8.625,3Z" fill="#000000" fill-opacity="1"/></g></g></g></svg>