<svg xmlns="http://www.w3.org/2000/svg" xmlns:xlink="http://www.w3.org/1999/xlink" fill="none" version="1.1" width="24" height="24" viewBox="0 0 24 24"><clipPath id="master_svg_0"><rect x="0" y="0" width="24" height="24" rx="0"/></clipPath><g clip-path="url(#master_svg_0)" style="mix-blend-mode:passthrough"><g><g style="mix-blend-mode:passthrough"><path d="M11.999992370605469,2.25C10.07163237060547,2.250000000000001,8.186562370605468,2.821828,6.583182370605469,3.89317C4.979812370605469,4.96452,3.7301223706054687,6.48726,2.992171370605469,8.26884C2.2542168506054687,10.050419999999999,2.0611343706054686,12.01082,2.437340370605469,13.9021C2.8135463706054686,15.7934,3.742142370605469,17.5307,5.105702370605469,18.8943C6.469272370605469,20.2579,8.206552370605468,21.1865,10.097862370605469,21.5627C11.98918237060547,21.9389,13.949592370605469,21.7458,15.731192370605468,21.0078C17.51269237060547,20.2699,19.035492370605468,19.0202,20.10679237060547,17.416800000000002C21.17819237060547,15.8134,21.74999237060547,13.9284,21.74999237060547,12C21.74699237060547,9.41506,20.71879237060547,6.93684,18.890992370605467,5.10901C17.06319237060547,3.28118,14.584892370605468,2.25298763,11.999992370605469,2.25C11.999992370605469,2.25,11.999992370605469,2.25,11.999992370605469,2.25ZM10.499992370605469,15C10.499992370605469,15.1989,10.420982370605469,15.3897,10.280322370605468,15.5303C10.139672370605469,15.671,9.94891237060547,15.75,9.749992370605469,15.75C9.551082370605469,15.75,9.36032237060547,15.671,9.21966237060547,15.5303C9.079012370605469,15.3897,8.999992370605469,15.1989,8.999992370605469,15C8.999992370605469,15,8.999992370605469,9,8.999992370605469,9C8.999992370605469,8.80109,9.079012370605469,8.61032,9.21966237060547,8.46967C9.36032237060547,8.32902,9.551082370605469,8.25,9.749992370605469,8.25C9.94891237060547,8.25,10.139672370605469,8.32902,10.280322370605468,8.46967C10.420982370605469,8.61032,10.499992370605469,8.80109,10.499992370605469,9C10.499992370605469,9,10.499992370605469,15,10.499992370605469,15C10.499992370605469,15,10.499992370605469,15,10.499992370605469,15ZM14.999992370605469,15C14.999992370605469,15.1989,14.920992370605468,15.3897,14.78029237060547,15.5303C14.639692370605468,15.671,14.448892370605469,15.75,14.249992370605469,15.75C14.051092370605469,15.75,13.86029237060547,15.671,13.719692370605468,15.5303C13.57899237060547,15.3897,13.499992370605469,15.1989,13.499992370605469,15C13.499992370605469,15,13.499992370605469,9,13.499992370605469,9C13.499992370605469,8.80109,13.57899237060547,8.61032,13.719692370605468,8.46967C13.86029237060547,8.32902,14.051092370605469,8.25,14.249992370605469,8.25C14.448892370605469,8.25,14.639692370605468,8.32902,14.78029237060547,8.46967C14.920992370605468,8.61032,14.999992370605469,8.80109,14.999992370605469,9C14.999992370605469,9,14.999992370605469,15,14.999992370605469,15C14.999992370605469,15,14.999992370605469,15,14.999992370605469,15Z" fill="#000000" fill-opacity="1"/></g></g></g></svg>