<svg xmlns="http://www.w3.org/2000/svg" xmlns:xlink="http://www.w3.org/1999/xlink" fill="none" version="1.1" width="24" height="24" viewBox="0 0 24 24"><clipPath id="master_svg_0"><rect x="0" y="0" width="24" height="24" rx="0"/></clipPath><g clip-path="url(#master_svg_0)" style="mix-blend-mode:passthrough"><g><g style="mix-blend-mode:passthrough"><path d="M3,6C3.00000198909,5.801088,3.0790204,5.610324,3.219672,5.469672C3.360324,5.3290204,3.551088,5.25000198909,3.75,5.25C3.75,5.25,20.25,5.25,20.25,5.25C20.4489,5.25,20.6397,5.3290178,20.7803,5.46967C20.921,5.610322,21,5.801088,21,6C21,6.198912,20.921,6.38968,20.7803,6.53033C20.6397,6.67098,20.4489,6.75,20.25,6.75C20.25,6.75,3.75,6.75,3.75,6.75C3.551088,6.75,3.360324,6.67098,3.219672,6.53033C3.0790204,6.38968,3.00000198909,6.198912,3,6C3,6,3,6,3,6ZM12.75,11.25C12.75,11.25,3.75,11.25,3.75,11.25C3.551088,11.25,3.360322,11.32902,3.21967,11.46967C3.0790178,11.61032,3.0000000000000004,11.80109,3,12C3.0000000000000004,12.19891,3.0790178,12.38968,3.21967,12.53033C3.360322,12.67098,3.551088,12.75,3.75,12.75C3.75,12.75,12.75,12.75,12.75,12.75C12.94891,12.75,13.1397,12.67098,13.2803,12.53033C13.421,12.38968,13.5,12.19891,13.5,12C13.5,11.80109,13.421,11.61032,13.2803,11.46967C13.1397,11.32902,12.94891,11.25,12.75,11.25C12.75,11.25,12.75,11.25,12.75,11.25ZM12.75,17.25C12.75,17.25,3.75,17.25,3.75,17.25C3.551088,17.25,3.360322,17.329,3.21967,17.4697C3.0790178,17.610300000000002,3.0000000000000004,17.801099999999998,3,18C3.0000000000000004,18.198900000000002,3.0790178,18.389699999999998,3.21967,18.5303C3.360322,18.671,3.551088,18.75,3.75,18.75C3.75,18.75,12.75,18.75,12.75,18.75C12.94891,18.75,13.1397,18.671,13.2803,18.5303C13.421,18.389699999999998,13.5,18.198900000000002,13.5,18C13.5,17.801099999999998,13.421,17.610300000000002,13.2803,17.4697C13.1397,17.329,12.94891,17.25,12.75,17.25C12.75,17.25,12.75,17.25,12.75,17.25ZM22.8975,14.36398C22.8975,14.36398,16.8975,10.61398,16.8975,10.61398C16.784,10.543040000000001,16.6535,10.50377,16.5197,10.50026C16.3859,10.496749999999999,16.253500000000003,10.52913,16.136400000000002,10.59403C16.0193,10.65893,15.9218,10.75398,15.8538,10.869340000000001C15.7858,10.98469,15.75,11.116119999999999,15.75,11.25C15.75,11.25,15.75,18.75,15.75,18.75C15.75,18.8839,15.7858,19.0153,15.8538,19.130699999999997C15.9218,19.246000000000002,16.0193,19.3411,16.136400000000002,19.406C16.253500000000003,19.4709,16.3859,19.5033,16.5197,19.4997C16.6535,19.4962,16.784,19.457,16.8975,19.386C16.8975,19.386,22.8975,15.636,22.8975,15.636C23.0054,15.5686,23.0943,15.4748,23.156,15.3636C23.2176,15.2523,23.25,15.1272,23.25,15C23.25,14.8728,23.2176,14.74768,23.156,14.63642C23.0943,14.52516,23.0054,14.43141,22.8975,14.36398C22.8975,14.36398,22.8975,14.36398,22.8975,14.36398Z" fill="#000000" fill-opacity="1"/></g></g></g></svg>