<svg xmlns="http://www.w3.org/2000/svg" xmlns:xlink="http://www.w3.org/1999/xlink" fill="none" version="1.1" width="24" height="24" viewBox="0 0 24 24"><clipPath id="master_svg_0"><rect x="0" y="0" width="24" height="24" rx="0"/></clipPath><g clip-path="url(#master_svg_0)" style="mix-blend-mode:passthrough"><g><g style="mix-blend-mode:passthrough"><path d="M3,6C3.00000198909,5.801088,3.0790204,5.610324,3.219672,5.469672C3.360324,5.3290203,3.551088,5.25000198909,3.75,5.25C3.75,5.25,20.25,5.25,20.25,5.25C20.4489,5.25,20.6397,5.3290177,20.7803,5.46967C20.921,5.610322,21,5.801087,21,6C21,6.198912,20.921,6.38968,20.7803,6.53033C20.6397,6.67098,20.4489,6.75,20.25,6.75C20.25,6.75,3.75,6.75,3.75,6.75C3.551088,6.75,3.360324,6.67098,3.219672,6.53033C3.0790204,6.38968,3.00000198909,6.198911,3,6C3,6,3,6,3,6ZM3.75,12.75C3.75,12.75,15,12.75,15,12.75C15.1989,12.75,15.3897,12.67098,15.5303,12.53033C15.671,12.38968,15.75,12.19891,15.75,12C15.75,11.801079999999999,15.671,11.61032,15.5303,11.46967C15.3897,11.32902,15.1989,11.25,15,11.25C15,11.25,3.75,11.25,3.75,11.25C3.551088,11.25,3.360322,11.32902,3.21967,11.46967C3.0790178,11.61032,3.0000000000000004,11.801079999999999,3,12C3.0000000000000004,12.19891,3.0790178,12.38968,3.21967,12.53033C3.360322,12.67098,3.551088,12.75,3.75,12.75C3.75,12.75,3.75,12.75,3.75,12.75ZM10.5,17.25C10.5,17.25,3.75,17.25,3.75,17.25C3.551088,17.25,3.360322,17.329,3.21967,17.4697C3.0790178,17.610300000000002,3.0000000000000004,17.801099999999998,3,18C3.0000000000000004,18.198900000000002,3.0790178,18.389699999999998,3.21967,18.5303C3.360322,18.671,3.551088,18.75,3.75,18.75C3.75,18.75,10.5,18.75,10.5,18.75C10.69891,18.75,10.88968,18.671,11.03033,18.5303C11.17098,18.389699999999998,11.25,18.198900000000002,11.25,18C11.25,17.801099999999998,11.17098,17.610300000000002,11.03033,17.4697C10.88968,17.329,10.69891,17.25,10.5,17.25C10.5,17.25,10.5,17.25,10.5,17.25ZM22.7155,10.90663C22.7155,10.90663,18.9655,9.78163,18.9655,9.78163C18.8535,9.74803,18.7352,9.74108,18.6201,9.761330000000001C18.5049,9.78158,18.3961,9.828479999999999,18.302300000000002,9.89827C18.2085,9.968060000000001,18.1323,10.05882,18.0798,10.1633C18.0273,10.26778,18,10.38308,18,10.5C18,10.5,18,15.4036,18,15.4036C17.4282,15.07363,16.7635,14.94156,16.109,15.02788C15.4544,15.1142,14.8467,15.4141,14.38,15.881C13.9133,16.348,13.6137,16.9558,13.5277,17.6104C13.4417,18.265,13.5741,18.9296,13.9043,19.5013C14.2346,20.0729,14.7443,20.5196,15.3543,20.772100000000002C15.9643,21.0245,16.6405,21.0686,17.2782,20.8976C17.9158,20.7265,18.4792,20.349800000000002,18.8809,19.8259C19.2826,19.302,19.5002,18.6602,19.5,18C19.5,18,19.5,11.508040000000001,19.5,11.508040000000001C19.5,11.508040000000001,22.2845,12.34337,22.2845,12.34337C22.475,12.40052,22.6804,12.379660000000001,22.8556,12.285350000000001C23.0307,12.19105,23.1612,12.03104,23.2184,11.84051C23.2755,11.649989999999999,23.2547,11.44456,23.1604,11.26943C23.0661,11.09429,22.906,10.96379,22.7155,10.90663C22.7155,10.90663,22.7155,10.90663,22.7155,10.90663Z" fill="#000000" fill-opacity="1"/></g></g></g></svg>