<svg xmlns="http://www.w3.org/2000/svg" xmlns:xlink="http://www.w3.org/1999/xlink" fill="none" version="1.1" width="24" height="24" viewBox="0 0 24 24"><clipPath id="master_svg_0"><rect x="0" y="0" width="24" height="24" rx="0"/></clipPath><g clip-path="url(#master_svg_0)" style="mix-blend-mode:passthrough"><g><g style="mix-blend-mode:passthrough"><path d="M21.7793,10.719771303710937C21.7793,10.719771303710937,8.28223,2.4712313037109377,8.28223,2.4712313037109377C8.05488,2.3322105037109373,7.7946100000000005,2.2562723437109375,7.52817,2.2512299007109373C7.26174,2.2461874537109376,6.998778,2.3122228037109376,6.766338,2.4425413037109376C6.533898,2.5728603037109377,6.340376,2.7627563037109377,6.205685,2.9926903037109374C6.0709935,3.2226243037109374,5.99999712948,3.4842913037109375,6.000000000087049,3.7507713037109376C6.000000000087049,3.7507713037109376,6.000000000087049,20.249261303710938,6.000000000087049,20.249261303710938C6.000216825,20.51566130371094,6.0713501,20.777261303710937,6.206092,21.007061303710937C6.340835,21.23686130371094,6.534328,21.426661303710937,6.766693,21.55686130371094C6.999057,21.687161303710937,7.26192,21.75326130371094,7.5282599999999995,21.748361303710936C7.7946100000000005,21.743361303710937,8.05484,21.667661303710936,8.28223,21.528861303710936C8.28223,21.528861303710936,21.7793,13.280361303710938,21.7793,13.280361303710938C21.9986,13.146261303710938,22.1797,12.958061303710938,22.3054,12.733961303710938C22.4311,12.509761303710938,22.4971,12.257061303710937,22.4971,12.000041303710937C22.4971,11.743031303710938,22.4311,11.490341303710938,22.3054,11.266161303710938C22.1797,11.041991303710937,21.9986,10.853841303710938,21.7793,10.719771303710937C21.7793,10.719771303710937,21.7793,10.719771303710937,21.7793,10.719771303710937Z" fill="#000000" fill-opacity="1"/></g></g></g></svg>