<svg xmlns="http://www.w3.org/2000/svg" xmlns:xlink="http://www.w3.org/1999/xlink" fill="none" version="1.1" width="24" height="24" viewBox="0 0 24 24"><clipPath id="master_svg_0"><rect x="0" y="0" width="24" height="24" rx="0"/></clipPath><g clip-path="url(#master_svg_0)" style="mix-blend-mode:passthrough"><g><g style="mix-blend-mode:passthrough"><path d="M5.25,3C5.448912,3.00000198909,5.63968,3.0790204,5.78033,3.219672C5.92098,3.360324,6,3.551088,6,3.75C6,3.75,6,10.66269,6,10.66269C6,10.66269,17.2179,3.807314,17.2179,3.807314C17.4453,3.6683719999999997,17.7055,3.592512,17.972,3.587538C18.2384,3.582563,18.5014,3.648653,18.733800000000002,3.779009C18.9662,3.909365,19.1597,4.09928,19.2943,4.32922C19.429000000000002,4.55917,19.5,4.82083,19.5,5.08731C19.5,5.08731,19.5,18.9127,19.5,18.9127C19.4999,19.1791,19.428800000000003,19.4407,19.2941,19.6706C19.159399999999998,19.9005,18.965899999999998,20.0904,18.7335,20.2207C18.5012,20.351,18.238300000000002,20.4171,17.971899999999998,20.4122C17.7055,20.4073,17.4452,20.3315,17.2178,20.1926C17.2178,20.1926,6,13.3373,6,13.3373C6,13.3373,6,20.25,6,20.25C6,20.4489,5.92098,20.6397,5.78033,20.7803C5.63968,20.921,5.448912,21,5.25,21C5.051088,21,4.860322,20.921,4.71967,20.7803C4.5790178,20.6397,4.5,20.4489,4.5,20.25C4.5,20.25,4.5,3.75,4.5,3.75C4.50000198909,3.551088,4.5790204,3.360324,4.719672,3.219672C4.860324,3.0790204,5.051088,3.00000198909,5.25,3C5.25,3,5.25,3,5.25,3Z" fill="#000000" fill-opacity="1"/></g></g></g></svg>