<svg xmlns="http://www.w3.org/2000/svg" xmlns:xlink="http://www.w3.org/1999/xlink" fill="none" version="1.1" width="24" height="24" viewBox="0 0 24 24"><g style="mix-blend-mode:passthrough"><g><g style="mix-blend-mode:passthrough"><g><g style="mix-blend-mode:passthrough"><path d="M2,10.66993C2,5.88166,5.840339999999999,2,10.57764,2C12.8526,2,15.0343,2.913436,16.642899999999997,4.53936C18.2516,6.16529,19.1553,8.370519999999999,19.1553,10.66993C19.1553,15.4582,15.3149,19.3399,10.57764,19.3399C5.840339999999999,19.3399,2,15.4582,2,10.66993ZM19.0133,17.6543L21.568,19.7164L21.6124,19.7164C22.1292,20.2388,22.1292,21.0858,21.6124,21.6082C21.0955,22.1306,20.2575,22.1306,19.7407,21.6082L17.6207,19.1784C17.420299999999997,18.9766,17.3076,18.7023,17.3076,18.4164C17.3076,18.1304,17.420299999999997,17.856099999999998,17.6207,17.6543C18.0072,17.270400000000002,18.6268,17.270400000000002,19.0133,17.6543Z" fill-rule="evenodd" fill="#FB233B" fill-opacity="1"/></g></g></g></g></g></svg>