<svg xmlns="http://www.w3.org/2000/svg" xmlns:xlink="http://www.w3.org/1999/xlink" fill="none" version="1.1" width="24" height="24" viewBox="0 0 24 24"><clipPath id="master_svg_0"><rect x="0" y="0" width="24" height="24" rx="0"/></clipPath><g clip-path="url(#master_svg_0)" style="mix-blend-mode:passthrough"><g><g style="mix-blend-mode:passthrough"><path d="M18.4773,4.125C18.4773,4.125,5.52274,4.125,5.52274,4.125C4.750787,4.125,4.125,4.750787,4.125,5.52274C4.125,5.52274,4.125,18.4773,4.125,18.4773C4.125,19.249200000000002,4.750787,19.875,5.52274,19.875C5.52274,19.875,18.4773,19.875,18.4773,19.875C19.249200000000002,19.875,19.875,19.249200000000002,19.875,18.4773C19.875,18.4773,19.875,5.52274,19.875,5.52274C19.875,4.750787,19.249200000000002,4.125,18.4773,4.125C18.4773,4.125,18.4773,4.125,18.4773,4.125Z" fill="#000000" fill-opacity="1"/></g></g></g></svg>